%TF.GenerationSoftware,KiCad,Pcbnew,9.0.0*%
%TF.CreationDate,2025-04-01T16:17:43+02:00*%
%TF.ProjectId,three_camera_trigger_arduino,74687265-655f-4636-916d-6572615f7472,rev?*%
%TF.SameCoordinates,Original*%
%TF.FileFunction,Plated,1,2,PTH,Drill*%
%TF.FilePolarity,Positive*%
%FSLAX46Y46*%
G04 Gerber Fmt 4.6, Leading zero omitted, Abs format (unit mm)*
G04 Created by KiCad (PCBNEW 9.0.0) date 2025-04-01 16:17:43*
%MOMM*%
%LPD*%
G01*
G04 APERTURE LIST*
%TA.AperFunction,ComponentDrill*%
%ADD10C,1.000000*%
%TD*%
%TA.AperFunction,ComponentDrill*%
%ADD11C,1.300000*%
%TD*%
%TA.AperFunction,ComponentDrill*%
%ADD12C,3.000000*%
%TD*%
%TA.AperFunction,ComponentDrill*%
%ADD13C,3.200000*%
%TD*%
G04 APERTURE END LIST*
D10*
%TO.C,A1*%
X108500000Y-87420000D03*
X108500000Y-89960000D03*
X108500000Y-92500000D03*
X108500000Y-95040000D03*
X108500000Y-97580000D03*
X108500000Y-100120000D03*
X108500000Y-102660000D03*
X108500000Y-105200000D03*
X108500000Y-107740000D03*
X108500000Y-110280000D03*
X108500000Y-112820000D03*
X108500000Y-115360000D03*
X108500000Y-117900000D03*
X108500000Y-120440000D03*
X108500000Y-122980000D03*
X123740000Y-87420000D03*
X123740000Y-89960000D03*
X123740000Y-92500000D03*
X123740000Y-95040000D03*
X123740000Y-97580000D03*
X123740000Y-100120000D03*
X123740000Y-102660000D03*
X123740000Y-105200000D03*
X123740000Y-107740000D03*
X123740000Y-110280000D03*
X123740000Y-112820000D03*
X123740000Y-115360000D03*
X123740000Y-117900000D03*
X123740000Y-120440000D03*
X123740000Y-122980000D03*
D11*
%TO.C,J1*%
X92500000Y-79500000D03*
X92500000Y-84500000D03*
%TO.C,J2*%
X92500000Y-98000000D03*
X92500000Y-103000000D03*
%TO.C,J3*%
X92500000Y-113000000D03*
X92500000Y-118000000D03*
%TO.C,J4*%
X92500000Y-127500000D03*
X92500000Y-132500000D03*
D12*
%TO.C,REF\u002A\u002A*%
X82300000Y-139700000D03*
X126700000Y-75300000D03*
X126700000Y-139700000D03*
D13*
X82100000Y-75100000D03*
M02*
