%TF.GenerationSoftware,KiCad,Pcbnew,9.0.0*%
%TF.CreationDate,2025-04-01T16:17:38+02:00*%
%TF.ProjectId,three_camera_trigger_arduino,74687265-655f-4636-916d-6572615f7472,rev?*%
%TF.SameCoordinates,Original*%
%TF.FileFunction,Legend,Top*%
%TF.FilePolarity,Positive*%
%FSLAX46Y46*%
G04 Gerber Fmt 4.6, Leading zero omitted, Abs format (unit mm)*
G04 Created by KiCad (PCBNEW 9.0.0) date 2025-04-01 16:17:38*
%MOMM*%
%LPD*%
G01*
G04 APERTURE LIST*
%ADD10C,0.100000*%
%ADD11C,0.150000*%
%ADD12C,0.120000*%
G04 APERTURE END LIST*
D10*
X110303884Y-130872419D02*
X110303884Y-131681942D01*
X110303884Y-131681942D02*
X110351503Y-131777180D01*
X110351503Y-131777180D02*
X110399122Y-131824800D01*
X110399122Y-131824800D02*
X110494360Y-131872419D01*
X110494360Y-131872419D02*
X110684836Y-131872419D01*
X110684836Y-131872419D02*
X110780074Y-131824800D01*
X110780074Y-131824800D02*
X110827693Y-131777180D01*
X110827693Y-131777180D02*
X110875312Y-131681942D01*
X110875312Y-131681942D02*
X110875312Y-130872419D01*
X111303884Y-131824800D02*
X111446741Y-131872419D01*
X111446741Y-131872419D02*
X111684836Y-131872419D01*
X111684836Y-131872419D02*
X111780074Y-131824800D01*
X111780074Y-131824800D02*
X111827693Y-131777180D01*
X111827693Y-131777180D02*
X111875312Y-131681942D01*
X111875312Y-131681942D02*
X111875312Y-131586704D01*
X111875312Y-131586704D02*
X111827693Y-131491466D01*
X111827693Y-131491466D02*
X111780074Y-131443847D01*
X111780074Y-131443847D02*
X111684836Y-131396228D01*
X111684836Y-131396228D02*
X111494360Y-131348609D01*
X111494360Y-131348609D02*
X111399122Y-131300990D01*
X111399122Y-131300990D02*
X111351503Y-131253371D01*
X111351503Y-131253371D02*
X111303884Y-131158133D01*
X111303884Y-131158133D02*
X111303884Y-131062895D01*
X111303884Y-131062895D02*
X111351503Y-130967657D01*
X111351503Y-130967657D02*
X111399122Y-130920038D01*
X111399122Y-130920038D02*
X111494360Y-130872419D01*
X111494360Y-130872419D02*
X111732455Y-130872419D01*
X111732455Y-130872419D02*
X111875312Y-130920038D01*
X112637217Y-131348609D02*
X112780074Y-131396228D01*
X112780074Y-131396228D02*
X112827693Y-131443847D01*
X112827693Y-131443847D02*
X112875312Y-131539085D01*
X112875312Y-131539085D02*
X112875312Y-131681942D01*
X112875312Y-131681942D02*
X112827693Y-131777180D01*
X112827693Y-131777180D02*
X112780074Y-131824800D01*
X112780074Y-131824800D02*
X112684836Y-131872419D01*
X112684836Y-131872419D02*
X112303884Y-131872419D01*
X112303884Y-131872419D02*
X112303884Y-130872419D01*
X112303884Y-130872419D02*
X112637217Y-130872419D01*
X112637217Y-130872419D02*
X112732455Y-130920038D01*
X112732455Y-130920038D02*
X112780074Y-130967657D01*
X112780074Y-130967657D02*
X112827693Y-131062895D01*
X112827693Y-131062895D02*
X112827693Y-131158133D01*
X112827693Y-131158133D02*
X112780074Y-131253371D01*
X112780074Y-131253371D02*
X112732455Y-131300990D01*
X112732455Y-131300990D02*
X112637217Y-131348609D01*
X112637217Y-131348609D02*
X112303884Y-131348609D01*
X114065789Y-131205752D02*
X114065789Y-132205752D01*
X114065789Y-131253371D02*
X114161027Y-131205752D01*
X114161027Y-131205752D02*
X114351503Y-131205752D01*
X114351503Y-131205752D02*
X114446741Y-131253371D01*
X114446741Y-131253371D02*
X114494360Y-131300990D01*
X114494360Y-131300990D02*
X114541979Y-131396228D01*
X114541979Y-131396228D02*
X114541979Y-131681942D01*
X114541979Y-131681942D02*
X114494360Y-131777180D01*
X114494360Y-131777180D02*
X114446741Y-131824800D01*
X114446741Y-131824800D02*
X114351503Y-131872419D01*
X114351503Y-131872419D02*
X114161027Y-131872419D01*
X114161027Y-131872419D02*
X114065789Y-131824800D01*
X115113408Y-131872419D02*
X115018170Y-131824800D01*
X115018170Y-131824800D02*
X114970551Y-131777180D01*
X114970551Y-131777180D02*
X114922932Y-131681942D01*
X114922932Y-131681942D02*
X114922932Y-131396228D01*
X114922932Y-131396228D02*
X114970551Y-131300990D01*
X114970551Y-131300990D02*
X115018170Y-131253371D01*
X115018170Y-131253371D02*
X115113408Y-131205752D01*
X115113408Y-131205752D02*
X115256265Y-131205752D01*
X115256265Y-131205752D02*
X115351503Y-131253371D01*
X115351503Y-131253371D02*
X115399122Y-131300990D01*
X115399122Y-131300990D02*
X115446741Y-131396228D01*
X115446741Y-131396228D02*
X115446741Y-131681942D01*
X115446741Y-131681942D02*
X115399122Y-131777180D01*
X115399122Y-131777180D02*
X115351503Y-131824800D01*
X115351503Y-131824800D02*
X115256265Y-131872419D01*
X115256265Y-131872419D02*
X115113408Y-131872419D01*
X115875313Y-131872419D02*
X115875313Y-131205752D01*
X115875313Y-131396228D02*
X115922932Y-131300990D01*
X115922932Y-131300990D02*
X115970551Y-131253371D01*
X115970551Y-131253371D02*
X116065789Y-131205752D01*
X116065789Y-131205752D02*
X116161027Y-131205752D01*
X116351504Y-131205752D02*
X116732456Y-131205752D01*
X116494361Y-130872419D02*
X116494361Y-131729561D01*
X116494361Y-131729561D02*
X116541980Y-131824800D01*
X116541980Y-131824800D02*
X116637218Y-131872419D01*
X116637218Y-131872419D02*
X116732456Y-131872419D01*
X117684838Y-131205752D02*
X118065790Y-131205752D01*
X117827695Y-130872419D02*
X117827695Y-131729561D01*
X117827695Y-131729561D02*
X117875314Y-131824800D01*
X117875314Y-131824800D02*
X117970552Y-131872419D01*
X117970552Y-131872419D02*
X118065790Y-131872419D01*
X118399124Y-131872419D02*
X118399124Y-130872419D01*
X118827695Y-131872419D02*
X118827695Y-131348609D01*
X118827695Y-131348609D02*
X118780076Y-131253371D01*
X118780076Y-131253371D02*
X118684838Y-131205752D01*
X118684838Y-131205752D02*
X118541981Y-131205752D01*
X118541981Y-131205752D02*
X118446743Y-131253371D01*
X118446743Y-131253371D02*
X118399124Y-131300990D01*
X119303886Y-131872419D02*
X119303886Y-131205752D01*
X119303886Y-130872419D02*
X119256267Y-130920038D01*
X119256267Y-130920038D02*
X119303886Y-130967657D01*
X119303886Y-130967657D02*
X119351505Y-130920038D01*
X119351505Y-130920038D02*
X119303886Y-130872419D01*
X119303886Y-130872419D02*
X119303886Y-130967657D01*
X119732457Y-131824800D02*
X119827695Y-131872419D01*
X119827695Y-131872419D02*
X120018171Y-131872419D01*
X120018171Y-131872419D02*
X120113409Y-131824800D01*
X120113409Y-131824800D02*
X120161028Y-131729561D01*
X120161028Y-131729561D02*
X120161028Y-131681942D01*
X120161028Y-131681942D02*
X120113409Y-131586704D01*
X120113409Y-131586704D02*
X120018171Y-131539085D01*
X120018171Y-131539085D02*
X119875314Y-131539085D01*
X119875314Y-131539085D02*
X119780076Y-131491466D01*
X119780076Y-131491466D02*
X119732457Y-131396228D01*
X119732457Y-131396228D02*
X119732457Y-131348609D01*
X119732457Y-131348609D02*
X119780076Y-131253371D01*
X119780076Y-131253371D02*
X119875314Y-131205752D01*
X119875314Y-131205752D02*
X120018171Y-131205752D01*
X120018171Y-131205752D02*
X120113409Y-131253371D01*
X121303886Y-131824800D02*
X121399124Y-131872419D01*
X121399124Y-131872419D02*
X121589600Y-131872419D01*
X121589600Y-131872419D02*
X121684838Y-131824800D01*
X121684838Y-131824800D02*
X121732457Y-131729561D01*
X121732457Y-131729561D02*
X121732457Y-131681942D01*
X121732457Y-131681942D02*
X121684838Y-131586704D01*
X121684838Y-131586704D02*
X121589600Y-131539085D01*
X121589600Y-131539085D02*
X121446743Y-131539085D01*
X121446743Y-131539085D02*
X121351505Y-131491466D01*
X121351505Y-131491466D02*
X121303886Y-131396228D01*
X121303886Y-131396228D02*
X121303886Y-131348609D01*
X121303886Y-131348609D02*
X121351505Y-131253371D01*
X121351505Y-131253371D02*
X121446743Y-131205752D01*
X121446743Y-131205752D02*
X121589600Y-131205752D01*
X121589600Y-131205752D02*
X121684838Y-131253371D01*
X122161029Y-131872419D02*
X122161029Y-131205752D01*
X122161029Y-130872419D02*
X122113410Y-130920038D01*
X122113410Y-130920038D02*
X122161029Y-130967657D01*
X122161029Y-130967657D02*
X122208648Y-130920038D01*
X122208648Y-130920038D02*
X122161029Y-130872419D01*
X122161029Y-130872419D02*
X122161029Y-130967657D01*
X123065790Y-131872419D02*
X123065790Y-130872419D01*
X123065790Y-131824800D02*
X122970552Y-131872419D01*
X122970552Y-131872419D02*
X122780076Y-131872419D01*
X122780076Y-131872419D02*
X122684838Y-131824800D01*
X122684838Y-131824800D02*
X122637219Y-131777180D01*
X122637219Y-131777180D02*
X122589600Y-131681942D01*
X122589600Y-131681942D02*
X122589600Y-131396228D01*
X122589600Y-131396228D02*
X122637219Y-131300990D01*
X122637219Y-131300990D02*
X122684838Y-131253371D01*
X122684838Y-131253371D02*
X122780076Y-131205752D01*
X122780076Y-131205752D02*
X122970552Y-131205752D01*
X122970552Y-131205752D02*
X123065790Y-131253371D01*
X123922933Y-131824800D02*
X123827695Y-131872419D01*
X123827695Y-131872419D02*
X123637219Y-131872419D01*
X123637219Y-131872419D02*
X123541981Y-131824800D01*
X123541981Y-131824800D02*
X123494362Y-131729561D01*
X123494362Y-131729561D02*
X123494362Y-131348609D01*
X123494362Y-131348609D02*
X123541981Y-131253371D01*
X123541981Y-131253371D02*
X123637219Y-131205752D01*
X123637219Y-131205752D02*
X123827695Y-131205752D01*
X123827695Y-131205752D02*
X123922933Y-131253371D01*
X123922933Y-131253371D02*
X123970552Y-131348609D01*
X123970552Y-131348609D02*
X123970552Y-131443847D01*
X123970552Y-131443847D02*
X123494362Y-131539085D01*
X92327693Y-122920038D02*
X92232455Y-122872419D01*
X92232455Y-122872419D02*
X92089598Y-122872419D01*
X92089598Y-122872419D02*
X91946741Y-122920038D01*
X91946741Y-122920038D02*
X91851503Y-123015276D01*
X91851503Y-123015276D02*
X91803884Y-123110514D01*
X91803884Y-123110514D02*
X91756265Y-123300990D01*
X91756265Y-123300990D02*
X91756265Y-123443847D01*
X91756265Y-123443847D02*
X91803884Y-123634323D01*
X91803884Y-123634323D02*
X91851503Y-123729561D01*
X91851503Y-123729561D02*
X91946741Y-123824800D01*
X91946741Y-123824800D02*
X92089598Y-123872419D01*
X92089598Y-123872419D02*
X92184836Y-123872419D01*
X92184836Y-123872419D02*
X92327693Y-123824800D01*
X92327693Y-123824800D02*
X92375312Y-123777180D01*
X92375312Y-123777180D02*
X92375312Y-123443847D01*
X92375312Y-123443847D02*
X92184836Y-123443847D01*
X92803884Y-123872419D02*
X92803884Y-122872419D01*
X92803884Y-122872419D02*
X93375312Y-123872419D01*
X93375312Y-123872419D02*
X93375312Y-122872419D01*
X93851503Y-123872419D02*
X93851503Y-122872419D01*
X93851503Y-122872419D02*
X94089598Y-122872419D01*
X94089598Y-122872419D02*
X94232455Y-122920038D01*
X94232455Y-122920038D02*
X94327693Y-123015276D01*
X94327693Y-123015276D02*
X94375312Y-123110514D01*
X94375312Y-123110514D02*
X94422931Y-123300990D01*
X94422931Y-123300990D02*
X94422931Y-123443847D01*
X94422931Y-123443847D02*
X94375312Y-123634323D01*
X94375312Y-123634323D02*
X94327693Y-123729561D01*
X94327693Y-123729561D02*
X94232455Y-123824800D01*
X94232455Y-123824800D02*
X94089598Y-123872419D01*
X94089598Y-123872419D02*
X93851503Y-123872419D01*
X92327693Y-108420038D02*
X92232455Y-108372419D01*
X92232455Y-108372419D02*
X92089598Y-108372419D01*
X92089598Y-108372419D02*
X91946741Y-108420038D01*
X91946741Y-108420038D02*
X91851503Y-108515276D01*
X91851503Y-108515276D02*
X91803884Y-108610514D01*
X91803884Y-108610514D02*
X91756265Y-108800990D01*
X91756265Y-108800990D02*
X91756265Y-108943847D01*
X91756265Y-108943847D02*
X91803884Y-109134323D01*
X91803884Y-109134323D02*
X91851503Y-109229561D01*
X91851503Y-109229561D02*
X91946741Y-109324800D01*
X91946741Y-109324800D02*
X92089598Y-109372419D01*
X92089598Y-109372419D02*
X92184836Y-109372419D01*
X92184836Y-109372419D02*
X92327693Y-109324800D01*
X92327693Y-109324800D02*
X92375312Y-109277180D01*
X92375312Y-109277180D02*
X92375312Y-108943847D01*
X92375312Y-108943847D02*
X92184836Y-108943847D01*
X92803884Y-109372419D02*
X92803884Y-108372419D01*
X92803884Y-108372419D02*
X93375312Y-109372419D01*
X93375312Y-109372419D02*
X93375312Y-108372419D01*
X93851503Y-109372419D02*
X93851503Y-108372419D01*
X93851503Y-108372419D02*
X94089598Y-108372419D01*
X94089598Y-108372419D02*
X94232455Y-108420038D01*
X94232455Y-108420038D02*
X94327693Y-108515276D01*
X94327693Y-108515276D02*
X94375312Y-108610514D01*
X94375312Y-108610514D02*
X94422931Y-108800990D01*
X94422931Y-108800990D02*
X94422931Y-108943847D01*
X94422931Y-108943847D02*
X94375312Y-109134323D01*
X94375312Y-109134323D02*
X94327693Y-109229561D01*
X94327693Y-109229561D02*
X94232455Y-109324800D01*
X94232455Y-109324800D02*
X94089598Y-109372419D01*
X94089598Y-109372419D02*
X93851503Y-109372419D01*
X92327693Y-93420038D02*
X92232455Y-93372419D01*
X92232455Y-93372419D02*
X92089598Y-93372419D01*
X92089598Y-93372419D02*
X91946741Y-93420038D01*
X91946741Y-93420038D02*
X91851503Y-93515276D01*
X91851503Y-93515276D02*
X91803884Y-93610514D01*
X91803884Y-93610514D02*
X91756265Y-93800990D01*
X91756265Y-93800990D02*
X91756265Y-93943847D01*
X91756265Y-93943847D02*
X91803884Y-94134323D01*
X91803884Y-94134323D02*
X91851503Y-94229561D01*
X91851503Y-94229561D02*
X91946741Y-94324800D01*
X91946741Y-94324800D02*
X92089598Y-94372419D01*
X92089598Y-94372419D02*
X92184836Y-94372419D01*
X92184836Y-94372419D02*
X92327693Y-94324800D01*
X92327693Y-94324800D02*
X92375312Y-94277180D01*
X92375312Y-94277180D02*
X92375312Y-93943847D01*
X92375312Y-93943847D02*
X92184836Y-93943847D01*
X92803884Y-94372419D02*
X92803884Y-93372419D01*
X92803884Y-93372419D02*
X93375312Y-94372419D01*
X93375312Y-94372419D02*
X93375312Y-93372419D01*
X93851503Y-94372419D02*
X93851503Y-93372419D01*
X93851503Y-93372419D02*
X94089598Y-93372419D01*
X94089598Y-93372419D02*
X94232455Y-93420038D01*
X94232455Y-93420038D02*
X94327693Y-93515276D01*
X94327693Y-93515276D02*
X94375312Y-93610514D01*
X94375312Y-93610514D02*
X94422931Y-93800990D01*
X94422931Y-93800990D02*
X94422931Y-93943847D01*
X94422931Y-93943847D02*
X94375312Y-94134323D01*
X94375312Y-94134323D02*
X94327693Y-94229561D01*
X94327693Y-94229561D02*
X94232455Y-94324800D01*
X94232455Y-94324800D02*
X94089598Y-94372419D01*
X94089598Y-94372419D02*
X93851503Y-94372419D01*
X91827693Y-74920038D02*
X91732455Y-74872419D01*
X91732455Y-74872419D02*
X91589598Y-74872419D01*
X91589598Y-74872419D02*
X91446741Y-74920038D01*
X91446741Y-74920038D02*
X91351503Y-75015276D01*
X91351503Y-75015276D02*
X91303884Y-75110514D01*
X91303884Y-75110514D02*
X91256265Y-75300990D01*
X91256265Y-75300990D02*
X91256265Y-75443847D01*
X91256265Y-75443847D02*
X91303884Y-75634323D01*
X91303884Y-75634323D02*
X91351503Y-75729561D01*
X91351503Y-75729561D02*
X91446741Y-75824800D01*
X91446741Y-75824800D02*
X91589598Y-75872419D01*
X91589598Y-75872419D02*
X91684836Y-75872419D01*
X91684836Y-75872419D02*
X91827693Y-75824800D01*
X91827693Y-75824800D02*
X91875312Y-75777180D01*
X91875312Y-75777180D02*
X91875312Y-75443847D01*
X91875312Y-75443847D02*
X91684836Y-75443847D01*
X92303884Y-75872419D02*
X92303884Y-74872419D01*
X92303884Y-74872419D02*
X92875312Y-75872419D01*
X92875312Y-75872419D02*
X92875312Y-74872419D01*
X93351503Y-75872419D02*
X93351503Y-74872419D01*
X93351503Y-74872419D02*
X93589598Y-74872419D01*
X93589598Y-74872419D02*
X93732455Y-74920038D01*
X93732455Y-74920038D02*
X93827693Y-75015276D01*
X93827693Y-75015276D02*
X93875312Y-75110514D01*
X93875312Y-75110514D02*
X93922931Y-75300990D01*
X93922931Y-75300990D02*
X93922931Y-75443847D01*
X93922931Y-75443847D02*
X93875312Y-75634323D01*
X93875312Y-75634323D02*
X93827693Y-75729561D01*
X93827693Y-75729561D02*
X93732455Y-75824800D01*
X93732455Y-75824800D02*
X93589598Y-75872419D01*
X93589598Y-75872419D02*
X93351503Y-75872419D01*
X104661027Y-86872419D02*
X105232455Y-86872419D01*
X104946741Y-87872419D02*
X104946741Y-86872419D01*
X105470551Y-86872419D02*
X106137217Y-87872419D01*
X106137217Y-86872419D02*
X105470551Y-87872419D01*
X107041979Y-87872419D02*
X106470551Y-87872419D01*
X106756265Y-87872419D02*
X106756265Y-86872419D01*
X106756265Y-86872419D02*
X106661027Y-87015276D01*
X106661027Y-87015276D02*
X106565789Y-87110514D01*
X106565789Y-87110514D02*
X106470551Y-87158133D01*
D11*
X100407200Y-134190476D02*
X100454819Y-134285714D01*
X100454819Y-134285714D02*
X100454819Y-134476190D01*
X100454819Y-134476190D02*
X100407200Y-134571428D01*
X100407200Y-134571428D02*
X100359580Y-134619047D01*
X100359580Y-134619047D02*
X100264342Y-134666666D01*
X100264342Y-134666666D02*
X99978628Y-134666666D01*
X99978628Y-134666666D02*
X99883390Y-134619047D01*
X99883390Y-134619047D02*
X99835771Y-134571428D01*
X99835771Y-134571428D02*
X99788152Y-134476190D01*
X99788152Y-134476190D02*
X99788152Y-134285714D01*
X99788152Y-134285714D02*
X99835771Y-134190476D01*
X100454819Y-133333333D02*
X99931009Y-133333333D01*
X99931009Y-133333333D02*
X99835771Y-133380952D01*
X99835771Y-133380952D02*
X99788152Y-133476190D01*
X99788152Y-133476190D02*
X99788152Y-133666666D01*
X99788152Y-133666666D02*
X99835771Y-133761904D01*
X100407200Y-133333333D02*
X100454819Y-133428571D01*
X100454819Y-133428571D02*
X100454819Y-133666666D01*
X100454819Y-133666666D02*
X100407200Y-133761904D01*
X100407200Y-133761904D02*
X100311961Y-133809523D01*
X100311961Y-133809523D02*
X100216723Y-133809523D01*
X100216723Y-133809523D02*
X100121485Y-133761904D01*
X100121485Y-133761904D02*
X100073866Y-133666666D01*
X100073866Y-133666666D02*
X100073866Y-133428571D01*
X100073866Y-133428571D02*
X100026247Y-133333333D01*
X100454819Y-132857142D02*
X99788152Y-132857142D01*
X99883390Y-132857142D02*
X99835771Y-132809523D01*
X99835771Y-132809523D02*
X99788152Y-132714285D01*
X99788152Y-132714285D02*
X99788152Y-132571428D01*
X99788152Y-132571428D02*
X99835771Y-132476190D01*
X99835771Y-132476190D02*
X99931009Y-132428571D01*
X99931009Y-132428571D02*
X100454819Y-132428571D01*
X99931009Y-132428571D02*
X99835771Y-132380952D01*
X99835771Y-132380952D02*
X99788152Y-132285714D01*
X99788152Y-132285714D02*
X99788152Y-132142857D01*
X99788152Y-132142857D02*
X99835771Y-132047618D01*
X99835771Y-132047618D02*
X99931009Y-131999999D01*
X99931009Y-131999999D02*
X100454819Y-131999999D01*
X100407200Y-131142857D02*
X100454819Y-131238095D01*
X100454819Y-131238095D02*
X100454819Y-131428571D01*
X100454819Y-131428571D02*
X100407200Y-131523809D01*
X100407200Y-131523809D02*
X100311961Y-131571428D01*
X100311961Y-131571428D02*
X99931009Y-131571428D01*
X99931009Y-131571428D02*
X99835771Y-131523809D01*
X99835771Y-131523809D02*
X99788152Y-131428571D01*
X99788152Y-131428571D02*
X99788152Y-131238095D01*
X99788152Y-131238095D02*
X99835771Y-131142857D01*
X99835771Y-131142857D02*
X99931009Y-131095238D01*
X99931009Y-131095238D02*
X100026247Y-131095238D01*
X100026247Y-131095238D02*
X100121485Y-131571428D01*
X100454819Y-130666666D02*
X99788152Y-130666666D01*
X99978628Y-130666666D02*
X99883390Y-130619047D01*
X99883390Y-130619047D02*
X99835771Y-130571428D01*
X99835771Y-130571428D02*
X99788152Y-130476190D01*
X99788152Y-130476190D02*
X99788152Y-130380952D01*
X100454819Y-129619047D02*
X99931009Y-129619047D01*
X99931009Y-129619047D02*
X99835771Y-129666666D01*
X99835771Y-129666666D02*
X99788152Y-129761904D01*
X99788152Y-129761904D02*
X99788152Y-129952380D01*
X99788152Y-129952380D02*
X99835771Y-130047618D01*
X100407200Y-129619047D02*
X100454819Y-129714285D01*
X100454819Y-129714285D02*
X100454819Y-129952380D01*
X100454819Y-129952380D02*
X100407200Y-130047618D01*
X100407200Y-130047618D02*
X100311961Y-130095237D01*
X100311961Y-130095237D02*
X100216723Y-130095237D01*
X100216723Y-130095237D02*
X100121485Y-130047618D01*
X100121485Y-130047618D02*
X100073866Y-129952380D01*
X100073866Y-129952380D02*
X100073866Y-129714285D01*
X100073866Y-129714285D02*
X100026247Y-129619047D01*
X100550057Y-129380952D02*
X100550057Y-128619047D01*
X100454819Y-128380951D02*
X99788152Y-128380951D01*
X99978628Y-128380951D02*
X99883390Y-128333332D01*
X99883390Y-128333332D02*
X99835771Y-128285713D01*
X99835771Y-128285713D02*
X99788152Y-128190475D01*
X99788152Y-128190475D02*
X99788152Y-128095237D01*
X100454819Y-127761903D02*
X99788152Y-127761903D01*
X99454819Y-127761903D02*
X99502438Y-127809522D01*
X99502438Y-127809522D02*
X99550057Y-127761903D01*
X99550057Y-127761903D02*
X99502438Y-127714284D01*
X99502438Y-127714284D02*
X99454819Y-127761903D01*
X99454819Y-127761903D02*
X99550057Y-127761903D01*
X99788152Y-126857142D02*
X100597676Y-126857142D01*
X100597676Y-126857142D02*
X100692914Y-126904761D01*
X100692914Y-126904761D02*
X100740533Y-126952380D01*
X100740533Y-126952380D02*
X100788152Y-127047618D01*
X100788152Y-127047618D02*
X100788152Y-127190475D01*
X100788152Y-127190475D02*
X100740533Y-127285713D01*
X100407200Y-126857142D02*
X100454819Y-126952380D01*
X100454819Y-126952380D02*
X100454819Y-127142856D01*
X100454819Y-127142856D02*
X100407200Y-127238094D01*
X100407200Y-127238094D02*
X100359580Y-127285713D01*
X100359580Y-127285713D02*
X100264342Y-127333332D01*
X100264342Y-127333332D02*
X99978628Y-127333332D01*
X99978628Y-127333332D02*
X99883390Y-127285713D01*
X99883390Y-127285713D02*
X99835771Y-127238094D01*
X99835771Y-127238094D02*
X99788152Y-127142856D01*
X99788152Y-127142856D02*
X99788152Y-126952380D01*
X99788152Y-126952380D02*
X99835771Y-126857142D01*
X100454819Y-126380951D02*
X99454819Y-126380951D01*
X100454819Y-125952380D02*
X99931009Y-125952380D01*
X99931009Y-125952380D02*
X99835771Y-125999999D01*
X99835771Y-125999999D02*
X99788152Y-126095237D01*
X99788152Y-126095237D02*
X99788152Y-126238094D01*
X99788152Y-126238094D02*
X99835771Y-126333332D01*
X99835771Y-126333332D02*
X99883390Y-126380951D01*
X99788152Y-125619046D02*
X99788152Y-125238094D01*
X99454819Y-125476189D02*
X100311961Y-125476189D01*
X100311961Y-125476189D02*
X100407200Y-125428570D01*
X100407200Y-125428570D02*
X100454819Y-125333332D01*
X100454819Y-125333332D02*
X100454819Y-125238094D01*
X100407200Y-120452381D02*
X100454819Y-120547619D01*
X100454819Y-120547619D02*
X100454819Y-120738095D01*
X100454819Y-120738095D02*
X100407200Y-120833333D01*
X100407200Y-120833333D02*
X100359580Y-120880952D01*
X100359580Y-120880952D02*
X100264342Y-120928571D01*
X100264342Y-120928571D02*
X99978628Y-120928571D01*
X99978628Y-120928571D02*
X99883390Y-120880952D01*
X99883390Y-120880952D02*
X99835771Y-120833333D01*
X99835771Y-120833333D02*
X99788152Y-120738095D01*
X99788152Y-120738095D02*
X99788152Y-120547619D01*
X99788152Y-120547619D02*
X99835771Y-120452381D01*
X100454819Y-119595238D02*
X99931009Y-119595238D01*
X99931009Y-119595238D02*
X99835771Y-119642857D01*
X99835771Y-119642857D02*
X99788152Y-119738095D01*
X99788152Y-119738095D02*
X99788152Y-119928571D01*
X99788152Y-119928571D02*
X99835771Y-120023809D01*
X100407200Y-119595238D02*
X100454819Y-119690476D01*
X100454819Y-119690476D02*
X100454819Y-119928571D01*
X100454819Y-119928571D02*
X100407200Y-120023809D01*
X100407200Y-120023809D02*
X100311961Y-120071428D01*
X100311961Y-120071428D02*
X100216723Y-120071428D01*
X100216723Y-120071428D02*
X100121485Y-120023809D01*
X100121485Y-120023809D02*
X100073866Y-119928571D01*
X100073866Y-119928571D02*
X100073866Y-119690476D01*
X100073866Y-119690476D02*
X100026247Y-119595238D01*
X100454819Y-119119047D02*
X99788152Y-119119047D01*
X99883390Y-119119047D02*
X99835771Y-119071428D01*
X99835771Y-119071428D02*
X99788152Y-118976190D01*
X99788152Y-118976190D02*
X99788152Y-118833333D01*
X99788152Y-118833333D02*
X99835771Y-118738095D01*
X99835771Y-118738095D02*
X99931009Y-118690476D01*
X99931009Y-118690476D02*
X100454819Y-118690476D01*
X99931009Y-118690476D02*
X99835771Y-118642857D01*
X99835771Y-118642857D02*
X99788152Y-118547619D01*
X99788152Y-118547619D02*
X99788152Y-118404762D01*
X99788152Y-118404762D02*
X99835771Y-118309523D01*
X99835771Y-118309523D02*
X99931009Y-118261904D01*
X99931009Y-118261904D02*
X100454819Y-118261904D01*
X100407200Y-117404762D02*
X100454819Y-117500000D01*
X100454819Y-117500000D02*
X100454819Y-117690476D01*
X100454819Y-117690476D02*
X100407200Y-117785714D01*
X100407200Y-117785714D02*
X100311961Y-117833333D01*
X100311961Y-117833333D02*
X99931009Y-117833333D01*
X99931009Y-117833333D02*
X99835771Y-117785714D01*
X99835771Y-117785714D02*
X99788152Y-117690476D01*
X99788152Y-117690476D02*
X99788152Y-117500000D01*
X99788152Y-117500000D02*
X99835771Y-117404762D01*
X99835771Y-117404762D02*
X99931009Y-117357143D01*
X99931009Y-117357143D02*
X100026247Y-117357143D01*
X100026247Y-117357143D02*
X100121485Y-117833333D01*
X100454819Y-116928571D02*
X99788152Y-116928571D01*
X99978628Y-116928571D02*
X99883390Y-116880952D01*
X99883390Y-116880952D02*
X99835771Y-116833333D01*
X99835771Y-116833333D02*
X99788152Y-116738095D01*
X99788152Y-116738095D02*
X99788152Y-116642857D01*
X100454819Y-115880952D02*
X99931009Y-115880952D01*
X99931009Y-115880952D02*
X99835771Y-115928571D01*
X99835771Y-115928571D02*
X99788152Y-116023809D01*
X99788152Y-116023809D02*
X99788152Y-116214285D01*
X99788152Y-116214285D02*
X99835771Y-116309523D01*
X100407200Y-115880952D02*
X100454819Y-115976190D01*
X100454819Y-115976190D02*
X100454819Y-116214285D01*
X100454819Y-116214285D02*
X100407200Y-116309523D01*
X100407200Y-116309523D02*
X100311961Y-116357142D01*
X100311961Y-116357142D02*
X100216723Y-116357142D01*
X100216723Y-116357142D02*
X100121485Y-116309523D01*
X100121485Y-116309523D02*
X100073866Y-116214285D01*
X100073866Y-116214285D02*
X100073866Y-115976190D01*
X100073866Y-115976190D02*
X100026247Y-115880952D01*
X100550057Y-115642857D02*
X100550057Y-114880952D01*
X100454819Y-114642856D02*
X99788152Y-114642856D01*
X99883390Y-114642856D02*
X99835771Y-114595237D01*
X99835771Y-114595237D02*
X99788152Y-114499999D01*
X99788152Y-114499999D02*
X99788152Y-114357142D01*
X99788152Y-114357142D02*
X99835771Y-114261904D01*
X99835771Y-114261904D02*
X99931009Y-114214285D01*
X99931009Y-114214285D02*
X100454819Y-114214285D01*
X99931009Y-114214285D02*
X99835771Y-114166666D01*
X99835771Y-114166666D02*
X99788152Y-114071428D01*
X99788152Y-114071428D02*
X99788152Y-113928571D01*
X99788152Y-113928571D02*
X99835771Y-113833332D01*
X99835771Y-113833332D02*
X99931009Y-113785713D01*
X99931009Y-113785713D02*
X100454819Y-113785713D01*
X100454819Y-113309523D02*
X99788152Y-113309523D01*
X99454819Y-113309523D02*
X99502438Y-113357142D01*
X99502438Y-113357142D02*
X99550057Y-113309523D01*
X99550057Y-113309523D02*
X99502438Y-113261904D01*
X99502438Y-113261904D02*
X99454819Y-113309523D01*
X99454819Y-113309523D02*
X99550057Y-113309523D01*
X100454819Y-112404762D02*
X99454819Y-112404762D01*
X100407200Y-112404762D02*
X100454819Y-112500000D01*
X100454819Y-112500000D02*
X100454819Y-112690476D01*
X100454819Y-112690476D02*
X100407200Y-112785714D01*
X100407200Y-112785714D02*
X100359580Y-112833333D01*
X100359580Y-112833333D02*
X100264342Y-112880952D01*
X100264342Y-112880952D02*
X99978628Y-112880952D01*
X99978628Y-112880952D02*
X99883390Y-112833333D01*
X99883390Y-112833333D02*
X99835771Y-112785714D01*
X99835771Y-112785714D02*
X99788152Y-112690476D01*
X99788152Y-112690476D02*
X99788152Y-112500000D01*
X99788152Y-112500000D02*
X99835771Y-112404762D01*
X100454819Y-111500000D02*
X99454819Y-111500000D01*
X100407200Y-111500000D02*
X100454819Y-111595238D01*
X100454819Y-111595238D02*
X100454819Y-111785714D01*
X100454819Y-111785714D02*
X100407200Y-111880952D01*
X100407200Y-111880952D02*
X100359580Y-111928571D01*
X100359580Y-111928571D02*
X100264342Y-111976190D01*
X100264342Y-111976190D02*
X99978628Y-111976190D01*
X99978628Y-111976190D02*
X99883390Y-111928571D01*
X99883390Y-111928571D02*
X99835771Y-111880952D01*
X99835771Y-111880952D02*
X99788152Y-111785714D01*
X99788152Y-111785714D02*
X99788152Y-111595238D01*
X99788152Y-111595238D02*
X99835771Y-111500000D01*
X100454819Y-110880952D02*
X100407200Y-110976190D01*
X100407200Y-110976190D02*
X100311961Y-111023809D01*
X100311961Y-111023809D02*
X99454819Y-111023809D01*
X100407200Y-110119047D02*
X100454819Y-110214285D01*
X100454819Y-110214285D02*
X100454819Y-110404761D01*
X100454819Y-110404761D02*
X100407200Y-110499999D01*
X100407200Y-110499999D02*
X100311961Y-110547618D01*
X100311961Y-110547618D02*
X99931009Y-110547618D01*
X99931009Y-110547618D02*
X99835771Y-110499999D01*
X99835771Y-110499999D02*
X99788152Y-110404761D01*
X99788152Y-110404761D02*
X99788152Y-110214285D01*
X99788152Y-110214285D02*
X99835771Y-110119047D01*
X99835771Y-110119047D02*
X99931009Y-110071428D01*
X99931009Y-110071428D02*
X100026247Y-110071428D01*
X100026247Y-110071428D02*
X100121485Y-110547618D01*
X100407200Y-104214286D02*
X100454819Y-104309524D01*
X100454819Y-104309524D02*
X100454819Y-104500000D01*
X100454819Y-104500000D02*
X100407200Y-104595238D01*
X100407200Y-104595238D02*
X100359580Y-104642857D01*
X100359580Y-104642857D02*
X100264342Y-104690476D01*
X100264342Y-104690476D02*
X99978628Y-104690476D01*
X99978628Y-104690476D02*
X99883390Y-104642857D01*
X99883390Y-104642857D02*
X99835771Y-104595238D01*
X99835771Y-104595238D02*
X99788152Y-104500000D01*
X99788152Y-104500000D02*
X99788152Y-104309524D01*
X99788152Y-104309524D02*
X99835771Y-104214286D01*
X100454819Y-103357143D02*
X99931009Y-103357143D01*
X99931009Y-103357143D02*
X99835771Y-103404762D01*
X99835771Y-103404762D02*
X99788152Y-103500000D01*
X99788152Y-103500000D02*
X99788152Y-103690476D01*
X99788152Y-103690476D02*
X99835771Y-103785714D01*
X100407200Y-103357143D02*
X100454819Y-103452381D01*
X100454819Y-103452381D02*
X100454819Y-103690476D01*
X100454819Y-103690476D02*
X100407200Y-103785714D01*
X100407200Y-103785714D02*
X100311961Y-103833333D01*
X100311961Y-103833333D02*
X100216723Y-103833333D01*
X100216723Y-103833333D02*
X100121485Y-103785714D01*
X100121485Y-103785714D02*
X100073866Y-103690476D01*
X100073866Y-103690476D02*
X100073866Y-103452381D01*
X100073866Y-103452381D02*
X100026247Y-103357143D01*
X100454819Y-102880952D02*
X99788152Y-102880952D01*
X99883390Y-102880952D02*
X99835771Y-102833333D01*
X99835771Y-102833333D02*
X99788152Y-102738095D01*
X99788152Y-102738095D02*
X99788152Y-102595238D01*
X99788152Y-102595238D02*
X99835771Y-102500000D01*
X99835771Y-102500000D02*
X99931009Y-102452381D01*
X99931009Y-102452381D02*
X100454819Y-102452381D01*
X99931009Y-102452381D02*
X99835771Y-102404762D01*
X99835771Y-102404762D02*
X99788152Y-102309524D01*
X99788152Y-102309524D02*
X99788152Y-102166667D01*
X99788152Y-102166667D02*
X99835771Y-102071428D01*
X99835771Y-102071428D02*
X99931009Y-102023809D01*
X99931009Y-102023809D02*
X100454819Y-102023809D01*
X100407200Y-101166667D02*
X100454819Y-101261905D01*
X100454819Y-101261905D02*
X100454819Y-101452381D01*
X100454819Y-101452381D02*
X100407200Y-101547619D01*
X100407200Y-101547619D02*
X100311961Y-101595238D01*
X100311961Y-101595238D02*
X99931009Y-101595238D01*
X99931009Y-101595238D02*
X99835771Y-101547619D01*
X99835771Y-101547619D02*
X99788152Y-101452381D01*
X99788152Y-101452381D02*
X99788152Y-101261905D01*
X99788152Y-101261905D02*
X99835771Y-101166667D01*
X99835771Y-101166667D02*
X99931009Y-101119048D01*
X99931009Y-101119048D02*
X100026247Y-101119048D01*
X100026247Y-101119048D02*
X100121485Y-101595238D01*
X100454819Y-100690476D02*
X99788152Y-100690476D01*
X99978628Y-100690476D02*
X99883390Y-100642857D01*
X99883390Y-100642857D02*
X99835771Y-100595238D01*
X99835771Y-100595238D02*
X99788152Y-100500000D01*
X99788152Y-100500000D02*
X99788152Y-100404762D01*
X100454819Y-99642857D02*
X99931009Y-99642857D01*
X99931009Y-99642857D02*
X99835771Y-99690476D01*
X99835771Y-99690476D02*
X99788152Y-99785714D01*
X99788152Y-99785714D02*
X99788152Y-99976190D01*
X99788152Y-99976190D02*
X99835771Y-100071428D01*
X100407200Y-99642857D02*
X100454819Y-99738095D01*
X100454819Y-99738095D02*
X100454819Y-99976190D01*
X100454819Y-99976190D02*
X100407200Y-100071428D01*
X100407200Y-100071428D02*
X100311961Y-100119047D01*
X100311961Y-100119047D02*
X100216723Y-100119047D01*
X100216723Y-100119047D02*
X100121485Y-100071428D01*
X100121485Y-100071428D02*
X100073866Y-99976190D01*
X100073866Y-99976190D02*
X100073866Y-99738095D01*
X100073866Y-99738095D02*
X100026247Y-99642857D01*
X100550057Y-99404762D02*
X100550057Y-98642857D01*
X100454819Y-98261904D02*
X100407200Y-98357142D01*
X100407200Y-98357142D02*
X100311961Y-98404761D01*
X100311961Y-98404761D02*
X99454819Y-98404761D01*
X100407200Y-97499999D02*
X100454819Y-97595237D01*
X100454819Y-97595237D02*
X100454819Y-97785713D01*
X100454819Y-97785713D02*
X100407200Y-97880951D01*
X100407200Y-97880951D02*
X100311961Y-97928570D01*
X100311961Y-97928570D02*
X99931009Y-97928570D01*
X99931009Y-97928570D02*
X99835771Y-97880951D01*
X99835771Y-97880951D02*
X99788152Y-97785713D01*
X99788152Y-97785713D02*
X99788152Y-97595237D01*
X99788152Y-97595237D02*
X99835771Y-97499999D01*
X99835771Y-97499999D02*
X99931009Y-97452380D01*
X99931009Y-97452380D02*
X100026247Y-97452380D01*
X100026247Y-97452380D02*
X100121485Y-97928570D01*
X99788152Y-97166665D02*
X99788152Y-96785713D01*
X100454819Y-97023808D02*
X99597676Y-97023808D01*
X99597676Y-97023808D02*
X99502438Y-96976189D01*
X99502438Y-96976189D02*
X99454819Y-96880951D01*
X99454819Y-96880951D02*
X99454819Y-96785713D01*
X99788152Y-96595236D02*
X99788152Y-96214284D01*
X99454819Y-96452379D02*
X100311961Y-96452379D01*
X100311961Y-96452379D02*
X100407200Y-96404760D01*
X100407200Y-96404760D02*
X100454819Y-96309522D01*
X100454819Y-96309522D02*
X100454819Y-96214284D01*
X100454819Y-84833333D02*
X100407200Y-84928571D01*
X100407200Y-84928571D02*
X100311961Y-84976190D01*
X100311961Y-84976190D02*
X99454819Y-84976190D01*
X100454819Y-84452380D02*
X99788152Y-84452380D01*
X99454819Y-84452380D02*
X99502438Y-84499999D01*
X99502438Y-84499999D02*
X99550057Y-84452380D01*
X99550057Y-84452380D02*
X99502438Y-84404761D01*
X99502438Y-84404761D02*
X99454819Y-84452380D01*
X99454819Y-84452380D02*
X99550057Y-84452380D01*
X100454819Y-83547619D02*
X99454819Y-83547619D01*
X100407200Y-83547619D02*
X100454819Y-83642857D01*
X100454819Y-83642857D02*
X100454819Y-83833333D01*
X100454819Y-83833333D02*
X100407200Y-83928571D01*
X100407200Y-83928571D02*
X100359580Y-83976190D01*
X100359580Y-83976190D02*
X100264342Y-84023809D01*
X100264342Y-84023809D02*
X99978628Y-84023809D01*
X99978628Y-84023809D02*
X99883390Y-83976190D01*
X99883390Y-83976190D02*
X99835771Y-83928571D01*
X99835771Y-83928571D02*
X99788152Y-83833333D01*
X99788152Y-83833333D02*
X99788152Y-83642857D01*
X99788152Y-83642857D02*
X99835771Y-83547619D01*
X100454819Y-82642857D02*
X99931009Y-82642857D01*
X99931009Y-82642857D02*
X99835771Y-82690476D01*
X99835771Y-82690476D02*
X99788152Y-82785714D01*
X99788152Y-82785714D02*
X99788152Y-82976190D01*
X99788152Y-82976190D02*
X99835771Y-83071428D01*
X100407200Y-82642857D02*
X100454819Y-82738095D01*
X100454819Y-82738095D02*
X100454819Y-82976190D01*
X100454819Y-82976190D02*
X100407200Y-83071428D01*
X100407200Y-83071428D02*
X100311961Y-83119047D01*
X100311961Y-83119047D02*
X100216723Y-83119047D01*
X100216723Y-83119047D02*
X100121485Y-83071428D01*
X100121485Y-83071428D02*
X100073866Y-82976190D01*
X100073866Y-82976190D02*
X100073866Y-82738095D01*
X100073866Y-82738095D02*
X100026247Y-82642857D01*
X100454819Y-82166666D02*
X99788152Y-82166666D01*
X99978628Y-82166666D02*
X99883390Y-82119047D01*
X99883390Y-82119047D02*
X99835771Y-82071428D01*
X99835771Y-82071428D02*
X99788152Y-81976190D01*
X99788152Y-81976190D02*
X99788152Y-81880952D01*
X116669104Y-109398095D02*
X116669104Y-108921905D01*
X116954819Y-109493333D02*
X115954819Y-109160000D01*
X115954819Y-109160000D02*
X116954819Y-108826667D01*
X116954819Y-108493333D02*
X116288152Y-108493333D01*
X116478628Y-108493333D02*
X116383390Y-108445714D01*
X116383390Y-108445714D02*
X116335771Y-108398095D01*
X116335771Y-108398095D02*
X116288152Y-108302857D01*
X116288152Y-108302857D02*
X116288152Y-108207619D01*
X116954819Y-107445714D02*
X115954819Y-107445714D01*
X116907200Y-107445714D02*
X116954819Y-107540952D01*
X116954819Y-107540952D02*
X116954819Y-107731428D01*
X116954819Y-107731428D02*
X116907200Y-107826666D01*
X116907200Y-107826666D02*
X116859580Y-107874285D01*
X116859580Y-107874285D02*
X116764342Y-107921904D01*
X116764342Y-107921904D02*
X116478628Y-107921904D01*
X116478628Y-107921904D02*
X116383390Y-107874285D01*
X116383390Y-107874285D02*
X116335771Y-107826666D01*
X116335771Y-107826666D02*
X116288152Y-107731428D01*
X116288152Y-107731428D02*
X116288152Y-107540952D01*
X116288152Y-107540952D02*
X116335771Y-107445714D01*
X116288152Y-106540952D02*
X116954819Y-106540952D01*
X116288152Y-106969523D02*
X116811961Y-106969523D01*
X116811961Y-106969523D02*
X116907200Y-106921904D01*
X116907200Y-106921904D02*
X116954819Y-106826666D01*
X116954819Y-106826666D02*
X116954819Y-106683809D01*
X116954819Y-106683809D02*
X116907200Y-106588571D01*
X116907200Y-106588571D02*
X116859580Y-106540952D01*
X116954819Y-106064761D02*
X116288152Y-106064761D01*
X115954819Y-106064761D02*
X116002438Y-106112380D01*
X116002438Y-106112380D02*
X116050057Y-106064761D01*
X116050057Y-106064761D02*
X116002438Y-106017142D01*
X116002438Y-106017142D02*
X115954819Y-106064761D01*
X115954819Y-106064761D02*
X116050057Y-106064761D01*
X116288152Y-105588571D02*
X116954819Y-105588571D01*
X116383390Y-105588571D02*
X116335771Y-105540952D01*
X116335771Y-105540952D02*
X116288152Y-105445714D01*
X116288152Y-105445714D02*
X116288152Y-105302857D01*
X116288152Y-105302857D02*
X116335771Y-105207619D01*
X116335771Y-105207619D02*
X116431009Y-105160000D01*
X116431009Y-105160000D02*
X116954819Y-105160000D01*
X116954819Y-104540952D02*
X116907200Y-104636190D01*
X116907200Y-104636190D02*
X116859580Y-104683809D01*
X116859580Y-104683809D02*
X116764342Y-104731428D01*
X116764342Y-104731428D02*
X116478628Y-104731428D01*
X116478628Y-104731428D02*
X116383390Y-104683809D01*
X116383390Y-104683809D02*
X116335771Y-104636190D01*
X116335771Y-104636190D02*
X116288152Y-104540952D01*
X116288152Y-104540952D02*
X116288152Y-104398095D01*
X116288152Y-104398095D02*
X116335771Y-104302857D01*
X116335771Y-104302857D02*
X116383390Y-104255238D01*
X116383390Y-104255238D02*
X116478628Y-104207619D01*
X116478628Y-104207619D02*
X116764342Y-104207619D01*
X116764342Y-104207619D02*
X116859580Y-104255238D01*
X116859580Y-104255238D02*
X116907200Y-104302857D01*
X116907200Y-104302857D02*
X116954819Y-104398095D01*
X116954819Y-104398095D02*
X116954819Y-104540952D01*
X117050057Y-104017143D02*
X117050057Y-103255238D01*
X116954819Y-103017142D02*
X115954819Y-103017142D01*
X115954819Y-103017142D02*
X116954819Y-102445714D01*
X116954819Y-102445714D02*
X115954819Y-102445714D01*
X116954819Y-101540952D02*
X116431009Y-101540952D01*
X116431009Y-101540952D02*
X116335771Y-101588571D01*
X116335771Y-101588571D02*
X116288152Y-101683809D01*
X116288152Y-101683809D02*
X116288152Y-101874285D01*
X116288152Y-101874285D02*
X116335771Y-101969523D01*
X116907200Y-101540952D02*
X116954819Y-101636190D01*
X116954819Y-101636190D02*
X116954819Y-101874285D01*
X116954819Y-101874285D02*
X116907200Y-101969523D01*
X116907200Y-101969523D02*
X116811961Y-102017142D01*
X116811961Y-102017142D02*
X116716723Y-102017142D01*
X116716723Y-102017142D02*
X116621485Y-101969523D01*
X116621485Y-101969523D02*
X116573866Y-101874285D01*
X116573866Y-101874285D02*
X116573866Y-101636190D01*
X116573866Y-101636190D02*
X116526247Y-101540952D01*
X116288152Y-101064761D02*
X116954819Y-101064761D01*
X116383390Y-101064761D02*
X116335771Y-101017142D01*
X116335771Y-101017142D02*
X116288152Y-100921904D01*
X116288152Y-100921904D02*
X116288152Y-100779047D01*
X116288152Y-100779047D02*
X116335771Y-100683809D01*
X116335771Y-100683809D02*
X116431009Y-100636190D01*
X116431009Y-100636190D02*
X116954819Y-100636190D01*
X116954819Y-100017142D02*
X116907200Y-100112380D01*
X116907200Y-100112380D02*
X116859580Y-100159999D01*
X116859580Y-100159999D02*
X116764342Y-100207618D01*
X116764342Y-100207618D02*
X116478628Y-100207618D01*
X116478628Y-100207618D02*
X116383390Y-100159999D01*
X116383390Y-100159999D02*
X116335771Y-100112380D01*
X116335771Y-100112380D02*
X116288152Y-100017142D01*
X116288152Y-100017142D02*
X116288152Y-99874285D01*
X116288152Y-99874285D02*
X116335771Y-99779047D01*
X116335771Y-99779047D02*
X116383390Y-99731428D01*
X116383390Y-99731428D02*
X116478628Y-99683809D01*
X116478628Y-99683809D02*
X116764342Y-99683809D01*
X116764342Y-99683809D02*
X116859580Y-99731428D01*
X116859580Y-99731428D02*
X116907200Y-99779047D01*
X116907200Y-99779047D02*
X116954819Y-99874285D01*
X116954819Y-99874285D02*
X116954819Y-100017142D01*
X117050057Y-99493333D02*
X117050057Y-98731428D01*
X116288152Y-98588570D02*
X116954819Y-98350475D01*
X116954819Y-98350475D02*
X116288152Y-98112380D01*
X115954819Y-97826665D02*
X115954819Y-97207618D01*
X115954819Y-97207618D02*
X116335771Y-97540951D01*
X116335771Y-97540951D02*
X116335771Y-97398094D01*
X116335771Y-97398094D02*
X116383390Y-97302856D01*
X116383390Y-97302856D02*
X116431009Y-97255237D01*
X116431009Y-97255237D02*
X116526247Y-97207618D01*
X116526247Y-97207618D02*
X116764342Y-97207618D01*
X116764342Y-97207618D02*
X116859580Y-97255237D01*
X116859580Y-97255237D02*
X116907200Y-97302856D01*
X116907200Y-97302856D02*
X116954819Y-97398094D01*
X116954819Y-97398094D02*
X116954819Y-97683808D01*
X116954819Y-97683808D02*
X116907200Y-97779046D01*
X116907200Y-97779046D02*
X116859580Y-97826665D01*
X116859580Y-96779046D02*
X116907200Y-96731427D01*
X116907200Y-96731427D02*
X116954819Y-96779046D01*
X116954819Y-96779046D02*
X116907200Y-96826665D01*
X116907200Y-96826665D02*
X116859580Y-96779046D01*
X116859580Y-96779046D02*
X116954819Y-96779046D01*
X116954819Y-96398094D02*
X116288152Y-95874285D01*
X116288152Y-96398094D02*
X116954819Y-95874285D01*
X114858095Y-122434819D02*
X114858095Y-123244342D01*
X114858095Y-123244342D02*
X114905714Y-123339580D01*
X114905714Y-123339580D02*
X114953333Y-123387200D01*
X114953333Y-123387200D02*
X115048571Y-123434819D01*
X115048571Y-123434819D02*
X115239047Y-123434819D01*
X115239047Y-123434819D02*
X115334285Y-123387200D01*
X115334285Y-123387200D02*
X115381904Y-123339580D01*
X115381904Y-123339580D02*
X115429523Y-123244342D01*
X115429523Y-123244342D02*
X115429523Y-122434819D01*
X115858095Y-123387200D02*
X116000952Y-123434819D01*
X116000952Y-123434819D02*
X116239047Y-123434819D01*
X116239047Y-123434819D02*
X116334285Y-123387200D01*
X116334285Y-123387200D02*
X116381904Y-123339580D01*
X116381904Y-123339580D02*
X116429523Y-123244342D01*
X116429523Y-123244342D02*
X116429523Y-123149104D01*
X116429523Y-123149104D02*
X116381904Y-123053866D01*
X116381904Y-123053866D02*
X116334285Y-123006247D01*
X116334285Y-123006247D02*
X116239047Y-122958628D01*
X116239047Y-122958628D02*
X116048571Y-122911009D01*
X116048571Y-122911009D02*
X115953333Y-122863390D01*
X115953333Y-122863390D02*
X115905714Y-122815771D01*
X115905714Y-122815771D02*
X115858095Y-122720533D01*
X115858095Y-122720533D02*
X115858095Y-122625295D01*
X115858095Y-122625295D02*
X115905714Y-122530057D01*
X115905714Y-122530057D02*
X115953333Y-122482438D01*
X115953333Y-122482438D02*
X116048571Y-122434819D01*
X116048571Y-122434819D02*
X116286666Y-122434819D01*
X116286666Y-122434819D02*
X116429523Y-122482438D01*
X117191428Y-122911009D02*
X117334285Y-122958628D01*
X117334285Y-122958628D02*
X117381904Y-123006247D01*
X117381904Y-123006247D02*
X117429523Y-123101485D01*
X117429523Y-123101485D02*
X117429523Y-123244342D01*
X117429523Y-123244342D02*
X117381904Y-123339580D01*
X117381904Y-123339580D02*
X117334285Y-123387200D01*
X117334285Y-123387200D02*
X117239047Y-123434819D01*
X117239047Y-123434819D02*
X116858095Y-123434819D01*
X116858095Y-123434819D02*
X116858095Y-122434819D01*
X116858095Y-122434819D02*
X117191428Y-122434819D01*
X117191428Y-122434819D02*
X117286666Y-122482438D01*
X117286666Y-122482438D02*
X117334285Y-122530057D01*
X117334285Y-122530057D02*
X117381904Y-122625295D01*
X117381904Y-122625295D02*
X117381904Y-122720533D01*
X117381904Y-122720533D02*
X117334285Y-122815771D01*
X117334285Y-122815771D02*
X117286666Y-122863390D01*
X117286666Y-122863390D02*
X117191428Y-122911009D01*
X117191428Y-122911009D02*
X116858095Y-122911009D01*
D12*
%TO.C,J4*%
X87780000Y-127500000D02*
X87170000Y-127940000D01*
X87170000Y-127060000D01*
X87780000Y-127500000D01*
G36*
X87780000Y-127500000D02*
G01*
X87170000Y-127940000D01*
X87170000Y-127060000D01*
X87780000Y-127500000D01*
G37*
X94360000Y-132500000D02*
G75*
G02*
X90640000Y-132500000I-1860000J0D01*
G01*
X90640000Y-132500000D02*
G75*
G02*
X94360000Y-132500000I1860000J0D01*
G01*
X93040000Y-129280000D02*
G75*
G02*
X91960679Y-129280206I-540000J1780013D01*
G01*
X90720000Y-128040000D02*
G75*
G02*
X90719794Y-126960679I1780013J540000D01*
G01*
X94280000Y-126960000D02*
G75*
G02*
X94280206Y-128039321I-1780000J-540000D01*
G01*
X91960000Y-125720000D02*
G75*
G02*
X93039321Y-125719794I540000J-1780000D01*
G01*
X97820000Y-135120000D02*
X87780000Y-135120000D01*
X93684000Y-133911000D02*
X93640000Y-133867000D01*
X93911000Y-133684000D02*
X93867000Y-133640000D01*
X91133000Y-131360000D02*
X91090000Y-131316000D01*
X91360000Y-131133000D02*
X91317000Y-131089000D01*
X87780000Y-127800000D02*
X87780000Y-135120000D01*
X87780000Y-124880000D02*
X87780000Y-127200000D01*
X88400000Y-124880000D02*
X88400000Y-135120000D01*
X89900000Y-124880000D02*
X89900000Y-135120000D01*
X94800000Y-124880000D02*
X94800000Y-135120000D01*
X97820000Y-124880000D02*
X97820000Y-135120000D01*
X97820000Y-124880000D02*
X87780000Y-124880000D01*
%TO.C,J3*%
X87780000Y-113000000D02*
X87170000Y-113440000D01*
X87170000Y-112560000D01*
X87780000Y-113000000D01*
G36*
X87780000Y-113000000D02*
G01*
X87170000Y-113440000D01*
X87170000Y-112560000D01*
X87780000Y-113000000D01*
G37*
X94360000Y-118000000D02*
G75*
G02*
X90640000Y-118000000I-1860000J0D01*
G01*
X90640000Y-118000000D02*
G75*
G02*
X94360000Y-118000000I1860000J0D01*
G01*
X93040000Y-114780000D02*
G75*
G02*
X91960679Y-114780206I-540000J1780013D01*
G01*
X90720000Y-113540000D02*
G75*
G02*
X90719794Y-112460679I1780013J540000D01*
G01*
X94280000Y-112460000D02*
G75*
G02*
X94280206Y-113539321I-1780000J-540000D01*
G01*
X91960000Y-111220000D02*
G75*
G02*
X93039321Y-111219794I540000J-1780000D01*
G01*
X97820000Y-120620000D02*
X87780000Y-120620000D01*
X93684000Y-119411000D02*
X93640000Y-119367000D01*
X93911000Y-119184000D02*
X93867000Y-119140000D01*
X91133000Y-116860000D02*
X91090000Y-116816000D01*
X91360000Y-116633000D02*
X91317000Y-116589000D01*
X87780000Y-113300000D02*
X87780000Y-120620000D01*
X87780000Y-110380000D02*
X87780000Y-112700000D01*
X88400000Y-110380000D02*
X88400000Y-120620000D01*
X89900000Y-110380000D02*
X89900000Y-120620000D01*
X94800000Y-110380000D02*
X94800000Y-120620000D01*
X97820000Y-110380000D02*
X97820000Y-120620000D01*
X97820000Y-110380000D02*
X87780000Y-110380000D01*
%TO.C,J2*%
X97820000Y-95380000D02*
X87780000Y-95380000D01*
X97820000Y-95380000D02*
X97820000Y-105620000D01*
X94800000Y-95380000D02*
X94800000Y-105620000D01*
X89900000Y-95380000D02*
X89900000Y-105620000D01*
X88400000Y-95380000D02*
X88400000Y-105620000D01*
X87780000Y-95380000D02*
X87780000Y-97700000D01*
X87780000Y-98300000D02*
X87780000Y-105620000D01*
X91360000Y-101633000D02*
X91317000Y-101589000D01*
X91133000Y-101860000D02*
X91090000Y-101816000D01*
X93911000Y-104184000D02*
X93867000Y-104140000D01*
X93684000Y-104411000D02*
X93640000Y-104367000D01*
X97820000Y-105620000D02*
X87780000Y-105620000D01*
X91960000Y-96220000D02*
G75*
G02*
X93039321Y-96219794I540000J-1780000D01*
G01*
X94280000Y-97460000D02*
G75*
G02*
X94280206Y-98539321I-1780000J-540000D01*
G01*
X90720000Y-98540000D02*
G75*
G02*
X90719794Y-97460679I1780013J540000D01*
G01*
X93040000Y-99780000D02*
G75*
G02*
X91960679Y-99780206I-540000J1780013D01*
G01*
X94360000Y-103000000D02*
G75*
G02*
X90640000Y-103000000I-1860000J0D01*
G01*
X90640000Y-103000000D02*
G75*
G02*
X94360000Y-103000000I1860000J0D01*
G01*
X87780000Y-98000000D02*
X87170000Y-98440000D01*
X87170000Y-97560000D01*
X87780000Y-98000000D01*
G36*
X87780000Y-98000000D02*
G01*
X87170000Y-98440000D01*
X87170000Y-97560000D01*
X87780000Y-98000000D01*
G37*
%TO.C,J1*%
X97820000Y-76880000D02*
X87780000Y-76880000D01*
X97820000Y-76880000D02*
X97820000Y-87120000D01*
X94800000Y-76880000D02*
X94800000Y-87120000D01*
X89900000Y-76880000D02*
X89900000Y-87120000D01*
X88400000Y-76880000D02*
X88400000Y-87120000D01*
X87780000Y-76880000D02*
X87780000Y-79200000D01*
X87780000Y-79800000D02*
X87780000Y-87120000D01*
X91360000Y-83133000D02*
X91317000Y-83089000D01*
X91133000Y-83360000D02*
X91090000Y-83316000D01*
X93911000Y-85684000D02*
X93867000Y-85640000D01*
X93684000Y-85911000D02*
X93640000Y-85867000D01*
X97820000Y-87120000D02*
X87780000Y-87120000D01*
X91960000Y-77720000D02*
G75*
G02*
X93039321Y-77719794I540000J-1780000D01*
G01*
X94280000Y-78960000D02*
G75*
G02*
X94280206Y-80039321I-1780000J-540000D01*
G01*
X90720000Y-80040000D02*
G75*
G02*
X90719794Y-78960679I1780013J540000D01*
G01*
X93040000Y-81280000D02*
G75*
G02*
X91960679Y-81280206I-540000J1780013D01*
G01*
X94360000Y-84500000D02*
G75*
G02*
X90640000Y-84500000I-1860000J0D01*
G01*
X90640000Y-84500000D02*
G75*
G02*
X94360000Y-84500000I1860000J0D01*
G01*
X87780000Y-79500000D02*
X87170000Y-79940000D01*
X87170000Y-79060000D01*
X87780000Y-79500000D01*
G36*
X87780000Y-79500000D02*
G01*
X87170000Y-79940000D01*
X87170000Y-79060000D01*
X87780000Y-79500000D01*
G37*
%TO.C,A1*%
X107100000Y-83480000D02*
X107100000Y-86150000D01*
X107100000Y-88690000D02*
X107100000Y-126920000D01*
X107100000Y-126920000D02*
X112180000Y-126920000D01*
X109770000Y-86150000D02*
X107100000Y-86150000D01*
X109770000Y-88690000D02*
X107100000Y-88690000D01*
X109770000Y-88690000D02*
X109770000Y-86150000D01*
X109770000Y-88690000D02*
X109770000Y-124250000D01*
X109770000Y-124250000D02*
X107100000Y-124250000D01*
X112180000Y-119040000D02*
X120060000Y-119040000D01*
X112180000Y-129460000D02*
X112180000Y-119040000D01*
X120060000Y-119040000D02*
X120060000Y-129460000D01*
X120060000Y-129460000D02*
X112180000Y-129460000D01*
X122470000Y-86150000D02*
X122470000Y-124250000D01*
X122470000Y-86150000D02*
X125140000Y-86150000D01*
X122470000Y-124250000D02*
X125140000Y-124250000D01*
X125140000Y-83480000D02*
X107100000Y-83480000D01*
X125140000Y-126920000D02*
X120060000Y-126920000D01*
X125140000Y-126920000D02*
X125140000Y-83480000D01*
%TD*%
M02*
