%TF.GenerationSoftware,KiCad,Pcbnew,9.0.0*%
%TF.CreationDate,2025-11-11T15:09:18+01:00*%
%TF.ProjectId,lidar_and_7_camera_trigger_arduino_circuit,6c696461-725f-4616-9e64-5f375f63616d,1.0*%
%TF.SameCoordinates,Original*%
%TF.FileFunction,Legend,Bot*%
%TF.FilePolarity,Positive*%
%FSLAX46Y46*%
G04 Gerber Fmt 4.6, Leading zero omitted, Abs format (unit mm)*
G04 Created by KiCad (PCBNEW 9.0.0) date 2025-11-11 15:09:18*
%MOMM*%
%LPD*%
G01*
G04 APERTURE LIST*
%ADD10C,0.125000*%
%ADD11C,0.010000*%
G04 APERTURE END LIST*
D10*
X176379668Y-117331343D02*
X176379668Y-116331343D01*
X176379668Y-116331343D02*
X176141573Y-116331343D01*
X176141573Y-116331343D02*
X175998716Y-116378962D01*
X175998716Y-116378962D02*
X175903478Y-116474200D01*
X175903478Y-116474200D02*
X175855859Y-116569438D01*
X175855859Y-116569438D02*
X175808240Y-116759914D01*
X175808240Y-116759914D02*
X175808240Y-116902771D01*
X175808240Y-116902771D02*
X175855859Y-117093247D01*
X175855859Y-117093247D02*
X175903478Y-117188485D01*
X175903478Y-117188485D02*
X175998716Y-117283724D01*
X175998716Y-117283724D02*
X176141573Y-117331343D01*
X176141573Y-117331343D02*
X176379668Y-117331343D01*
X174998716Y-117283724D02*
X175093954Y-117331343D01*
X175093954Y-117331343D02*
X175284430Y-117331343D01*
X175284430Y-117331343D02*
X175379668Y-117283724D01*
X175379668Y-117283724D02*
X175427287Y-117188485D01*
X175427287Y-117188485D02*
X175427287Y-116807533D01*
X175427287Y-116807533D02*
X175379668Y-116712295D01*
X175379668Y-116712295D02*
X175284430Y-116664676D01*
X175284430Y-116664676D02*
X175093954Y-116664676D01*
X175093954Y-116664676D02*
X174998716Y-116712295D01*
X174998716Y-116712295D02*
X174951097Y-116807533D01*
X174951097Y-116807533D02*
X174951097Y-116902771D01*
X174951097Y-116902771D02*
X175427287Y-116998009D01*
X174570144Y-117283724D02*
X174474906Y-117331343D01*
X174474906Y-117331343D02*
X174284430Y-117331343D01*
X174284430Y-117331343D02*
X174189192Y-117283724D01*
X174189192Y-117283724D02*
X174141573Y-117188485D01*
X174141573Y-117188485D02*
X174141573Y-117140866D01*
X174141573Y-117140866D02*
X174189192Y-117045628D01*
X174189192Y-117045628D02*
X174284430Y-116998009D01*
X174284430Y-116998009D02*
X174427287Y-116998009D01*
X174427287Y-116998009D02*
X174522525Y-116950390D01*
X174522525Y-116950390D02*
X174570144Y-116855152D01*
X174570144Y-116855152D02*
X174570144Y-116807533D01*
X174570144Y-116807533D02*
X174522525Y-116712295D01*
X174522525Y-116712295D02*
X174427287Y-116664676D01*
X174427287Y-116664676D02*
X174284430Y-116664676D01*
X174284430Y-116664676D02*
X174189192Y-116712295D01*
X173713001Y-117331343D02*
X173713001Y-116664676D01*
X173713001Y-116331343D02*
X173760620Y-116378962D01*
X173760620Y-116378962D02*
X173713001Y-116426581D01*
X173713001Y-116426581D02*
X173665382Y-116378962D01*
X173665382Y-116378962D02*
X173713001Y-116331343D01*
X173713001Y-116331343D02*
X173713001Y-116426581D01*
X172808240Y-116664676D02*
X172808240Y-117474200D01*
X172808240Y-117474200D02*
X172855859Y-117569438D01*
X172855859Y-117569438D02*
X172903478Y-117617057D01*
X172903478Y-117617057D02*
X172998716Y-117664676D01*
X172998716Y-117664676D02*
X173141573Y-117664676D01*
X173141573Y-117664676D02*
X173236811Y-117617057D01*
X172808240Y-117283724D02*
X172903478Y-117331343D01*
X172903478Y-117331343D02*
X173093954Y-117331343D01*
X173093954Y-117331343D02*
X173189192Y-117283724D01*
X173189192Y-117283724D02*
X173236811Y-117236104D01*
X173236811Y-117236104D02*
X173284430Y-117140866D01*
X173284430Y-117140866D02*
X173284430Y-116855152D01*
X173284430Y-116855152D02*
X173236811Y-116759914D01*
X173236811Y-116759914D02*
X173189192Y-116712295D01*
X173189192Y-116712295D02*
X173093954Y-116664676D01*
X173093954Y-116664676D02*
X172903478Y-116664676D01*
X172903478Y-116664676D02*
X172808240Y-116712295D01*
X172332049Y-116664676D02*
X172332049Y-117331343D01*
X172332049Y-116759914D02*
X172284430Y-116712295D01*
X172284430Y-116712295D02*
X172189192Y-116664676D01*
X172189192Y-116664676D02*
X172046335Y-116664676D01*
X172046335Y-116664676D02*
X171951097Y-116712295D01*
X171951097Y-116712295D02*
X171903478Y-116807533D01*
X171903478Y-116807533D02*
X171903478Y-117331343D01*
X171046335Y-117283724D02*
X171141573Y-117331343D01*
X171141573Y-117331343D02*
X171332049Y-117331343D01*
X171332049Y-117331343D02*
X171427287Y-117283724D01*
X171427287Y-117283724D02*
X171474906Y-117188485D01*
X171474906Y-117188485D02*
X171474906Y-116807533D01*
X171474906Y-116807533D02*
X171427287Y-116712295D01*
X171427287Y-116712295D02*
X171332049Y-116664676D01*
X171332049Y-116664676D02*
X171141573Y-116664676D01*
X171141573Y-116664676D02*
X171046335Y-116712295D01*
X171046335Y-116712295D02*
X170998716Y-116807533D01*
X170998716Y-116807533D02*
X170998716Y-116902771D01*
X170998716Y-116902771D02*
X171474906Y-116998009D01*
X170141573Y-117331343D02*
X170141573Y-116331343D01*
X170141573Y-117283724D02*
X170236811Y-117331343D01*
X170236811Y-117331343D02*
X170427287Y-117331343D01*
X170427287Y-117331343D02*
X170522525Y-117283724D01*
X170522525Y-117283724D02*
X170570144Y-117236104D01*
X170570144Y-117236104D02*
X170617763Y-117140866D01*
X170617763Y-117140866D02*
X170617763Y-116855152D01*
X170617763Y-116855152D02*
X170570144Y-116759914D01*
X170570144Y-116759914D02*
X170522525Y-116712295D01*
X170522525Y-116712295D02*
X170427287Y-116664676D01*
X170427287Y-116664676D02*
X170236811Y-116664676D01*
X170236811Y-116664676D02*
X170141573Y-116712295D01*
X168903477Y-117331343D02*
X168903477Y-116331343D01*
X168903477Y-116712295D02*
X168808239Y-116664676D01*
X168808239Y-116664676D02*
X168617763Y-116664676D01*
X168617763Y-116664676D02*
X168522525Y-116712295D01*
X168522525Y-116712295D02*
X168474906Y-116759914D01*
X168474906Y-116759914D02*
X168427287Y-116855152D01*
X168427287Y-116855152D02*
X168427287Y-117140866D01*
X168427287Y-117140866D02*
X168474906Y-117236104D01*
X168474906Y-117236104D02*
X168522525Y-117283724D01*
X168522525Y-117283724D02*
X168617763Y-117331343D01*
X168617763Y-117331343D02*
X168808239Y-117331343D01*
X168808239Y-117331343D02*
X168903477Y-117283724D01*
X168093953Y-116664676D02*
X167855858Y-117331343D01*
X167617763Y-116664676D02*
X167855858Y-117331343D01*
X167855858Y-117331343D02*
X167951096Y-117569438D01*
X167951096Y-117569438D02*
X167998715Y-117617057D01*
X167998715Y-117617057D02*
X168093953Y-117664676D01*
X167236810Y-117236104D02*
X167189191Y-117283724D01*
X167189191Y-117283724D02*
X167236810Y-117331343D01*
X167236810Y-117331343D02*
X167284429Y-117283724D01*
X167284429Y-117283724D02*
X167236810Y-117236104D01*
X167236810Y-117236104D02*
X167236810Y-117331343D01*
X167236810Y-116712295D02*
X167189191Y-116759914D01*
X167189191Y-116759914D02*
X167236810Y-116807533D01*
X167236810Y-116807533D02*
X167284429Y-116759914D01*
X167284429Y-116759914D02*
X167236810Y-116712295D01*
X167236810Y-116712295D02*
X167236810Y-116807533D01*
X166046334Y-117283724D02*
X165903477Y-117331343D01*
X165903477Y-117331343D02*
X165665382Y-117331343D01*
X165665382Y-117331343D02*
X165570144Y-117283724D01*
X165570144Y-117283724D02*
X165522525Y-117236104D01*
X165522525Y-117236104D02*
X165474906Y-117140866D01*
X165474906Y-117140866D02*
X165474906Y-117045628D01*
X165474906Y-117045628D02*
X165522525Y-116950390D01*
X165522525Y-116950390D02*
X165570144Y-116902771D01*
X165570144Y-116902771D02*
X165665382Y-116855152D01*
X165665382Y-116855152D02*
X165855858Y-116807533D01*
X165855858Y-116807533D02*
X165951096Y-116759914D01*
X165951096Y-116759914D02*
X165998715Y-116712295D01*
X165998715Y-116712295D02*
X166046334Y-116617057D01*
X166046334Y-116617057D02*
X166046334Y-116521819D01*
X166046334Y-116521819D02*
X165998715Y-116426581D01*
X165998715Y-116426581D02*
X165951096Y-116378962D01*
X165951096Y-116378962D02*
X165855858Y-116331343D01*
X165855858Y-116331343D02*
X165617763Y-116331343D01*
X165617763Y-116331343D02*
X165474906Y-116378962D01*
X165046334Y-117331343D02*
X165046334Y-116331343D01*
X164617763Y-117331343D02*
X164617763Y-116807533D01*
X164617763Y-116807533D02*
X164665382Y-116712295D01*
X164665382Y-116712295D02*
X164760620Y-116664676D01*
X164760620Y-116664676D02*
X164903477Y-116664676D01*
X164903477Y-116664676D02*
X164998715Y-116712295D01*
X164998715Y-116712295D02*
X165046334Y-116759914D01*
X164141572Y-117331343D02*
X164141572Y-116664676D01*
X164141572Y-116331343D02*
X164189191Y-116378962D01*
X164189191Y-116378962D02*
X164141572Y-116426581D01*
X164141572Y-116426581D02*
X164093953Y-116378962D01*
X164093953Y-116378962D02*
X164141572Y-116331343D01*
X164141572Y-116331343D02*
X164141572Y-116426581D01*
X163760620Y-116664676D02*
X163522525Y-117331343D01*
X163522525Y-117331343D02*
X163284430Y-116664676D01*
X162474906Y-117331343D02*
X162474906Y-116807533D01*
X162474906Y-116807533D02*
X162522525Y-116712295D01*
X162522525Y-116712295D02*
X162617763Y-116664676D01*
X162617763Y-116664676D02*
X162808239Y-116664676D01*
X162808239Y-116664676D02*
X162903477Y-116712295D01*
X162474906Y-117283724D02*
X162570144Y-117331343D01*
X162570144Y-117331343D02*
X162808239Y-117331343D01*
X162808239Y-117331343D02*
X162903477Y-117283724D01*
X162903477Y-117283724D02*
X162951096Y-117188485D01*
X162951096Y-117188485D02*
X162951096Y-117093247D01*
X162951096Y-117093247D02*
X162903477Y-116998009D01*
X162903477Y-116998009D02*
X162808239Y-116950390D01*
X162808239Y-116950390D02*
X162570144Y-116950390D01*
X162570144Y-116950390D02*
X162474906Y-116902771D01*
X161284429Y-117045628D02*
X160808239Y-117045628D01*
X161379667Y-117331343D02*
X161046334Y-116331343D01*
X161046334Y-116331343D02*
X160713001Y-117331343D01*
X159951096Y-116664676D02*
X159951096Y-117474200D01*
X159951096Y-117474200D02*
X159998715Y-117569438D01*
X159998715Y-117569438D02*
X160046334Y-117617057D01*
X160046334Y-117617057D02*
X160141572Y-117664676D01*
X160141572Y-117664676D02*
X160284429Y-117664676D01*
X160284429Y-117664676D02*
X160379667Y-117617057D01*
X159951096Y-117283724D02*
X160046334Y-117331343D01*
X160046334Y-117331343D02*
X160236810Y-117331343D01*
X160236810Y-117331343D02*
X160332048Y-117283724D01*
X160332048Y-117283724D02*
X160379667Y-117236104D01*
X160379667Y-117236104D02*
X160427286Y-117140866D01*
X160427286Y-117140866D02*
X160427286Y-116855152D01*
X160427286Y-116855152D02*
X160379667Y-116759914D01*
X160379667Y-116759914D02*
X160332048Y-116712295D01*
X160332048Y-116712295D02*
X160236810Y-116664676D01*
X160236810Y-116664676D02*
X160046334Y-116664676D01*
X160046334Y-116664676D02*
X159951096Y-116712295D01*
X159474905Y-117331343D02*
X159474905Y-116664676D01*
X159474905Y-116855152D02*
X159427286Y-116759914D01*
X159427286Y-116759914D02*
X159379667Y-116712295D01*
X159379667Y-116712295D02*
X159284429Y-116664676D01*
X159284429Y-116664676D02*
X159189191Y-116664676D01*
X158427286Y-117331343D02*
X158427286Y-116807533D01*
X158427286Y-116807533D02*
X158474905Y-116712295D01*
X158474905Y-116712295D02*
X158570143Y-116664676D01*
X158570143Y-116664676D02*
X158760619Y-116664676D01*
X158760619Y-116664676D02*
X158855857Y-116712295D01*
X158427286Y-117283724D02*
X158522524Y-117331343D01*
X158522524Y-117331343D02*
X158760619Y-117331343D01*
X158760619Y-117331343D02*
X158855857Y-117283724D01*
X158855857Y-117283724D02*
X158903476Y-117188485D01*
X158903476Y-117188485D02*
X158903476Y-117093247D01*
X158903476Y-117093247D02*
X158855857Y-116998009D01*
X158855857Y-116998009D02*
X158760619Y-116950390D01*
X158760619Y-116950390D02*
X158522524Y-116950390D01*
X158522524Y-116950390D02*
X158427286Y-116902771D01*
X158046333Y-116664676D02*
X157855857Y-117331343D01*
X157855857Y-117331343D02*
X157665381Y-116855152D01*
X157665381Y-116855152D02*
X157474905Y-117331343D01*
X157474905Y-117331343D02*
X157284429Y-116664676D01*
X156474905Y-117331343D02*
X156474905Y-116807533D01*
X156474905Y-116807533D02*
X156522524Y-116712295D01*
X156522524Y-116712295D02*
X156617762Y-116664676D01*
X156617762Y-116664676D02*
X156808238Y-116664676D01*
X156808238Y-116664676D02*
X156903476Y-116712295D01*
X156474905Y-117283724D02*
X156570143Y-117331343D01*
X156570143Y-117331343D02*
X156808238Y-117331343D01*
X156808238Y-117331343D02*
X156903476Y-117283724D01*
X156903476Y-117283724D02*
X156951095Y-117188485D01*
X156951095Y-117188485D02*
X156951095Y-117093247D01*
X156951095Y-117093247D02*
X156903476Y-116998009D01*
X156903476Y-116998009D02*
X156808238Y-116950390D01*
X156808238Y-116950390D02*
X156570143Y-116950390D01*
X156570143Y-116950390D02*
X156474905Y-116902771D01*
X155855857Y-117331343D02*
X155951095Y-117283724D01*
X155951095Y-117283724D02*
X155998714Y-117188485D01*
X155998714Y-117188485D02*
X155998714Y-116331343D01*
X176474906Y-118274620D02*
X176236811Y-118941287D01*
X176236811Y-118941287D02*
X175998716Y-118274620D01*
X175236811Y-118893668D02*
X175332049Y-118941287D01*
X175332049Y-118941287D02*
X175522525Y-118941287D01*
X175522525Y-118941287D02*
X175617763Y-118893668D01*
X175617763Y-118893668D02*
X175665382Y-118798429D01*
X175665382Y-118798429D02*
X175665382Y-118417477D01*
X175665382Y-118417477D02*
X175617763Y-118322239D01*
X175617763Y-118322239D02*
X175522525Y-118274620D01*
X175522525Y-118274620D02*
X175332049Y-118274620D01*
X175332049Y-118274620D02*
X175236811Y-118322239D01*
X175236811Y-118322239D02*
X175189192Y-118417477D01*
X175189192Y-118417477D02*
X175189192Y-118512715D01*
X175189192Y-118512715D02*
X175665382Y-118607953D01*
X174760620Y-118941287D02*
X174760620Y-118274620D01*
X174760620Y-118465096D02*
X174713001Y-118369858D01*
X174713001Y-118369858D02*
X174665382Y-118322239D01*
X174665382Y-118322239D02*
X174570144Y-118274620D01*
X174570144Y-118274620D02*
X174474906Y-118274620D01*
X174189191Y-118893668D02*
X174093953Y-118941287D01*
X174093953Y-118941287D02*
X173903477Y-118941287D01*
X173903477Y-118941287D02*
X173808239Y-118893668D01*
X173808239Y-118893668D02*
X173760620Y-118798429D01*
X173760620Y-118798429D02*
X173760620Y-118750810D01*
X173760620Y-118750810D02*
X173808239Y-118655572D01*
X173808239Y-118655572D02*
X173903477Y-118607953D01*
X173903477Y-118607953D02*
X174046334Y-118607953D01*
X174046334Y-118607953D02*
X174141572Y-118560334D01*
X174141572Y-118560334D02*
X174189191Y-118465096D01*
X174189191Y-118465096D02*
X174189191Y-118417477D01*
X174189191Y-118417477D02*
X174141572Y-118322239D01*
X174141572Y-118322239D02*
X174046334Y-118274620D01*
X174046334Y-118274620D02*
X173903477Y-118274620D01*
X173903477Y-118274620D02*
X173808239Y-118322239D01*
X173332048Y-118941287D02*
X173332048Y-118274620D01*
X173332048Y-117941287D02*
X173379667Y-117988906D01*
X173379667Y-117988906D02*
X173332048Y-118036525D01*
X173332048Y-118036525D02*
X173284429Y-117988906D01*
X173284429Y-117988906D02*
X173332048Y-117941287D01*
X173332048Y-117941287D02*
X173332048Y-118036525D01*
X172713001Y-118941287D02*
X172808239Y-118893668D01*
X172808239Y-118893668D02*
X172855858Y-118846048D01*
X172855858Y-118846048D02*
X172903477Y-118750810D01*
X172903477Y-118750810D02*
X172903477Y-118465096D01*
X172903477Y-118465096D02*
X172855858Y-118369858D01*
X172855858Y-118369858D02*
X172808239Y-118322239D01*
X172808239Y-118322239D02*
X172713001Y-118274620D01*
X172713001Y-118274620D02*
X172570144Y-118274620D01*
X172570144Y-118274620D02*
X172474906Y-118322239D01*
X172474906Y-118322239D02*
X172427287Y-118369858D01*
X172427287Y-118369858D02*
X172379668Y-118465096D01*
X172379668Y-118465096D02*
X172379668Y-118750810D01*
X172379668Y-118750810D02*
X172427287Y-118846048D01*
X172427287Y-118846048D02*
X172474906Y-118893668D01*
X172474906Y-118893668D02*
X172570144Y-118941287D01*
X172570144Y-118941287D02*
X172713001Y-118941287D01*
X171951096Y-118274620D02*
X171951096Y-118941287D01*
X171951096Y-118369858D02*
X171903477Y-118322239D01*
X171903477Y-118322239D02*
X171808239Y-118274620D01*
X171808239Y-118274620D02*
X171665382Y-118274620D01*
X171665382Y-118274620D02*
X171570144Y-118322239D01*
X171570144Y-118322239D02*
X171522525Y-118417477D01*
X171522525Y-118417477D02*
X171522525Y-118941287D01*
X171046334Y-118846048D02*
X170998715Y-118893668D01*
X170998715Y-118893668D02*
X171046334Y-118941287D01*
X171046334Y-118941287D02*
X171093953Y-118893668D01*
X171093953Y-118893668D02*
X171046334Y-118846048D01*
X171046334Y-118846048D02*
X171046334Y-118941287D01*
X171046334Y-118322239D02*
X170998715Y-118369858D01*
X170998715Y-118369858D02*
X171046334Y-118417477D01*
X171046334Y-118417477D02*
X171093953Y-118369858D01*
X171093953Y-118369858D02*
X171046334Y-118322239D01*
X171046334Y-118322239D02*
X171046334Y-118417477D01*
X169284430Y-118941287D02*
X169855858Y-118941287D01*
X169570144Y-118941287D02*
X169570144Y-117941287D01*
X169570144Y-117941287D02*
X169665382Y-118084144D01*
X169665382Y-118084144D02*
X169760620Y-118179382D01*
X169760620Y-118179382D02*
X169855858Y-118227001D01*
X168855858Y-118846048D02*
X168808239Y-118893668D01*
X168808239Y-118893668D02*
X168855858Y-118941287D01*
X168855858Y-118941287D02*
X168903477Y-118893668D01*
X168903477Y-118893668D02*
X168855858Y-118846048D01*
X168855858Y-118846048D02*
X168855858Y-118941287D01*
X168189192Y-117941287D02*
X168093954Y-117941287D01*
X168093954Y-117941287D02*
X167998716Y-117988906D01*
X167998716Y-117988906D02*
X167951097Y-118036525D01*
X167951097Y-118036525D02*
X167903478Y-118131763D01*
X167903478Y-118131763D02*
X167855859Y-118322239D01*
X167855859Y-118322239D02*
X167855859Y-118560334D01*
X167855859Y-118560334D02*
X167903478Y-118750810D01*
X167903478Y-118750810D02*
X167951097Y-118846048D01*
X167951097Y-118846048D02*
X167998716Y-118893668D01*
X167998716Y-118893668D02*
X168093954Y-118941287D01*
X168093954Y-118941287D02*
X168189192Y-118941287D01*
X168189192Y-118941287D02*
X168284430Y-118893668D01*
X168284430Y-118893668D02*
X168332049Y-118846048D01*
X168332049Y-118846048D02*
X168379668Y-118750810D01*
X168379668Y-118750810D02*
X168427287Y-118560334D01*
X168427287Y-118560334D02*
X168427287Y-118322239D01*
X168427287Y-118322239D02*
X168379668Y-118131763D01*
X168379668Y-118131763D02*
X168332049Y-118036525D01*
X168332049Y-118036525D02*
X168284430Y-117988906D01*
X168284430Y-117988906D02*
X168189192Y-117941287D01*
X176379668Y-120551231D02*
X176379668Y-119551231D01*
X176379668Y-119551231D02*
X175998716Y-119551231D01*
X175998716Y-119551231D02*
X175903478Y-119598850D01*
X175903478Y-119598850D02*
X175855859Y-119646469D01*
X175855859Y-119646469D02*
X175808240Y-119741707D01*
X175808240Y-119741707D02*
X175808240Y-119884564D01*
X175808240Y-119884564D02*
X175855859Y-119979802D01*
X175855859Y-119979802D02*
X175903478Y-120027421D01*
X175903478Y-120027421D02*
X175998716Y-120075040D01*
X175998716Y-120075040D02*
X176379668Y-120075040D01*
X175379668Y-120551231D02*
X175379668Y-119884564D01*
X175379668Y-120075040D02*
X175332049Y-119979802D01*
X175332049Y-119979802D02*
X175284430Y-119932183D01*
X175284430Y-119932183D02*
X175189192Y-119884564D01*
X175189192Y-119884564D02*
X175093954Y-119884564D01*
X174617763Y-120551231D02*
X174713001Y-120503612D01*
X174713001Y-120503612D02*
X174760620Y-120455992D01*
X174760620Y-120455992D02*
X174808239Y-120360754D01*
X174808239Y-120360754D02*
X174808239Y-120075040D01*
X174808239Y-120075040D02*
X174760620Y-119979802D01*
X174760620Y-119979802D02*
X174713001Y-119932183D01*
X174713001Y-119932183D02*
X174617763Y-119884564D01*
X174617763Y-119884564D02*
X174474906Y-119884564D01*
X174474906Y-119884564D02*
X174379668Y-119932183D01*
X174379668Y-119932183D02*
X174332049Y-119979802D01*
X174332049Y-119979802D02*
X174284430Y-120075040D01*
X174284430Y-120075040D02*
X174284430Y-120360754D01*
X174284430Y-120360754D02*
X174332049Y-120455992D01*
X174332049Y-120455992D02*
X174379668Y-120503612D01*
X174379668Y-120503612D02*
X174474906Y-120551231D01*
X174474906Y-120551231D02*
X174617763Y-120551231D01*
X173855858Y-119884564D02*
X173855858Y-120741707D01*
X173855858Y-120741707D02*
X173903477Y-120836945D01*
X173903477Y-120836945D02*
X173998715Y-120884564D01*
X173998715Y-120884564D02*
X174046334Y-120884564D01*
X173855858Y-119551231D02*
X173903477Y-119598850D01*
X173903477Y-119598850D02*
X173855858Y-119646469D01*
X173855858Y-119646469D02*
X173808239Y-119598850D01*
X173808239Y-119598850D02*
X173855858Y-119551231D01*
X173855858Y-119551231D02*
X173855858Y-119646469D01*
X172998716Y-120503612D02*
X173093954Y-120551231D01*
X173093954Y-120551231D02*
X173284430Y-120551231D01*
X173284430Y-120551231D02*
X173379668Y-120503612D01*
X173379668Y-120503612D02*
X173427287Y-120408373D01*
X173427287Y-120408373D02*
X173427287Y-120027421D01*
X173427287Y-120027421D02*
X173379668Y-119932183D01*
X173379668Y-119932183D02*
X173284430Y-119884564D01*
X173284430Y-119884564D02*
X173093954Y-119884564D01*
X173093954Y-119884564D02*
X172998716Y-119932183D01*
X172998716Y-119932183D02*
X172951097Y-120027421D01*
X172951097Y-120027421D02*
X172951097Y-120122659D01*
X172951097Y-120122659D02*
X173427287Y-120217897D01*
X172093954Y-120503612D02*
X172189192Y-120551231D01*
X172189192Y-120551231D02*
X172379668Y-120551231D01*
X172379668Y-120551231D02*
X172474906Y-120503612D01*
X172474906Y-120503612D02*
X172522525Y-120455992D01*
X172522525Y-120455992D02*
X172570144Y-120360754D01*
X172570144Y-120360754D02*
X172570144Y-120075040D01*
X172570144Y-120075040D02*
X172522525Y-119979802D01*
X172522525Y-119979802D02*
X172474906Y-119932183D01*
X172474906Y-119932183D02*
X172379668Y-119884564D01*
X172379668Y-119884564D02*
X172189192Y-119884564D01*
X172189192Y-119884564D02*
X172093954Y-119932183D01*
X171808239Y-119884564D02*
X171427287Y-119884564D01*
X171665382Y-119551231D02*
X171665382Y-120408373D01*
X171665382Y-120408373D02*
X171617763Y-120503612D01*
X171617763Y-120503612D02*
X171522525Y-120551231D01*
X171522525Y-120551231D02*
X171427287Y-120551231D01*
X171093953Y-120455992D02*
X171046334Y-120503612D01*
X171046334Y-120503612D02*
X171093953Y-120551231D01*
X171093953Y-120551231D02*
X171141572Y-120503612D01*
X171141572Y-120503612D02*
X171093953Y-120455992D01*
X171093953Y-120455992D02*
X171093953Y-120551231D01*
X171093953Y-119932183D02*
X171046334Y-119979802D01*
X171046334Y-119979802D02*
X171093953Y-120027421D01*
X171093953Y-120027421D02*
X171141572Y-119979802D01*
X171141572Y-119979802D02*
X171093953Y-119932183D01*
X171093953Y-119932183D02*
X171093953Y-120027421D01*
X169903477Y-120503612D02*
X169760620Y-120551231D01*
X169760620Y-120551231D02*
X169522525Y-120551231D01*
X169522525Y-120551231D02*
X169427287Y-120503612D01*
X169427287Y-120503612D02*
X169379668Y-120455992D01*
X169379668Y-120455992D02*
X169332049Y-120360754D01*
X169332049Y-120360754D02*
X169332049Y-120265516D01*
X169332049Y-120265516D02*
X169379668Y-120170278D01*
X169379668Y-120170278D02*
X169427287Y-120122659D01*
X169427287Y-120122659D02*
X169522525Y-120075040D01*
X169522525Y-120075040D02*
X169713001Y-120027421D01*
X169713001Y-120027421D02*
X169808239Y-119979802D01*
X169808239Y-119979802D02*
X169855858Y-119932183D01*
X169855858Y-119932183D02*
X169903477Y-119836945D01*
X169903477Y-119836945D02*
X169903477Y-119741707D01*
X169903477Y-119741707D02*
X169855858Y-119646469D01*
X169855858Y-119646469D02*
X169808239Y-119598850D01*
X169808239Y-119598850D02*
X169713001Y-119551231D01*
X169713001Y-119551231D02*
X169474906Y-119551231D01*
X169474906Y-119551231D02*
X169332049Y-119598850D01*
X168522525Y-120503612D02*
X168617763Y-120551231D01*
X168617763Y-120551231D02*
X168808239Y-120551231D01*
X168808239Y-120551231D02*
X168903477Y-120503612D01*
X168903477Y-120503612D02*
X168951096Y-120408373D01*
X168951096Y-120408373D02*
X168951096Y-120027421D01*
X168951096Y-120027421D02*
X168903477Y-119932183D01*
X168903477Y-119932183D02*
X168808239Y-119884564D01*
X168808239Y-119884564D02*
X168617763Y-119884564D01*
X168617763Y-119884564D02*
X168522525Y-119932183D01*
X168522525Y-119932183D02*
X168474906Y-120027421D01*
X168474906Y-120027421D02*
X168474906Y-120122659D01*
X168474906Y-120122659D02*
X168951096Y-120217897D01*
X168046334Y-119884564D02*
X168046334Y-120551231D01*
X168046334Y-119979802D02*
X167998715Y-119932183D01*
X167998715Y-119932183D02*
X167903477Y-119884564D01*
X167903477Y-119884564D02*
X167760620Y-119884564D01*
X167760620Y-119884564D02*
X167665382Y-119932183D01*
X167665382Y-119932183D02*
X167617763Y-120027421D01*
X167617763Y-120027421D02*
X167617763Y-120551231D01*
X167189191Y-120503612D02*
X167093953Y-120551231D01*
X167093953Y-120551231D02*
X166903477Y-120551231D01*
X166903477Y-120551231D02*
X166808239Y-120503612D01*
X166808239Y-120503612D02*
X166760620Y-120408373D01*
X166760620Y-120408373D02*
X166760620Y-120360754D01*
X166760620Y-120360754D02*
X166808239Y-120265516D01*
X166808239Y-120265516D02*
X166903477Y-120217897D01*
X166903477Y-120217897D02*
X167046334Y-120217897D01*
X167046334Y-120217897D02*
X167141572Y-120170278D01*
X167141572Y-120170278D02*
X167189191Y-120075040D01*
X167189191Y-120075040D02*
X167189191Y-120027421D01*
X167189191Y-120027421D02*
X167141572Y-119932183D01*
X167141572Y-119932183D02*
X167046334Y-119884564D01*
X167046334Y-119884564D02*
X166903477Y-119884564D01*
X166903477Y-119884564D02*
X166808239Y-119932183D01*
X166189191Y-120551231D02*
X166284429Y-120503612D01*
X166284429Y-120503612D02*
X166332048Y-120455992D01*
X166332048Y-120455992D02*
X166379667Y-120360754D01*
X166379667Y-120360754D02*
X166379667Y-120075040D01*
X166379667Y-120075040D02*
X166332048Y-119979802D01*
X166332048Y-119979802D02*
X166284429Y-119932183D01*
X166284429Y-119932183D02*
X166189191Y-119884564D01*
X166189191Y-119884564D02*
X166046334Y-119884564D01*
X166046334Y-119884564D02*
X165951096Y-119932183D01*
X165951096Y-119932183D02*
X165903477Y-119979802D01*
X165903477Y-119979802D02*
X165855858Y-120075040D01*
X165855858Y-120075040D02*
X165855858Y-120360754D01*
X165855858Y-120360754D02*
X165903477Y-120455992D01*
X165903477Y-120455992D02*
X165951096Y-120503612D01*
X165951096Y-120503612D02*
X166046334Y-120551231D01*
X166046334Y-120551231D02*
X166189191Y-120551231D01*
X165427286Y-120551231D02*
X165427286Y-119884564D01*
X165427286Y-120075040D02*
X165379667Y-119979802D01*
X165379667Y-119979802D02*
X165332048Y-119932183D01*
X165332048Y-119932183D02*
X165236810Y-119884564D01*
X165236810Y-119884564D02*
X165141572Y-119884564D01*
X163617762Y-120503612D02*
X163713000Y-120551231D01*
X163713000Y-120551231D02*
X163903476Y-120551231D01*
X163903476Y-120551231D02*
X163998714Y-120503612D01*
X163998714Y-120503612D02*
X164046333Y-120455992D01*
X164046333Y-120455992D02*
X164093952Y-120360754D01*
X164093952Y-120360754D02*
X164093952Y-120075040D01*
X164093952Y-120075040D02*
X164046333Y-119979802D01*
X164046333Y-119979802D02*
X163998714Y-119932183D01*
X163998714Y-119932183D02*
X163903476Y-119884564D01*
X163903476Y-119884564D02*
X163713000Y-119884564D01*
X163713000Y-119884564D02*
X163617762Y-119932183D01*
X162760619Y-120551231D02*
X162760619Y-120027421D01*
X162760619Y-120027421D02*
X162808238Y-119932183D01*
X162808238Y-119932183D02*
X162903476Y-119884564D01*
X162903476Y-119884564D02*
X163093952Y-119884564D01*
X163093952Y-119884564D02*
X163189190Y-119932183D01*
X162760619Y-120503612D02*
X162855857Y-120551231D01*
X162855857Y-120551231D02*
X163093952Y-120551231D01*
X163093952Y-120551231D02*
X163189190Y-120503612D01*
X163189190Y-120503612D02*
X163236809Y-120408373D01*
X163236809Y-120408373D02*
X163236809Y-120313135D01*
X163236809Y-120313135D02*
X163189190Y-120217897D01*
X163189190Y-120217897D02*
X163093952Y-120170278D01*
X163093952Y-120170278D02*
X162855857Y-120170278D01*
X162855857Y-120170278D02*
X162760619Y-120122659D01*
X162284428Y-120551231D02*
X162284428Y-119884564D01*
X162284428Y-120075040D02*
X162236809Y-119979802D01*
X162236809Y-119979802D02*
X162189190Y-119932183D01*
X162189190Y-119932183D02*
X162093952Y-119884564D01*
X162093952Y-119884564D02*
X161998714Y-119884564D01*
X161617761Y-120503612D02*
X161617761Y-120551231D01*
X161617761Y-120551231D02*
X161665380Y-120646469D01*
X161665380Y-120646469D02*
X161712999Y-120694088D01*
X160427285Y-120551231D02*
X160427285Y-119551231D01*
X159951095Y-120551231D02*
X159951095Y-119551231D01*
X159474905Y-120551231D02*
X159474905Y-119551231D01*
X159474905Y-119551231D02*
X159141572Y-120265516D01*
X159141572Y-120265516D02*
X158808239Y-119551231D01*
X158808239Y-119551231D02*
X158808239Y-120551231D01*
X158189191Y-120551231D02*
X158284429Y-120503612D01*
X158284429Y-120503612D02*
X158332048Y-120455992D01*
X158332048Y-120455992D02*
X158379667Y-120360754D01*
X158379667Y-120360754D02*
X158379667Y-120075040D01*
X158379667Y-120075040D02*
X158332048Y-119979802D01*
X158332048Y-119979802D02*
X158284429Y-119932183D01*
X158284429Y-119932183D02*
X158189191Y-119884564D01*
X158189191Y-119884564D02*
X158046334Y-119884564D01*
X158046334Y-119884564D02*
X157951096Y-119932183D01*
X157951096Y-119932183D02*
X157903477Y-119979802D01*
X157903477Y-119979802D02*
X157855858Y-120075040D01*
X157855858Y-120075040D02*
X157855858Y-120360754D01*
X157855858Y-120360754D02*
X157903477Y-120455992D01*
X157903477Y-120455992D02*
X157951096Y-120503612D01*
X157951096Y-120503612D02*
X158046334Y-120551231D01*
X158046334Y-120551231D02*
X158189191Y-120551231D01*
X157379667Y-120503612D02*
X157379667Y-120551231D01*
X157379667Y-120551231D02*
X157427286Y-120646469D01*
X157427286Y-120646469D02*
X157474905Y-120694088D01*
X156332048Y-119551231D02*
X155760620Y-119551231D01*
X156046334Y-120551231D02*
X156046334Y-119551231D01*
X155427286Y-120551231D02*
X155427286Y-119551231D01*
X155427286Y-120027421D02*
X154855858Y-120027421D01*
X154855858Y-120551231D02*
X154855858Y-119551231D01*
X154379667Y-120551231D02*
X154379667Y-119551231D01*
X176379668Y-122161175D02*
X176379668Y-121161175D01*
X176379668Y-121161175D02*
X176141573Y-121161175D01*
X176141573Y-121161175D02*
X175998716Y-121208794D01*
X175998716Y-121208794D02*
X175903478Y-121304032D01*
X175903478Y-121304032D02*
X175855859Y-121399270D01*
X175855859Y-121399270D02*
X175808240Y-121589746D01*
X175808240Y-121589746D02*
X175808240Y-121732603D01*
X175808240Y-121732603D02*
X175855859Y-121923079D01*
X175855859Y-121923079D02*
X175903478Y-122018317D01*
X175903478Y-122018317D02*
X175998716Y-122113556D01*
X175998716Y-122113556D02*
X176141573Y-122161175D01*
X176141573Y-122161175D02*
X176379668Y-122161175D01*
X174998716Y-122113556D02*
X175093954Y-122161175D01*
X175093954Y-122161175D02*
X175284430Y-122161175D01*
X175284430Y-122161175D02*
X175379668Y-122113556D01*
X175379668Y-122113556D02*
X175427287Y-122018317D01*
X175427287Y-122018317D02*
X175427287Y-121637365D01*
X175427287Y-121637365D02*
X175379668Y-121542127D01*
X175379668Y-121542127D02*
X175284430Y-121494508D01*
X175284430Y-121494508D02*
X175093954Y-121494508D01*
X175093954Y-121494508D02*
X174998716Y-121542127D01*
X174998716Y-121542127D02*
X174951097Y-121637365D01*
X174951097Y-121637365D02*
X174951097Y-121732603D01*
X174951097Y-121732603D02*
X175427287Y-121827841D01*
X174570144Y-122113556D02*
X174474906Y-122161175D01*
X174474906Y-122161175D02*
X174284430Y-122161175D01*
X174284430Y-122161175D02*
X174189192Y-122113556D01*
X174189192Y-122113556D02*
X174141573Y-122018317D01*
X174141573Y-122018317D02*
X174141573Y-121970698D01*
X174141573Y-121970698D02*
X174189192Y-121875460D01*
X174189192Y-121875460D02*
X174284430Y-121827841D01*
X174284430Y-121827841D02*
X174427287Y-121827841D01*
X174427287Y-121827841D02*
X174522525Y-121780222D01*
X174522525Y-121780222D02*
X174570144Y-121684984D01*
X174570144Y-121684984D02*
X174570144Y-121637365D01*
X174570144Y-121637365D02*
X174522525Y-121542127D01*
X174522525Y-121542127D02*
X174427287Y-121494508D01*
X174427287Y-121494508D02*
X174284430Y-121494508D01*
X174284430Y-121494508D02*
X174189192Y-121542127D01*
X173284430Y-122113556D02*
X173379668Y-122161175D01*
X173379668Y-122161175D02*
X173570144Y-122161175D01*
X173570144Y-122161175D02*
X173665382Y-122113556D01*
X173665382Y-122113556D02*
X173713001Y-122065936D01*
X173713001Y-122065936D02*
X173760620Y-121970698D01*
X173760620Y-121970698D02*
X173760620Y-121684984D01*
X173760620Y-121684984D02*
X173713001Y-121589746D01*
X173713001Y-121589746D02*
X173665382Y-121542127D01*
X173665382Y-121542127D02*
X173570144Y-121494508D01*
X173570144Y-121494508D02*
X173379668Y-121494508D01*
X173379668Y-121494508D02*
X173284430Y-121542127D01*
X172855858Y-122161175D02*
X172855858Y-121494508D01*
X172855858Y-121684984D02*
X172808239Y-121589746D01*
X172808239Y-121589746D02*
X172760620Y-121542127D01*
X172760620Y-121542127D02*
X172665382Y-121494508D01*
X172665382Y-121494508D02*
X172570144Y-121494508D01*
X172236810Y-122161175D02*
X172236810Y-121494508D01*
X172236810Y-121161175D02*
X172284429Y-121208794D01*
X172284429Y-121208794D02*
X172236810Y-121256413D01*
X172236810Y-121256413D02*
X172189191Y-121208794D01*
X172189191Y-121208794D02*
X172236810Y-121161175D01*
X172236810Y-121161175D02*
X172236810Y-121256413D01*
X171760620Y-121494508D02*
X171760620Y-122494508D01*
X171760620Y-121542127D02*
X171665382Y-121494508D01*
X171665382Y-121494508D02*
X171474906Y-121494508D01*
X171474906Y-121494508D02*
X171379668Y-121542127D01*
X171379668Y-121542127D02*
X171332049Y-121589746D01*
X171332049Y-121589746D02*
X171284430Y-121684984D01*
X171284430Y-121684984D02*
X171284430Y-121970698D01*
X171284430Y-121970698D02*
X171332049Y-122065936D01*
X171332049Y-122065936D02*
X171379668Y-122113556D01*
X171379668Y-122113556D02*
X171474906Y-122161175D01*
X171474906Y-122161175D02*
X171665382Y-122161175D01*
X171665382Y-122161175D02*
X171760620Y-122113556D01*
X170998715Y-121494508D02*
X170617763Y-121494508D01*
X170855858Y-121161175D02*
X170855858Y-122018317D01*
X170855858Y-122018317D02*
X170808239Y-122113556D01*
X170808239Y-122113556D02*
X170713001Y-122161175D01*
X170713001Y-122161175D02*
X170617763Y-122161175D01*
X170284429Y-122161175D02*
X170284429Y-121494508D01*
X170284429Y-121161175D02*
X170332048Y-121208794D01*
X170332048Y-121208794D02*
X170284429Y-121256413D01*
X170284429Y-121256413D02*
X170236810Y-121208794D01*
X170236810Y-121208794D02*
X170284429Y-121161175D01*
X170284429Y-121161175D02*
X170284429Y-121256413D01*
X169665382Y-122161175D02*
X169760620Y-122113556D01*
X169760620Y-122113556D02*
X169808239Y-122065936D01*
X169808239Y-122065936D02*
X169855858Y-121970698D01*
X169855858Y-121970698D02*
X169855858Y-121684984D01*
X169855858Y-121684984D02*
X169808239Y-121589746D01*
X169808239Y-121589746D02*
X169760620Y-121542127D01*
X169760620Y-121542127D02*
X169665382Y-121494508D01*
X169665382Y-121494508D02*
X169522525Y-121494508D01*
X169522525Y-121494508D02*
X169427287Y-121542127D01*
X169427287Y-121542127D02*
X169379668Y-121589746D01*
X169379668Y-121589746D02*
X169332049Y-121684984D01*
X169332049Y-121684984D02*
X169332049Y-121970698D01*
X169332049Y-121970698D02*
X169379668Y-122065936D01*
X169379668Y-122065936D02*
X169427287Y-122113556D01*
X169427287Y-122113556D02*
X169522525Y-122161175D01*
X169522525Y-122161175D02*
X169665382Y-122161175D01*
X168903477Y-121494508D02*
X168903477Y-122161175D01*
X168903477Y-121589746D02*
X168855858Y-121542127D01*
X168855858Y-121542127D02*
X168760620Y-121494508D01*
X168760620Y-121494508D02*
X168617763Y-121494508D01*
X168617763Y-121494508D02*
X168522525Y-121542127D01*
X168522525Y-121542127D02*
X168474906Y-121637365D01*
X168474906Y-121637365D02*
X168474906Y-122161175D01*
X167998715Y-122065936D02*
X167951096Y-122113556D01*
X167951096Y-122113556D02*
X167998715Y-122161175D01*
X167998715Y-122161175D02*
X168046334Y-122113556D01*
X168046334Y-122113556D02*
X167998715Y-122065936D01*
X167998715Y-122065936D02*
X167998715Y-122161175D01*
X167998715Y-121542127D02*
X167951096Y-121589746D01*
X167951096Y-121589746D02*
X167998715Y-121637365D01*
X167998715Y-121637365D02*
X168046334Y-121589746D01*
X168046334Y-121589746D02*
X167998715Y-121542127D01*
X167998715Y-121542127D02*
X167998715Y-121637365D01*
X166808239Y-121875460D02*
X166332049Y-121875460D01*
X166903477Y-122161175D02*
X166570144Y-121161175D01*
X166570144Y-121161175D02*
X166236811Y-122161175D01*
X165903477Y-122161175D02*
X165903477Y-121494508D01*
X165903477Y-121684984D02*
X165855858Y-121589746D01*
X165855858Y-121589746D02*
X165808239Y-121542127D01*
X165808239Y-121542127D02*
X165713001Y-121494508D01*
X165713001Y-121494508D02*
X165617763Y-121494508D01*
X164855858Y-122161175D02*
X164855858Y-121161175D01*
X164855858Y-122113556D02*
X164951096Y-122161175D01*
X164951096Y-122161175D02*
X165141572Y-122161175D01*
X165141572Y-122161175D02*
X165236810Y-122113556D01*
X165236810Y-122113556D02*
X165284429Y-122065936D01*
X165284429Y-122065936D02*
X165332048Y-121970698D01*
X165332048Y-121970698D02*
X165332048Y-121684984D01*
X165332048Y-121684984D02*
X165284429Y-121589746D01*
X165284429Y-121589746D02*
X165236810Y-121542127D01*
X165236810Y-121542127D02*
X165141572Y-121494508D01*
X165141572Y-121494508D02*
X164951096Y-121494508D01*
X164951096Y-121494508D02*
X164855858Y-121542127D01*
X163951096Y-121494508D02*
X163951096Y-122161175D01*
X164379667Y-121494508D02*
X164379667Y-122018317D01*
X164379667Y-122018317D02*
X164332048Y-122113556D01*
X164332048Y-122113556D02*
X164236810Y-122161175D01*
X164236810Y-122161175D02*
X164093953Y-122161175D01*
X164093953Y-122161175D02*
X163998715Y-122113556D01*
X163998715Y-122113556D02*
X163951096Y-122065936D01*
X163474905Y-122161175D02*
X163474905Y-121494508D01*
X163474905Y-121161175D02*
X163522524Y-121208794D01*
X163522524Y-121208794D02*
X163474905Y-121256413D01*
X163474905Y-121256413D02*
X163427286Y-121208794D01*
X163427286Y-121208794D02*
X163474905Y-121161175D01*
X163474905Y-121161175D02*
X163474905Y-121256413D01*
X162998715Y-121494508D02*
X162998715Y-122161175D01*
X162998715Y-121589746D02*
X162951096Y-121542127D01*
X162951096Y-121542127D02*
X162855858Y-121494508D01*
X162855858Y-121494508D02*
X162713001Y-121494508D01*
X162713001Y-121494508D02*
X162617763Y-121542127D01*
X162617763Y-121542127D02*
X162570144Y-121637365D01*
X162570144Y-121637365D02*
X162570144Y-122161175D01*
X161951096Y-122161175D02*
X162046334Y-122113556D01*
X162046334Y-122113556D02*
X162093953Y-122065936D01*
X162093953Y-122065936D02*
X162141572Y-121970698D01*
X162141572Y-121970698D02*
X162141572Y-121684984D01*
X162141572Y-121684984D02*
X162093953Y-121589746D01*
X162093953Y-121589746D02*
X162046334Y-121542127D01*
X162046334Y-121542127D02*
X161951096Y-121494508D01*
X161951096Y-121494508D02*
X161808239Y-121494508D01*
X161808239Y-121494508D02*
X161713001Y-121542127D01*
X161713001Y-121542127D02*
X161665382Y-121589746D01*
X161665382Y-121589746D02*
X161617763Y-121684984D01*
X161617763Y-121684984D02*
X161617763Y-121970698D01*
X161617763Y-121970698D02*
X161665382Y-122065936D01*
X161665382Y-122065936D02*
X161713001Y-122113556D01*
X161713001Y-122113556D02*
X161808239Y-122161175D01*
X161808239Y-122161175D02*
X161951096Y-122161175D01*
X160427286Y-122161175D02*
X160427286Y-121161175D01*
X160427286Y-121161175D02*
X159855858Y-122161175D01*
X159855858Y-122161175D02*
X159855858Y-121161175D01*
X158951096Y-122161175D02*
X158951096Y-121637365D01*
X158951096Y-121637365D02*
X158998715Y-121542127D01*
X158998715Y-121542127D02*
X159093953Y-121494508D01*
X159093953Y-121494508D02*
X159284429Y-121494508D01*
X159284429Y-121494508D02*
X159379667Y-121542127D01*
X158951096Y-122113556D02*
X159046334Y-122161175D01*
X159046334Y-122161175D02*
X159284429Y-122161175D01*
X159284429Y-122161175D02*
X159379667Y-122113556D01*
X159379667Y-122113556D02*
X159427286Y-122018317D01*
X159427286Y-122018317D02*
X159427286Y-121923079D01*
X159427286Y-121923079D02*
X159379667Y-121827841D01*
X159379667Y-121827841D02*
X159284429Y-121780222D01*
X159284429Y-121780222D02*
X159046334Y-121780222D01*
X159046334Y-121780222D02*
X158951096Y-121732603D01*
X158474905Y-121494508D02*
X158474905Y-122161175D01*
X158474905Y-121589746D02*
X158427286Y-121542127D01*
X158427286Y-121542127D02*
X158332048Y-121494508D01*
X158332048Y-121494508D02*
X158189191Y-121494508D01*
X158189191Y-121494508D02*
X158093953Y-121542127D01*
X158093953Y-121542127D02*
X158046334Y-121637365D01*
X158046334Y-121637365D02*
X158046334Y-122161175D01*
X157427286Y-122161175D02*
X157522524Y-122113556D01*
X157522524Y-122113556D02*
X157570143Y-122065936D01*
X157570143Y-122065936D02*
X157617762Y-121970698D01*
X157617762Y-121970698D02*
X157617762Y-121684984D01*
X157617762Y-121684984D02*
X157570143Y-121589746D01*
X157570143Y-121589746D02*
X157522524Y-121542127D01*
X157522524Y-121542127D02*
X157427286Y-121494508D01*
X157427286Y-121494508D02*
X157284429Y-121494508D01*
X157284429Y-121494508D02*
X157189191Y-121542127D01*
X157189191Y-121542127D02*
X157141572Y-121589746D01*
X157141572Y-121589746D02*
X157093953Y-121684984D01*
X157093953Y-121684984D02*
X157093953Y-121970698D01*
X157093953Y-121970698D02*
X157141572Y-122065936D01*
X157141572Y-122065936D02*
X157189191Y-122113556D01*
X157189191Y-122113556D02*
X157284429Y-122161175D01*
X157284429Y-122161175D02*
X157427286Y-122161175D01*
X156665381Y-121780222D02*
X155903477Y-121780222D01*
X155427286Y-122161175D02*
X155427286Y-121161175D01*
X155427286Y-121542127D02*
X155332048Y-121494508D01*
X155332048Y-121494508D02*
X155141572Y-121494508D01*
X155141572Y-121494508D02*
X155046334Y-121542127D01*
X155046334Y-121542127D02*
X154998715Y-121589746D01*
X154998715Y-121589746D02*
X154951096Y-121684984D01*
X154951096Y-121684984D02*
X154951096Y-121970698D01*
X154951096Y-121970698D02*
X154998715Y-122065936D01*
X154998715Y-122065936D02*
X155046334Y-122113556D01*
X155046334Y-122113556D02*
X155141572Y-122161175D01*
X155141572Y-122161175D02*
X155332048Y-122161175D01*
X155332048Y-122161175D02*
X155427286Y-122113556D01*
X154093953Y-122161175D02*
X154093953Y-121637365D01*
X154093953Y-121637365D02*
X154141572Y-121542127D01*
X154141572Y-121542127D02*
X154236810Y-121494508D01*
X154236810Y-121494508D02*
X154427286Y-121494508D01*
X154427286Y-121494508D02*
X154522524Y-121542127D01*
X154093953Y-122113556D02*
X154189191Y-122161175D01*
X154189191Y-122161175D02*
X154427286Y-122161175D01*
X154427286Y-122161175D02*
X154522524Y-122113556D01*
X154522524Y-122113556D02*
X154570143Y-122018317D01*
X154570143Y-122018317D02*
X154570143Y-121923079D01*
X154570143Y-121923079D02*
X154522524Y-121827841D01*
X154522524Y-121827841D02*
X154427286Y-121780222D01*
X154427286Y-121780222D02*
X154189191Y-121780222D01*
X154189191Y-121780222D02*
X154093953Y-121732603D01*
X153665381Y-122113556D02*
X153570143Y-122161175D01*
X153570143Y-122161175D02*
X153379667Y-122161175D01*
X153379667Y-122161175D02*
X153284429Y-122113556D01*
X153284429Y-122113556D02*
X153236810Y-122018317D01*
X153236810Y-122018317D02*
X153236810Y-121970698D01*
X153236810Y-121970698D02*
X153284429Y-121875460D01*
X153284429Y-121875460D02*
X153379667Y-121827841D01*
X153379667Y-121827841D02*
X153522524Y-121827841D01*
X153522524Y-121827841D02*
X153617762Y-121780222D01*
X153617762Y-121780222D02*
X153665381Y-121684984D01*
X153665381Y-121684984D02*
X153665381Y-121637365D01*
X153665381Y-121637365D02*
X153617762Y-121542127D01*
X153617762Y-121542127D02*
X153522524Y-121494508D01*
X153522524Y-121494508D02*
X153379667Y-121494508D01*
X153379667Y-121494508D02*
X153284429Y-121542127D01*
X152427286Y-122113556D02*
X152522524Y-122161175D01*
X152522524Y-122161175D02*
X152713000Y-122161175D01*
X152713000Y-122161175D02*
X152808238Y-122113556D01*
X152808238Y-122113556D02*
X152855857Y-122018317D01*
X152855857Y-122018317D02*
X152855857Y-121637365D01*
X152855857Y-121637365D02*
X152808238Y-121542127D01*
X152808238Y-121542127D02*
X152713000Y-121494508D01*
X152713000Y-121494508D02*
X152522524Y-121494508D01*
X152522524Y-121494508D02*
X152427286Y-121542127D01*
X152427286Y-121542127D02*
X152379667Y-121637365D01*
X152379667Y-121637365D02*
X152379667Y-121732603D01*
X152379667Y-121732603D02*
X152855857Y-121827841D01*
X151522524Y-122161175D02*
X151522524Y-121161175D01*
X151522524Y-122113556D02*
X151617762Y-122161175D01*
X151617762Y-122161175D02*
X151808238Y-122161175D01*
X151808238Y-122161175D02*
X151903476Y-122113556D01*
X151903476Y-122113556D02*
X151951095Y-122065936D01*
X151951095Y-122065936D02*
X151998714Y-121970698D01*
X151998714Y-121970698D02*
X151998714Y-121684984D01*
X151998714Y-121684984D02*
X151951095Y-121589746D01*
X151951095Y-121589746D02*
X151903476Y-121542127D01*
X151903476Y-121542127D02*
X151808238Y-121494508D01*
X151808238Y-121494508D02*
X151617762Y-121494508D01*
X151617762Y-121494508D02*
X151522524Y-121542127D01*
X150284428Y-122161175D02*
X150284428Y-121161175D01*
X149855857Y-122161175D02*
X149855857Y-121637365D01*
X149855857Y-121637365D02*
X149903476Y-121542127D01*
X149903476Y-121542127D02*
X149998714Y-121494508D01*
X149998714Y-121494508D02*
X150141571Y-121494508D01*
X150141571Y-121494508D02*
X150236809Y-121542127D01*
X150236809Y-121542127D02*
X150284428Y-121589746D01*
X148951095Y-122161175D02*
X148951095Y-121637365D01*
X148951095Y-121637365D02*
X148998714Y-121542127D01*
X148998714Y-121542127D02*
X149093952Y-121494508D01*
X149093952Y-121494508D02*
X149284428Y-121494508D01*
X149284428Y-121494508D02*
X149379666Y-121542127D01*
X148951095Y-122113556D02*
X149046333Y-122161175D01*
X149046333Y-122161175D02*
X149284428Y-122161175D01*
X149284428Y-122161175D02*
X149379666Y-122113556D01*
X149379666Y-122113556D02*
X149427285Y-122018317D01*
X149427285Y-122018317D02*
X149427285Y-121923079D01*
X149427285Y-121923079D02*
X149379666Y-121827841D01*
X149379666Y-121827841D02*
X149284428Y-121780222D01*
X149284428Y-121780222D02*
X149046333Y-121780222D01*
X149046333Y-121780222D02*
X148951095Y-121732603D01*
X148474904Y-122161175D02*
X148474904Y-121494508D01*
X148474904Y-121684984D02*
X148427285Y-121589746D01*
X148427285Y-121589746D02*
X148379666Y-121542127D01*
X148379666Y-121542127D02*
X148284428Y-121494508D01*
X148284428Y-121494508D02*
X148189190Y-121494508D01*
X147427285Y-122161175D02*
X147427285Y-121161175D01*
X147427285Y-122113556D02*
X147522523Y-122161175D01*
X147522523Y-122161175D02*
X147712999Y-122161175D01*
X147712999Y-122161175D02*
X147808237Y-122113556D01*
X147808237Y-122113556D02*
X147855856Y-122065936D01*
X147855856Y-122065936D02*
X147903475Y-121970698D01*
X147903475Y-121970698D02*
X147903475Y-121684984D01*
X147903475Y-121684984D02*
X147855856Y-121589746D01*
X147855856Y-121589746D02*
X147808237Y-121542127D01*
X147808237Y-121542127D02*
X147712999Y-121494508D01*
X147712999Y-121494508D02*
X147522523Y-121494508D01*
X147522523Y-121494508D02*
X147427285Y-121542127D01*
X147046332Y-121494508D02*
X146855856Y-122161175D01*
X146855856Y-122161175D02*
X146665380Y-121684984D01*
X146665380Y-121684984D02*
X146474904Y-122161175D01*
X146474904Y-122161175D02*
X146284428Y-121494508D01*
X145474904Y-122161175D02*
X145474904Y-121637365D01*
X145474904Y-121637365D02*
X145522523Y-121542127D01*
X145522523Y-121542127D02*
X145617761Y-121494508D01*
X145617761Y-121494508D02*
X145808237Y-121494508D01*
X145808237Y-121494508D02*
X145903475Y-121542127D01*
X145474904Y-122113556D02*
X145570142Y-122161175D01*
X145570142Y-122161175D02*
X145808237Y-122161175D01*
X145808237Y-122161175D02*
X145903475Y-122113556D01*
X145903475Y-122113556D02*
X145951094Y-122018317D01*
X145951094Y-122018317D02*
X145951094Y-121923079D01*
X145951094Y-121923079D02*
X145903475Y-121827841D01*
X145903475Y-121827841D02*
X145808237Y-121780222D01*
X145808237Y-121780222D02*
X145570142Y-121780222D01*
X145570142Y-121780222D02*
X145474904Y-121732603D01*
X144998713Y-122161175D02*
X144998713Y-121494508D01*
X144998713Y-121684984D02*
X144951094Y-121589746D01*
X144951094Y-121589746D02*
X144903475Y-121542127D01*
X144903475Y-121542127D02*
X144808237Y-121494508D01*
X144808237Y-121494508D02*
X144712999Y-121494508D01*
X143998713Y-122113556D02*
X144093951Y-122161175D01*
X144093951Y-122161175D02*
X144284427Y-122161175D01*
X144284427Y-122161175D02*
X144379665Y-122113556D01*
X144379665Y-122113556D02*
X144427284Y-122018317D01*
X144427284Y-122018317D02*
X144427284Y-121637365D01*
X144427284Y-121637365D02*
X144379665Y-121542127D01*
X144379665Y-121542127D02*
X144284427Y-121494508D01*
X144284427Y-121494508D02*
X144093951Y-121494508D01*
X144093951Y-121494508D02*
X143998713Y-121542127D01*
X143998713Y-121542127D02*
X143951094Y-121637365D01*
X143951094Y-121637365D02*
X143951094Y-121732603D01*
X143951094Y-121732603D02*
X144427284Y-121827841D01*
X143522522Y-121780222D02*
X142760618Y-121780222D01*
X142427284Y-121494508D02*
X142046332Y-121494508D01*
X142284427Y-121161175D02*
X142284427Y-122018317D01*
X142284427Y-122018317D02*
X142236808Y-122113556D01*
X142236808Y-122113556D02*
X142141570Y-122161175D01*
X142141570Y-122161175D02*
X142046332Y-122161175D01*
X141712998Y-122161175D02*
X141712998Y-121494508D01*
X141712998Y-121684984D02*
X141665379Y-121589746D01*
X141665379Y-121589746D02*
X141617760Y-121542127D01*
X141617760Y-121542127D02*
X141522522Y-121494508D01*
X141522522Y-121494508D02*
X141427284Y-121494508D01*
X141093950Y-122161175D02*
X141093950Y-121494508D01*
X141093950Y-121161175D02*
X141141569Y-121208794D01*
X141141569Y-121208794D02*
X141093950Y-121256413D01*
X141093950Y-121256413D02*
X141046331Y-121208794D01*
X141046331Y-121208794D02*
X141093950Y-121161175D01*
X141093950Y-121161175D02*
X141093950Y-121256413D01*
X140189189Y-121494508D02*
X140189189Y-122304032D01*
X140189189Y-122304032D02*
X140236808Y-122399270D01*
X140236808Y-122399270D02*
X140284427Y-122446889D01*
X140284427Y-122446889D02*
X140379665Y-122494508D01*
X140379665Y-122494508D02*
X140522522Y-122494508D01*
X140522522Y-122494508D02*
X140617760Y-122446889D01*
X140189189Y-122113556D02*
X140284427Y-122161175D01*
X140284427Y-122161175D02*
X140474903Y-122161175D01*
X140474903Y-122161175D02*
X140570141Y-122113556D01*
X140570141Y-122113556D02*
X140617760Y-122065936D01*
X140617760Y-122065936D02*
X140665379Y-121970698D01*
X140665379Y-121970698D02*
X140665379Y-121684984D01*
X140665379Y-121684984D02*
X140617760Y-121589746D01*
X140617760Y-121589746D02*
X140570141Y-121542127D01*
X140570141Y-121542127D02*
X140474903Y-121494508D01*
X140474903Y-121494508D02*
X140284427Y-121494508D01*
X140284427Y-121494508D02*
X140189189Y-121542127D01*
X139284427Y-121494508D02*
X139284427Y-122304032D01*
X139284427Y-122304032D02*
X139332046Y-122399270D01*
X139332046Y-122399270D02*
X139379665Y-122446889D01*
X139379665Y-122446889D02*
X139474903Y-122494508D01*
X139474903Y-122494508D02*
X139617760Y-122494508D01*
X139617760Y-122494508D02*
X139712998Y-122446889D01*
X139284427Y-122113556D02*
X139379665Y-122161175D01*
X139379665Y-122161175D02*
X139570141Y-122161175D01*
X139570141Y-122161175D02*
X139665379Y-122113556D01*
X139665379Y-122113556D02*
X139712998Y-122065936D01*
X139712998Y-122065936D02*
X139760617Y-121970698D01*
X139760617Y-121970698D02*
X139760617Y-121684984D01*
X139760617Y-121684984D02*
X139712998Y-121589746D01*
X139712998Y-121589746D02*
X139665379Y-121542127D01*
X139665379Y-121542127D02*
X139570141Y-121494508D01*
X139570141Y-121494508D02*
X139379665Y-121494508D01*
X139379665Y-121494508D02*
X139284427Y-121542127D01*
X138427284Y-122113556D02*
X138522522Y-122161175D01*
X138522522Y-122161175D02*
X138712998Y-122161175D01*
X138712998Y-122161175D02*
X138808236Y-122113556D01*
X138808236Y-122113556D02*
X138855855Y-122018317D01*
X138855855Y-122018317D02*
X138855855Y-121637365D01*
X138855855Y-121637365D02*
X138808236Y-121542127D01*
X138808236Y-121542127D02*
X138712998Y-121494508D01*
X138712998Y-121494508D02*
X138522522Y-121494508D01*
X138522522Y-121494508D02*
X138427284Y-121542127D01*
X138427284Y-121542127D02*
X138379665Y-121637365D01*
X138379665Y-121637365D02*
X138379665Y-121732603D01*
X138379665Y-121732603D02*
X138855855Y-121827841D01*
X137951093Y-122161175D02*
X137951093Y-121494508D01*
X137951093Y-121684984D02*
X137903474Y-121589746D01*
X137903474Y-121589746D02*
X137855855Y-121542127D01*
X137855855Y-121542127D02*
X137760617Y-121494508D01*
X137760617Y-121494508D02*
X137665379Y-121494508D01*
X175951097Y-123723500D02*
X176046335Y-123771119D01*
X176046335Y-123771119D02*
X176236811Y-123771119D01*
X176236811Y-123771119D02*
X176332049Y-123723500D01*
X176332049Y-123723500D02*
X176379668Y-123675880D01*
X176379668Y-123675880D02*
X176427287Y-123580642D01*
X176427287Y-123580642D02*
X176427287Y-123294928D01*
X176427287Y-123294928D02*
X176379668Y-123199690D01*
X176379668Y-123199690D02*
X176332049Y-123152071D01*
X176332049Y-123152071D02*
X176236811Y-123104452D01*
X176236811Y-123104452D02*
X176046335Y-123104452D01*
X176046335Y-123104452D02*
X175951097Y-123152071D01*
X175522525Y-123771119D02*
X175522525Y-123104452D01*
X175522525Y-122771119D02*
X175570144Y-122818738D01*
X175570144Y-122818738D02*
X175522525Y-122866357D01*
X175522525Y-122866357D02*
X175474906Y-122818738D01*
X175474906Y-122818738D02*
X175522525Y-122771119D01*
X175522525Y-122771119D02*
X175522525Y-122866357D01*
X175046335Y-123771119D02*
X175046335Y-123104452D01*
X175046335Y-123294928D02*
X174998716Y-123199690D01*
X174998716Y-123199690D02*
X174951097Y-123152071D01*
X174951097Y-123152071D02*
X174855859Y-123104452D01*
X174855859Y-123104452D02*
X174760621Y-123104452D01*
X173998716Y-123723500D02*
X174093954Y-123771119D01*
X174093954Y-123771119D02*
X174284430Y-123771119D01*
X174284430Y-123771119D02*
X174379668Y-123723500D01*
X174379668Y-123723500D02*
X174427287Y-123675880D01*
X174427287Y-123675880D02*
X174474906Y-123580642D01*
X174474906Y-123580642D02*
X174474906Y-123294928D01*
X174474906Y-123294928D02*
X174427287Y-123199690D01*
X174427287Y-123199690D02*
X174379668Y-123152071D01*
X174379668Y-123152071D02*
X174284430Y-123104452D01*
X174284430Y-123104452D02*
X174093954Y-123104452D01*
X174093954Y-123104452D02*
X173998716Y-123152071D01*
X173141573Y-123104452D02*
X173141573Y-123771119D01*
X173570144Y-123104452D02*
X173570144Y-123628261D01*
X173570144Y-123628261D02*
X173522525Y-123723500D01*
X173522525Y-123723500D02*
X173427287Y-123771119D01*
X173427287Y-123771119D02*
X173284430Y-123771119D01*
X173284430Y-123771119D02*
X173189192Y-123723500D01*
X173189192Y-123723500D02*
X173141573Y-123675880D01*
X172665382Y-123771119D02*
X172665382Y-123104452D01*
X172665382Y-122771119D02*
X172713001Y-122818738D01*
X172713001Y-122818738D02*
X172665382Y-122866357D01*
X172665382Y-122866357D02*
X172617763Y-122818738D01*
X172617763Y-122818738D02*
X172665382Y-122771119D01*
X172665382Y-122771119D02*
X172665382Y-122866357D01*
X172332049Y-123104452D02*
X171951097Y-123104452D01*
X172189192Y-122771119D02*
X172189192Y-123628261D01*
X172189192Y-123628261D02*
X172141573Y-123723500D01*
X172141573Y-123723500D02*
X172046335Y-123771119D01*
X172046335Y-123771119D02*
X171951097Y-123771119D01*
X170998715Y-123104452D02*
X170617763Y-123104452D01*
X170855858Y-123771119D02*
X170855858Y-122913976D01*
X170855858Y-122913976D02*
X170808239Y-122818738D01*
X170808239Y-122818738D02*
X170713001Y-122771119D01*
X170713001Y-122771119D02*
X170617763Y-122771119D01*
X170141572Y-123771119D02*
X170236810Y-123723500D01*
X170236810Y-123723500D02*
X170284429Y-123675880D01*
X170284429Y-123675880D02*
X170332048Y-123580642D01*
X170332048Y-123580642D02*
X170332048Y-123294928D01*
X170332048Y-123294928D02*
X170284429Y-123199690D01*
X170284429Y-123199690D02*
X170236810Y-123152071D01*
X170236810Y-123152071D02*
X170141572Y-123104452D01*
X170141572Y-123104452D02*
X169998715Y-123104452D01*
X169998715Y-123104452D02*
X169903477Y-123152071D01*
X169903477Y-123152071D02*
X169855858Y-123199690D01*
X169855858Y-123199690D02*
X169808239Y-123294928D01*
X169808239Y-123294928D02*
X169808239Y-123580642D01*
X169808239Y-123580642D02*
X169855858Y-123675880D01*
X169855858Y-123675880D02*
X169903477Y-123723500D01*
X169903477Y-123723500D02*
X169998715Y-123771119D01*
X169998715Y-123771119D02*
X170141572Y-123771119D01*
X169379667Y-123771119D02*
X169379667Y-123104452D01*
X169379667Y-123294928D02*
X169332048Y-123199690D01*
X169332048Y-123199690D02*
X169284429Y-123152071D01*
X169284429Y-123152071D02*
X169189191Y-123104452D01*
X169189191Y-123104452D02*
X169093953Y-123104452D01*
X167522524Y-123771119D02*
X167998714Y-123771119D01*
X167998714Y-123771119D02*
X167998714Y-122771119D01*
X167189190Y-123771119D02*
X167189190Y-123104452D01*
X167189190Y-122771119D02*
X167236809Y-122818738D01*
X167236809Y-122818738D02*
X167189190Y-122866357D01*
X167189190Y-122866357D02*
X167141571Y-122818738D01*
X167141571Y-122818738D02*
X167189190Y-122771119D01*
X167189190Y-122771119D02*
X167189190Y-122866357D01*
X166713000Y-123771119D02*
X166713000Y-122771119D01*
X166713000Y-122771119D02*
X166474905Y-122771119D01*
X166474905Y-122771119D02*
X166332048Y-122818738D01*
X166332048Y-122818738D02*
X166236810Y-122913976D01*
X166236810Y-122913976D02*
X166189191Y-123009214D01*
X166189191Y-123009214D02*
X166141572Y-123199690D01*
X166141572Y-123199690D02*
X166141572Y-123342547D01*
X166141572Y-123342547D02*
X166189191Y-123533023D01*
X166189191Y-123533023D02*
X166236810Y-123628261D01*
X166236810Y-123628261D02*
X166332048Y-123723500D01*
X166332048Y-123723500D02*
X166474905Y-123771119D01*
X166474905Y-123771119D02*
X166713000Y-123771119D01*
X165760619Y-123485404D02*
X165284429Y-123485404D01*
X165855857Y-123771119D02*
X165522524Y-122771119D01*
X165522524Y-122771119D02*
X165189191Y-123771119D01*
X164284429Y-123771119D02*
X164617762Y-123294928D01*
X164855857Y-123771119D02*
X164855857Y-122771119D01*
X164855857Y-122771119D02*
X164474905Y-122771119D01*
X164474905Y-122771119D02*
X164379667Y-122818738D01*
X164379667Y-122818738D02*
X164332048Y-122866357D01*
X164332048Y-122866357D02*
X164284429Y-122961595D01*
X164284429Y-122961595D02*
X164284429Y-123104452D01*
X164284429Y-123104452D02*
X164332048Y-123199690D01*
X164332048Y-123199690D02*
X164379667Y-123247309D01*
X164379667Y-123247309D02*
X164474905Y-123294928D01*
X164474905Y-123294928D02*
X164855857Y-123294928D01*
X162665381Y-123771119D02*
X162665381Y-123247309D01*
X162665381Y-123247309D02*
X162713000Y-123152071D01*
X162713000Y-123152071D02*
X162808238Y-123104452D01*
X162808238Y-123104452D02*
X162998714Y-123104452D01*
X162998714Y-123104452D02*
X163093952Y-123152071D01*
X162665381Y-123723500D02*
X162760619Y-123771119D01*
X162760619Y-123771119D02*
X162998714Y-123771119D01*
X162998714Y-123771119D02*
X163093952Y-123723500D01*
X163093952Y-123723500D02*
X163141571Y-123628261D01*
X163141571Y-123628261D02*
X163141571Y-123533023D01*
X163141571Y-123533023D02*
X163093952Y-123437785D01*
X163093952Y-123437785D02*
X162998714Y-123390166D01*
X162998714Y-123390166D02*
X162760619Y-123390166D01*
X162760619Y-123390166D02*
X162665381Y-123342547D01*
X162189190Y-123104452D02*
X162189190Y-123771119D01*
X162189190Y-123199690D02*
X162141571Y-123152071D01*
X162141571Y-123152071D02*
X162046333Y-123104452D01*
X162046333Y-123104452D02*
X161903476Y-123104452D01*
X161903476Y-123104452D02*
X161808238Y-123152071D01*
X161808238Y-123152071D02*
X161760619Y-123247309D01*
X161760619Y-123247309D02*
X161760619Y-123771119D01*
X160855857Y-123771119D02*
X160855857Y-122771119D01*
X160855857Y-123723500D02*
X160951095Y-123771119D01*
X160951095Y-123771119D02*
X161141571Y-123771119D01*
X161141571Y-123771119D02*
X161236809Y-123723500D01*
X161236809Y-123723500D02*
X161284428Y-123675880D01*
X161284428Y-123675880D02*
X161332047Y-123580642D01*
X161332047Y-123580642D02*
X161332047Y-123294928D01*
X161332047Y-123294928D02*
X161284428Y-123199690D01*
X161284428Y-123199690D02*
X161236809Y-123152071D01*
X161236809Y-123152071D02*
X161141571Y-123104452D01*
X161141571Y-123104452D02*
X160951095Y-123104452D01*
X160951095Y-123104452D02*
X160855857Y-123152071D01*
X159712999Y-122771119D02*
X159046333Y-122771119D01*
X159046333Y-122771119D02*
X159474904Y-123771119D01*
X157474904Y-123723500D02*
X157570142Y-123771119D01*
X157570142Y-123771119D02*
X157760618Y-123771119D01*
X157760618Y-123771119D02*
X157855856Y-123723500D01*
X157855856Y-123723500D02*
X157903475Y-123675880D01*
X157903475Y-123675880D02*
X157951094Y-123580642D01*
X157951094Y-123580642D02*
X157951094Y-123294928D01*
X157951094Y-123294928D02*
X157903475Y-123199690D01*
X157903475Y-123199690D02*
X157855856Y-123152071D01*
X157855856Y-123152071D02*
X157760618Y-123104452D01*
X157760618Y-123104452D02*
X157570142Y-123104452D01*
X157570142Y-123104452D02*
X157474904Y-123152071D01*
X156617761Y-123771119D02*
X156617761Y-123247309D01*
X156617761Y-123247309D02*
X156665380Y-123152071D01*
X156665380Y-123152071D02*
X156760618Y-123104452D01*
X156760618Y-123104452D02*
X156951094Y-123104452D01*
X156951094Y-123104452D02*
X157046332Y-123152071D01*
X156617761Y-123723500D02*
X156712999Y-123771119D01*
X156712999Y-123771119D02*
X156951094Y-123771119D01*
X156951094Y-123771119D02*
X157046332Y-123723500D01*
X157046332Y-123723500D02*
X157093951Y-123628261D01*
X157093951Y-123628261D02*
X157093951Y-123533023D01*
X157093951Y-123533023D02*
X157046332Y-123437785D01*
X157046332Y-123437785D02*
X156951094Y-123390166D01*
X156951094Y-123390166D02*
X156712999Y-123390166D01*
X156712999Y-123390166D02*
X156617761Y-123342547D01*
X156141570Y-123771119D02*
X156141570Y-123104452D01*
X156141570Y-123199690D02*
X156093951Y-123152071D01*
X156093951Y-123152071D02*
X155998713Y-123104452D01*
X155998713Y-123104452D02*
X155855856Y-123104452D01*
X155855856Y-123104452D02*
X155760618Y-123152071D01*
X155760618Y-123152071D02*
X155712999Y-123247309D01*
X155712999Y-123247309D02*
X155712999Y-123771119D01*
X155712999Y-123247309D02*
X155665380Y-123152071D01*
X155665380Y-123152071D02*
X155570142Y-123104452D01*
X155570142Y-123104452D02*
X155427285Y-123104452D01*
X155427285Y-123104452D02*
X155332046Y-123152071D01*
X155332046Y-123152071D02*
X155284427Y-123247309D01*
X155284427Y-123247309D02*
X155284427Y-123771119D01*
X154427285Y-123723500D02*
X154522523Y-123771119D01*
X154522523Y-123771119D02*
X154712999Y-123771119D01*
X154712999Y-123771119D02*
X154808237Y-123723500D01*
X154808237Y-123723500D02*
X154855856Y-123628261D01*
X154855856Y-123628261D02*
X154855856Y-123247309D01*
X154855856Y-123247309D02*
X154808237Y-123152071D01*
X154808237Y-123152071D02*
X154712999Y-123104452D01*
X154712999Y-123104452D02*
X154522523Y-123104452D01*
X154522523Y-123104452D02*
X154427285Y-123152071D01*
X154427285Y-123152071D02*
X154379666Y-123247309D01*
X154379666Y-123247309D02*
X154379666Y-123342547D01*
X154379666Y-123342547D02*
X154855856Y-123437785D01*
X153951094Y-123771119D02*
X153951094Y-123104452D01*
X153951094Y-123294928D02*
X153903475Y-123199690D01*
X153903475Y-123199690D02*
X153855856Y-123152071D01*
X153855856Y-123152071D02*
X153760618Y-123104452D01*
X153760618Y-123104452D02*
X153665380Y-123104452D01*
X152903475Y-123771119D02*
X152903475Y-123247309D01*
X152903475Y-123247309D02*
X152951094Y-123152071D01*
X152951094Y-123152071D02*
X153046332Y-123104452D01*
X153046332Y-123104452D02*
X153236808Y-123104452D01*
X153236808Y-123104452D02*
X153332046Y-123152071D01*
X152903475Y-123723500D02*
X152998713Y-123771119D01*
X152998713Y-123771119D02*
X153236808Y-123771119D01*
X153236808Y-123771119D02*
X153332046Y-123723500D01*
X153332046Y-123723500D02*
X153379665Y-123628261D01*
X153379665Y-123628261D02*
X153379665Y-123533023D01*
X153379665Y-123533023D02*
X153332046Y-123437785D01*
X153332046Y-123437785D02*
X153236808Y-123390166D01*
X153236808Y-123390166D02*
X152998713Y-123390166D01*
X152998713Y-123390166D02*
X152903475Y-123342547D01*
X152474903Y-123723500D02*
X152379665Y-123771119D01*
X152379665Y-123771119D02*
X152189189Y-123771119D01*
X152189189Y-123771119D02*
X152093951Y-123723500D01*
X152093951Y-123723500D02*
X152046332Y-123628261D01*
X152046332Y-123628261D02*
X152046332Y-123580642D01*
X152046332Y-123580642D02*
X152093951Y-123485404D01*
X152093951Y-123485404D02*
X152189189Y-123437785D01*
X152189189Y-123437785D02*
X152332046Y-123437785D01*
X152332046Y-123437785D02*
X152427284Y-123390166D01*
X152427284Y-123390166D02*
X152474903Y-123294928D01*
X152474903Y-123294928D02*
X152474903Y-123247309D01*
X152474903Y-123247309D02*
X152427284Y-123152071D01*
X152427284Y-123152071D02*
X152332046Y-123104452D01*
X152332046Y-123104452D02*
X152189189Y-123104452D01*
X152189189Y-123104452D02*
X152093951Y-123152071D01*
D11*
%TO.C,REF\u002A\u002A*%
X157355406Y-67774949D02*
X157381127Y-67790647D01*
X157407778Y-67812227D01*
X157407778Y-68459684D01*
X157381127Y-68481264D01*
X157349767Y-68498739D01*
X157313966Y-68499575D01*
X157282528Y-68479082D01*
X157278652Y-68474416D01*
X157273186Y-68464949D01*
X157268979Y-68451267D01*
X157265867Y-68430748D01*
X157263687Y-68400768D01*
X157262276Y-68358704D01*
X157261471Y-68301932D01*
X157261107Y-68227830D01*
X157261022Y-68133773D01*
X157261022Y-67812227D01*
X157287673Y-67790647D01*
X157311386Y-67775877D01*
X157334400Y-67769067D01*
X157355406Y-67774949D01*
G36*
X157355406Y-67774949D02*
G01*
X157381127Y-67790647D01*
X157407778Y-67812227D01*
X157407778Y-68459684D01*
X157381127Y-68481264D01*
X157349767Y-68498739D01*
X157313966Y-68499575D01*
X157282528Y-68479082D01*
X157278652Y-68474416D01*
X157273186Y-68464949D01*
X157268979Y-68451267D01*
X157265867Y-68430748D01*
X157263687Y-68400768D01*
X157262276Y-68358704D01*
X157261471Y-68301932D01*
X157261107Y-68227830D01*
X157261022Y-68133773D01*
X157261022Y-67812227D01*
X157287673Y-67790647D01*
X157311386Y-67775877D01*
X157334400Y-67769067D01*
X157355406Y-67774949D01*
G37*
X164486137Y-67773463D02*
X164520291Y-67796776D01*
X164548000Y-67824485D01*
X164548000Y-68137537D01*
X164547959Y-68221567D01*
X164547701Y-68295789D01*
X164547030Y-68352541D01*
X164545752Y-68394512D01*
X164543673Y-68424389D01*
X164540599Y-68444861D01*
X164536334Y-68458614D01*
X164530684Y-68468337D01*
X164523455Y-68476717D01*
X164491991Y-68498181D01*
X164456826Y-68499947D01*
X164423822Y-68480267D01*
X164418516Y-68474398D01*
X164413066Y-68465314D01*
X164408900Y-68451973D01*
X164405846Y-68431757D01*
X164403732Y-68402049D01*
X164402386Y-68360232D01*
X164401638Y-68303689D01*
X164401314Y-68229802D01*
X164401245Y-68135956D01*
X164401284Y-68060294D01*
X164401539Y-67982385D01*
X164402183Y-67922375D01*
X164403387Y-67877648D01*
X164405324Y-67845585D01*
X164408164Y-67823571D01*
X164412079Y-67808987D01*
X164417242Y-67799218D01*
X164423822Y-67791645D01*
X164453006Y-67772623D01*
X164486137Y-67773463D01*
G36*
X164486137Y-67773463D02*
G01*
X164520291Y-67796776D01*
X164548000Y-67824485D01*
X164548000Y-68137537D01*
X164547959Y-68221567D01*
X164547701Y-68295789D01*
X164547030Y-68352541D01*
X164545752Y-68394512D01*
X164543673Y-68424389D01*
X164540599Y-68444861D01*
X164536334Y-68458614D01*
X164530684Y-68468337D01*
X164523455Y-68476717D01*
X164491991Y-68498181D01*
X164456826Y-68499947D01*
X164423822Y-68480267D01*
X164418516Y-68474398D01*
X164413066Y-68465314D01*
X164408900Y-68451973D01*
X164405846Y-68431757D01*
X164403732Y-68402049D01*
X164402386Y-68360232D01*
X164401638Y-68303689D01*
X164401314Y-68229802D01*
X164401245Y-68135956D01*
X164401284Y-68060294D01*
X164401539Y-67982385D01*
X164402183Y-67922375D01*
X164403387Y-67877648D01*
X164405324Y-67845585D01*
X164408164Y-67823571D01*
X164412079Y-67808987D01*
X164417242Y-67799218D01*
X164423822Y-67791645D01*
X164453006Y-67772623D01*
X164486137Y-67773463D01*
G37*
X163954562Y-62532850D02*
X164037313Y-62560053D01*
X164112406Y-62605484D01*
X164184298Y-62671302D01*
X164222846Y-62715567D01*
X164262256Y-62773961D01*
X164287446Y-62834586D01*
X164300861Y-62903865D01*
X164304948Y-62988222D01*
X164304669Y-63034307D01*
X164302460Y-63075450D01*
X164296894Y-63107582D01*
X164286586Y-63138122D01*
X164270148Y-63174489D01*
X164256200Y-63201728D01*
X164197665Y-63287429D01*
X164125619Y-63356617D01*
X164041947Y-63407741D01*
X163948531Y-63439250D01*
X163915434Y-63446225D01*
X163874960Y-63453094D01*
X163841999Y-63454919D01*
X163807698Y-63451947D01*
X163763200Y-63444426D01*
X163711934Y-63432002D01*
X163621434Y-63394112D01*
X163542345Y-63339836D01*
X163476528Y-63271770D01*
X163425840Y-63192511D01*
X163392140Y-63104654D01*
X163377286Y-63010795D01*
X163383136Y-62913530D01*
X163409399Y-62817220D01*
X163454418Y-62728494D01*
X163515373Y-62653419D01*
X163590184Y-62593641D01*
X163676768Y-62550809D01*
X163773043Y-62526571D01*
X163876928Y-62522576D01*
X163954562Y-62532850D01*
G36*
X163954562Y-62532850D02*
G01*
X164037313Y-62560053D01*
X164112406Y-62605484D01*
X164184298Y-62671302D01*
X164222846Y-62715567D01*
X164262256Y-62773961D01*
X164287446Y-62834586D01*
X164300861Y-62903865D01*
X164304948Y-62988222D01*
X164304669Y-63034307D01*
X164302460Y-63075450D01*
X164296894Y-63107582D01*
X164286586Y-63138122D01*
X164270148Y-63174489D01*
X164256200Y-63201728D01*
X164197665Y-63287429D01*
X164125619Y-63356617D01*
X164041947Y-63407741D01*
X163948531Y-63439250D01*
X163915434Y-63446225D01*
X163874960Y-63453094D01*
X163841999Y-63454919D01*
X163807698Y-63451947D01*
X163763200Y-63444426D01*
X163711934Y-63432002D01*
X163621434Y-63394112D01*
X163542345Y-63339836D01*
X163476528Y-63271770D01*
X163425840Y-63192511D01*
X163392140Y-63104654D01*
X163377286Y-63010795D01*
X163383136Y-62913530D01*
X163409399Y-62817220D01*
X163454418Y-62728494D01*
X163515373Y-62653419D01*
X163590184Y-62593641D01*
X163676768Y-62550809D01*
X163773043Y-62526571D01*
X163876928Y-62522576D01*
X163954562Y-62532850D01*
G37*
X156655767Y-67769068D02*
X156749890Y-67769158D01*
X156824405Y-67769498D01*
X156881811Y-67770239D01*
X156924611Y-67771535D01*
X156955304Y-67773537D01*
X156976391Y-67776396D01*
X156990373Y-67780266D01*
X156999750Y-67785298D01*
X157007022Y-67791645D01*
X157025828Y-67824362D01*
X157027275Y-67861939D01*
X157010917Y-67895178D01*
X157009557Y-67896631D01*
X156998354Y-67904992D01*
X156981252Y-67910547D01*
X156954082Y-67913840D01*
X156912678Y-67915418D01*
X156852873Y-67915822D01*
X156713511Y-67915822D01*
X156713511Y-68179589D01*
X156713436Y-68255417D01*
X156713028Y-68322083D01*
X156712046Y-68371867D01*
X156710250Y-68407784D01*
X156707399Y-68432850D01*
X156703253Y-68450081D01*
X156697571Y-68462492D01*
X156690114Y-68473100D01*
X156687824Y-68475906D01*
X156656646Y-68498548D01*
X156622266Y-68500112D01*
X156589334Y-68480267D01*
X156582355Y-68472191D01*
X156576883Y-68461593D01*
X156572863Y-68445749D01*
X156570072Y-68421773D01*
X156568288Y-68386774D01*
X156567289Y-68337864D01*
X156566852Y-68272154D01*
X156566756Y-68186756D01*
X156566756Y-67915822D01*
X156420820Y-67915822D01*
X156409720Y-67915821D01*
X156353202Y-67915596D01*
X156314358Y-67914457D01*
X156288965Y-67911657D01*
X156272804Y-67906450D01*
X156261652Y-67898089D01*
X156251289Y-67885826D01*
X156235441Y-67855138D01*
X156238543Y-67821358D01*
X156264187Y-67788822D01*
X156269129Y-67785105D01*
X156279338Y-67780269D01*
X156294764Y-67776506D01*
X156317886Y-67773683D01*
X156351183Y-67771670D01*
X156397137Y-67770333D01*
X156458228Y-67769542D01*
X156536935Y-67769163D01*
X156635740Y-67769067D01*
X156655767Y-67769068D01*
G36*
X156655767Y-67769068D02*
G01*
X156749890Y-67769158D01*
X156824405Y-67769498D01*
X156881811Y-67770239D01*
X156924611Y-67771535D01*
X156955304Y-67773537D01*
X156976391Y-67776396D01*
X156990373Y-67780266D01*
X156999750Y-67785298D01*
X157007022Y-67791645D01*
X157025828Y-67824362D01*
X157027275Y-67861939D01*
X157010917Y-67895178D01*
X157009557Y-67896631D01*
X156998354Y-67904992D01*
X156981252Y-67910547D01*
X156954082Y-67913840D01*
X156912678Y-67915418D01*
X156852873Y-67915822D01*
X156713511Y-67915822D01*
X156713511Y-68179589D01*
X156713436Y-68255417D01*
X156713028Y-68322083D01*
X156712046Y-68371867D01*
X156710250Y-68407784D01*
X156707399Y-68432850D01*
X156703253Y-68450081D01*
X156697571Y-68462492D01*
X156690114Y-68473100D01*
X156687824Y-68475906D01*
X156656646Y-68498548D01*
X156622266Y-68500112D01*
X156589334Y-68480267D01*
X156582355Y-68472191D01*
X156576883Y-68461593D01*
X156572863Y-68445749D01*
X156570072Y-68421773D01*
X156568288Y-68386774D01*
X156567289Y-68337864D01*
X156566852Y-68272154D01*
X156566756Y-68186756D01*
X156566756Y-67915822D01*
X156420820Y-67915822D01*
X156409720Y-67915821D01*
X156353202Y-67915596D01*
X156314358Y-67914457D01*
X156288965Y-67911657D01*
X156272804Y-67906450D01*
X156261652Y-67898089D01*
X156251289Y-67885826D01*
X156235441Y-67855138D01*
X156238543Y-67821358D01*
X156264187Y-67788822D01*
X156269129Y-67785105D01*
X156279338Y-67780269D01*
X156294764Y-67776506D01*
X156317886Y-67773683D01*
X156351183Y-67771670D01*
X156397137Y-67770333D01*
X156458228Y-67769542D01*
X156536935Y-67769163D01*
X156635740Y-67769067D01*
X156655767Y-67769068D01*
G37*
X155979734Y-67791645D02*
X155985366Y-67797835D01*
X155990456Y-67806041D01*
X155994543Y-67817817D01*
X155997721Y-67835276D01*
X156000087Y-67860530D01*
X156001738Y-67895690D01*
X156002769Y-67942869D01*
X156003277Y-68004177D01*
X156003359Y-68081727D01*
X156003109Y-68177631D01*
X156002625Y-68294000D01*
X156002557Y-68308175D01*
X156001971Y-68369937D01*
X156000648Y-68413620D01*
X155998103Y-68443001D01*
X155993848Y-68461855D01*
X155987396Y-68473959D01*
X155978262Y-68483089D01*
X155944804Y-68500506D01*
X155909856Y-68497604D01*
X155878953Y-68473100D01*
X155869944Y-68459897D01*
X155862492Y-68441361D01*
X155858124Y-68415333D01*
X155856069Y-68376787D01*
X155855556Y-68320700D01*
X155855556Y-68198045D01*
X155358845Y-68198045D01*
X155358845Y-68332871D01*
X155358772Y-68368662D01*
X155358009Y-68414992D01*
X155355833Y-68445526D01*
X155351536Y-68464557D01*
X155344412Y-68476374D01*
X155333755Y-68485271D01*
X155301504Y-68500341D01*
X155266217Y-68497673D01*
X155235486Y-68473100D01*
X155230831Y-68466845D01*
X155224895Y-68456321D01*
X155220364Y-68442391D01*
X155217048Y-68422317D01*
X155214759Y-68393360D01*
X155213308Y-68352780D01*
X155212505Y-68297840D01*
X155212162Y-68225799D01*
X155212089Y-68133920D01*
X155212089Y-67824485D01*
X155239798Y-67796776D01*
X155271177Y-67774533D01*
X155304406Y-67771844D01*
X155336267Y-67791645D01*
X155344553Y-67801415D01*
X155351965Y-67817307D01*
X155356302Y-67841275D01*
X155358338Y-67878148D01*
X155358845Y-67932756D01*
X155358845Y-68051289D01*
X155855556Y-68051289D01*
X155855556Y-67935776D01*
X155855994Y-67884078D01*
X155857958Y-67849554D01*
X155862474Y-67826978D01*
X155870567Y-67811126D01*
X155883265Y-67796776D01*
X155914643Y-67774533D01*
X155947872Y-67771844D01*
X155979734Y-67791645D01*
G36*
X155979734Y-67791645D02*
G01*
X155985366Y-67797835D01*
X155990456Y-67806041D01*
X155994543Y-67817817D01*
X155997721Y-67835276D01*
X156000087Y-67860530D01*
X156001738Y-67895690D01*
X156002769Y-67942869D01*
X156003277Y-68004177D01*
X156003359Y-68081727D01*
X156003109Y-68177631D01*
X156002625Y-68294000D01*
X156002557Y-68308175D01*
X156001971Y-68369937D01*
X156000648Y-68413620D01*
X155998103Y-68443001D01*
X155993848Y-68461855D01*
X155987396Y-68473959D01*
X155978262Y-68483089D01*
X155944804Y-68500506D01*
X155909856Y-68497604D01*
X155878953Y-68473100D01*
X155869944Y-68459897D01*
X155862492Y-68441361D01*
X155858124Y-68415333D01*
X155856069Y-68376787D01*
X155855556Y-68320700D01*
X155855556Y-68198045D01*
X155358845Y-68198045D01*
X155358845Y-68332871D01*
X155358772Y-68368662D01*
X155358009Y-68414992D01*
X155355833Y-68445526D01*
X155351536Y-68464557D01*
X155344412Y-68476374D01*
X155333755Y-68485271D01*
X155301504Y-68500341D01*
X155266217Y-68497673D01*
X155235486Y-68473100D01*
X155230831Y-68466845D01*
X155224895Y-68456321D01*
X155220364Y-68442391D01*
X155217048Y-68422317D01*
X155214759Y-68393360D01*
X155213308Y-68352780D01*
X155212505Y-68297840D01*
X155212162Y-68225799D01*
X155212089Y-68133920D01*
X155212089Y-67824485D01*
X155239798Y-67796776D01*
X155271177Y-67774533D01*
X155304406Y-67771844D01*
X155336267Y-67791645D01*
X155344553Y-67801415D01*
X155351965Y-67817307D01*
X155356302Y-67841275D01*
X155358338Y-67878148D01*
X155358845Y-67932756D01*
X155358845Y-68051289D01*
X155855556Y-68051289D01*
X155855556Y-67935776D01*
X155855994Y-67884078D01*
X155857958Y-67849554D01*
X155862474Y-67826978D01*
X155870567Y-67811126D01*
X155883265Y-67796776D01*
X155914643Y-67774533D01*
X155947872Y-67771844D01*
X155979734Y-67791645D01*
G37*
X160685133Y-68380396D02*
X160683163Y-68413175D01*
X160680235Y-68436095D01*
X160676158Y-68451897D01*
X160670743Y-68463319D01*
X160663803Y-68473100D01*
X160640406Y-68502845D01*
X160474714Y-68502251D01*
X160439918Y-68501953D01*
X160341435Y-68498522D01*
X160260473Y-68490839D01*
X160193379Y-68478282D01*
X160136496Y-68460227D01*
X160086169Y-68436052D01*
X160082810Y-68434135D01*
X160024998Y-68397417D01*
X159982644Y-68360451D01*
X159949828Y-68316966D01*
X159920628Y-68260689D01*
X159916346Y-68251073D01*
X159893769Y-68187887D01*
X159888034Y-68142333D01*
X160037279Y-68142333D01*
X160042892Y-68167061D01*
X160048618Y-68182939D01*
X160081548Y-68242847D01*
X160128886Y-68288600D01*
X160192652Y-68321736D01*
X160274861Y-68343790D01*
X160277655Y-68344292D01*
X160323940Y-68350255D01*
X160380336Y-68354483D01*
X160435274Y-68356089D01*
X160529156Y-68356089D01*
X160529156Y-67915822D01*
X160441667Y-67916270D01*
X160374747Y-67918746D01*
X160282349Y-67929998D01*
X160203034Y-67949537D01*
X160141060Y-67976511D01*
X160110120Y-67997240D01*
X160082000Y-68027006D01*
X160058660Y-68069434D01*
X160051533Y-68085400D01*
X160039709Y-68117902D01*
X160037279Y-68142333D01*
X159888034Y-68142333D01*
X159886797Y-68132509D01*
X159895399Y-68077483D01*
X159919541Y-68015351D01*
X159920337Y-68013658D01*
X159960788Y-67944236D01*
X160011473Y-67887638D01*
X160074198Y-67843070D01*
X160150774Y-67809741D01*
X160243009Y-67786861D01*
X160352712Y-67773636D01*
X160481691Y-67769275D01*
X160485263Y-67769270D01*
X160545283Y-67769410D01*
X160587214Y-67770446D01*
X160615328Y-67773040D01*
X160633897Y-67777853D01*
X160647194Y-67785544D01*
X160659491Y-67796776D01*
X160687200Y-67824485D01*
X160687200Y-68133920D01*
X160687175Y-68195526D01*
X160686950Y-68274311D01*
X160686332Y-68335021D01*
X160685775Y-68356089D01*
X160685133Y-68380396D01*
G36*
X160685133Y-68380396D02*
G01*
X160683163Y-68413175D01*
X160680235Y-68436095D01*
X160676158Y-68451897D01*
X160670743Y-68463319D01*
X160663803Y-68473100D01*
X160640406Y-68502845D01*
X160474714Y-68502251D01*
X160439918Y-68501953D01*
X160341435Y-68498522D01*
X160260473Y-68490839D01*
X160193379Y-68478282D01*
X160136496Y-68460227D01*
X160086169Y-68436052D01*
X160082810Y-68434135D01*
X160024998Y-68397417D01*
X159982644Y-68360451D01*
X159949828Y-68316966D01*
X159920628Y-68260689D01*
X159916346Y-68251073D01*
X159893769Y-68187887D01*
X159888034Y-68142333D01*
X160037279Y-68142333D01*
X160042892Y-68167061D01*
X160048618Y-68182939D01*
X160081548Y-68242847D01*
X160128886Y-68288600D01*
X160192652Y-68321736D01*
X160274861Y-68343790D01*
X160277655Y-68344292D01*
X160323940Y-68350255D01*
X160380336Y-68354483D01*
X160435274Y-68356089D01*
X160529156Y-68356089D01*
X160529156Y-67915822D01*
X160441667Y-67916270D01*
X160374747Y-67918746D01*
X160282349Y-67929998D01*
X160203034Y-67949537D01*
X160141060Y-67976511D01*
X160110120Y-67997240D01*
X160082000Y-68027006D01*
X160058660Y-68069434D01*
X160051533Y-68085400D01*
X160039709Y-68117902D01*
X160037279Y-68142333D01*
X159888034Y-68142333D01*
X159886797Y-68132509D01*
X159895399Y-68077483D01*
X159919541Y-68015351D01*
X159920337Y-68013658D01*
X159960788Y-67944236D01*
X160011473Y-67887638D01*
X160074198Y-67843070D01*
X160150774Y-67809741D01*
X160243009Y-67786861D01*
X160352712Y-67773636D01*
X160481691Y-67769275D01*
X160485263Y-67769270D01*
X160545283Y-67769410D01*
X160587214Y-67770446D01*
X160615328Y-67773040D01*
X160633897Y-67777853D01*
X160647194Y-67785544D01*
X160659491Y-67796776D01*
X160687200Y-67824485D01*
X160687200Y-68133920D01*
X160687175Y-68195526D01*
X160686950Y-68274311D01*
X160686332Y-68335021D01*
X160685775Y-68356089D01*
X160685133Y-68380396D01*
G37*
X167776817Y-67954427D02*
X167776870Y-68035041D01*
X167776622Y-68135956D01*
X167776583Y-68211617D01*
X167776328Y-68289526D01*
X167775684Y-68349536D01*
X167774480Y-68394264D01*
X167772543Y-68426326D01*
X167769703Y-68448340D01*
X167765788Y-68462924D01*
X167760626Y-68472694D01*
X167754045Y-68480267D01*
X167747077Y-68486501D01*
X167734079Y-68493801D01*
X167714931Y-68498554D01*
X167685528Y-68501292D01*
X167641762Y-68502545D01*
X167579528Y-68502845D01*
X167530582Y-68502469D01*
X167423722Y-68498041D01*
X167334494Y-68487953D01*
X167259696Y-68471365D01*
X167196125Y-68447435D01*
X167140579Y-68415321D01*
X167089854Y-68374182D01*
X167083866Y-68368330D01*
X167046999Y-68319821D01*
X167015899Y-68259013D01*
X166994417Y-68194769D01*
X166989136Y-68156026D01*
X167136353Y-68156026D01*
X167154635Y-68206961D01*
X167184305Y-68252878D01*
X167231002Y-68295287D01*
X167292392Y-68325090D01*
X167371538Y-68344226D01*
X167373028Y-68344464D01*
X167421999Y-68350256D01*
X167480693Y-68354396D01*
X167536734Y-68356004D01*
X167629867Y-68356089D01*
X167629867Y-67915822D01*
X167553667Y-67915808D01*
X167550639Y-67915817D01*
X167499519Y-67917782D01*
X167439416Y-67922507D01*
X167382708Y-67929035D01*
X167332750Y-67938331D01*
X167257998Y-67964600D01*
X167200489Y-68003899D01*
X167158988Y-68056933D01*
X167137771Y-68108200D01*
X167136353Y-68156026D01*
X166989136Y-68156026D01*
X166986400Y-68135956D01*
X166987679Y-68114739D01*
X166999991Y-68057323D01*
X167022520Y-67997413D01*
X167051750Y-67943363D01*
X167084167Y-67903532D01*
X167103708Y-67886510D01*
X167158420Y-67847322D01*
X167218723Y-67817193D01*
X167287919Y-67795232D01*
X167369311Y-67780550D01*
X167466200Y-67772259D01*
X167581889Y-67769467D01*
X167621371Y-67769066D01*
X167667082Y-67768653D01*
X167702883Y-67770457D01*
X167729974Y-67776739D01*
X167749556Y-67789759D01*
X167762830Y-67811778D01*
X167770998Y-67845055D01*
X167775260Y-67891851D01*
X167775857Y-67915822D01*
X167776817Y-67954427D01*
G36*
X167776817Y-67954427D02*
G01*
X167776870Y-68035041D01*
X167776622Y-68135956D01*
X167776583Y-68211617D01*
X167776328Y-68289526D01*
X167775684Y-68349536D01*
X167774480Y-68394264D01*
X167772543Y-68426326D01*
X167769703Y-68448340D01*
X167765788Y-68462924D01*
X167760626Y-68472694D01*
X167754045Y-68480267D01*
X167747077Y-68486501D01*
X167734079Y-68493801D01*
X167714931Y-68498554D01*
X167685528Y-68501292D01*
X167641762Y-68502545D01*
X167579528Y-68502845D01*
X167530582Y-68502469D01*
X167423722Y-68498041D01*
X167334494Y-68487953D01*
X167259696Y-68471365D01*
X167196125Y-68447435D01*
X167140579Y-68415321D01*
X167089854Y-68374182D01*
X167083866Y-68368330D01*
X167046999Y-68319821D01*
X167015899Y-68259013D01*
X166994417Y-68194769D01*
X166989136Y-68156026D01*
X167136353Y-68156026D01*
X167154635Y-68206961D01*
X167184305Y-68252878D01*
X167231002Y-68295287D01*
X167292392Y-68325090D01*
X167371538Y-68344226D01*
X167373028Y-68344464D01*
X167421999Y-68350256D01*
X167480693Y-68354396D01*
X167536734Y-68356004D01*
X167629867Y-68356089D01*
X167629867Y-67915822D01*
X167553667Y-67915808D01*
X167550639Y-67915817D01*
X167499519Y-67917782D01*
X167439416Y-67922507D01*
X167382708Y-67929035D01*
X167332750Y-67938331D01*
X167257998Y-67964600D01*
X167200489Y-68003899D01*
X167158988Y-68056933D01*
X167137771Y-68108200D01*
X167136353Y-68156026D01*
X166989136Y-68156026D01*
X166986400Y-68135956D01*
X166987679Y-68114739D01*
X166999991Y-68057323D01*
X167022520Y-67997413D01*
X167051750Y-67943363D01*
X167084167Y-67903532D01*
X167103708Y-67886510D01*
X167158420Y-67847322D01*
X167218723Y-67817193D01*
X167287919Y-67795232D01*
X167369311Y-67780550D01*
X167466200Y-67772259D01*
X167581889Y-67769467D01*
X167621371Y-67769066D01*
X167667082Y-67768653D01*
X167702883Y-67770457D01*
X167729974Y-67776739D01*
X167749556Y-67789759D01*
X167762830Y-67811778D01*
X167770998Y-67845055D01*
X167775260Y-67891851D01*
X167775857Y-67915822D01*
X167776817Y-67954427D01*
G37*
X162831893Y-67767892D02*
X162843301Y-67774029D01*
X162853850Y-67784691D01*
X162865136Y-67798811D01*
X162869589Y-67804772D01*
X162875588Y-67815268D01*
X162880167Y-67829093D01*
X162883519Y-67848998D01*
X162885833Y-67877732D01*
X162887301Y-67918045D01*
X162888113Y-67972687D01*
X162888460Y-68044407D01*
X162888534Y-68135956D01*
X162888511Y-68194486D01*
X162888292Y-68273573D01*
X162887683Y-68334516D01*
X162886492Y-68380062D01*
X162884529Y-68412963D01*
X162881603Y-68435968D01*
X162877523Y-68451826D01*
X162872097Y-68463286D01*
X162865136Y-68473100D01*
X162834708Y-68497493D01*
X162799765Y-68500372D01*
X162762784Y-68481282D01*
X162758600Y-68477807D01*
X162750424Y-68469279D01*
X162744364Y-68457728D01*
X162739981Y-68439896D01*
X162736839Y-68412524D01*
X162734502Y-68372354D01*
X162732531Y-68316128D01*
X162730489Y-68240589D01*
X162724845Y-68021458D01*
X162459556Y-68262099D01*
X162385722Y-68328875D01*
X162320542Y-68386991D01*
X162268348Y-68431949D01*
X162227273Y-68464871D01*
X162195455Y-68486879D01*
X162171026Y-68499094D01*
X162152124Y-68502639D01*
X162136883Y-68498636D01*
X162123439Y-68488207D01*
X162109927Y-68472474D01*
X162103682Y-68463991D01*
X162098050Y-68453413D01*
X162093839Y-68439255D01*
X162090887Y-68418803D01*
X162089032Y-68389342D01*
X162088113Y-68348161D01*
X162087968Y-68292544D01*
X162088435Y-68219779D01*
X162089352Y-68127151D01*
X162092667Y-67812199D01*
X162119318Y-67790633D01*
X162145383Y-67774441D01*
X162178241Y-67771670D01*
X162212772Y-67790623D01*
X162217084Y-67794208D01*
X162225216Y-67802737D01*
X162231245Y-67814329D01*
X162235606Y-67832235D01*
X162238734Y-67859706D01*
X162241063Y-67899994D01*
X162243029Y-67956351D01*
X162245067Y-68032029D01*
X162250711Y-68251878D01*
X162431334Y-68088084D01*
X162518072Y-68009451D01*
X162593843Y-67941058D01*
X162655980Y-67885708D01*
X162706078Y-67842338D01*
X162745735Y-67809881D01*
X162776548Y-67787273D01*
X162800114Y-67773448D01*
X162818030Y-67767343D01*
X162831893Y-67767892D01*
G36*
X162831893Y-67767892D02*
G01*
X162843301Y-67774029D01*
X162853850Y-67784691D01*
X162865136Y-67798811D01*
X162869589Y-67804772D01*
X162875588Y-67815268D01*
X162880167Y-67829093D01*
X162883519Y-67848998D01*
X162885833Y-67877732D01*
X162887301Y-67918045D01*
X162888113Y-67972687D01*
X162888460Y-68044407D01*
X162888534Y-68135956D01*
X162888511Y-68194486D01*
X162888292Y-68273573D01*
X162887683Y-68334516D01*
X162886492Y-68380062D01*
X162884529Y-68412963D01*
X162881603Y-68435968D01*
X162877523Y-68451826D01*
X162872097Y-68463286D01*
X162865136Y-68473100D01*
X162834708Y-68497493D01*
X162799765Y-68500372D01*
X162762784Y-68481282D01*
X162758600Y-68477807D01*
X162750424Y-68469279D01*
X162744364Y-68457728D01*
X162739981Y-68439896D01*
X162736839Y-68412524D01*
X162734502Y-68372354D01*
X162732531Y-68316128D01*
X162730489Y-68240589D01*
X162724845Y-68021458D01*
X162459556Y-68262099D01*
X162385722Y-68328875D01*
X162320542Y-68386991D01*
X162268348Y-68431949D01*
X162227273Y-68464871D01*
X162195455Y-68486879D01*
X162171026Y-68499094D01*
X162152124Y-68502639D01*
X162136883Y-68498636D01*
X162123439Y-68488207D01*
X162109927Y-68472474D01*
X162103682Y-68463991D01*
X162098050Y-68453413D01*
X162093839Y-68439255D01*
X162090887Y-68418803D01*
X162089032Y-68389342D01*
X162088113Y-68348161D01*
X162087968Y-68292544D01*
X162088435Y-68219779D01*
X162089352Y-68127151D01*
X162092667Y-67812199D01*
X162119318Y-67790633D01*
X162145383Y-67774441D01*
X162178241Y-67771670D01*
X162212772Y-67790623D01*
X162217084Y-67794208D01*
X162225216Y-67802737D01*
X162231245Y-67814329D01*
X162235606Y-67832235D01*
X162238734Y-67859706D01*
X162241063Y-67899994D01*
X162243029Y-67956351D01*
X162245067Y-68032029D01*
X162250711Y-68251878D01*
X162431334Y-68088084D01*
X162518072Y-68009451D01*
X162593843Y-67941058D01*
X162655980Y-67885708D01*
X162706078Y-67842338D01*
X162745735Y-67809881D01*
X162776548Y-67787273D01*
X162800114Y-67773448D01*
X162818030Y-67767343D01*
X162831893Y-67767892D01*
G37*
X163629150Y-67774179D02*
X163735157Y-67790494D01*
X163828969Y-67818545D01*
X163907765Y-67857452D01*
X163968719Y-67906334D01*
X163994789Y-67939195D01*
X164024297Y-67988394D01*
X164049568Y-68042252D01*
X164067218Y-68093419D01*
X164073858Y-68134544D01*
X164072298Y-68154259D01*
X164059357Y-68205592D01*
X164036194Y-68262118D01*
X164006302Y-68316035D01*
X163973173Y-68359539D01*
X163962977Y-68369887D01*
X163895892Y-68421662D01*
X163815766Y-68461554D01*
X163729556Y-68485956D01*
X163674592Y-68494068D01*
X163581139Y-68500673D01*
X163491358Y-68498586D01*
X163408869Y-68488340D01*
X163337286Y-68470470D01*
X163280228Y-68445508D01*
X163241311Y-68413988D01*
X163239936Y-68412012D01*
X163232848Y-68386786D01*
X163228609Y-68339535D01*
X163227200Y-68270071D01*
X163228060Y-68207838D01*
X163232780Y-68160456D01*
X163244470Y-68128353D01*
X163266239Y-68108800D01*
X163301198Y-68099070D01*
X163352456Y-68096433D01*
X163423123Y-68098161D01*
X163471743Y-68101173D01*
X163521939Y-68109366D01*
X163554433Y-68123419D01*
X163571892Y-68144654D01*
X163576983Y-68174394D01*
X163576877Y-68178936D01*
X163568175Y-68213730D01*
X163544165Y-68237147D01*
X163502900Y-68250347D01*
X163442431Y-68254489D01*
X163373956Y-68254489D01*
X163373956Y-68292841D01*
X163374006Y-68301976D01*
X163376227Y-68319227D01*
X163385494Y-68329521D01*
X163406875Y-68336459D01*
X163445436Y-68343641D01*
X163450910Y-68344575D01*
X163547860Y-68354478D01*
X163637852Y-68351559D01*
X163718760Y-68336829D01*
X163788459Y-68311299D01*
X163844824Y-68275978D01*
X163885729Y-68231879D01*
X163909051Y-68180012D01*
X163912663Y-68121388D01*
X163907145Y-68092494D01*
X163880461Y-68036604D01*
X163834273Y-67990945D01*
X163769291Y-67956108D01*
X163686229Y-67932690D01*
X163661555Y-67928241D01*
X163572226Y-67917742D01*
X163492419Y-67918971D01*
X163414326Y-67931906D01*
X163379183Y-67938696D01*
X163333745Y-67939713D01*
X163302430Y-67927182D01*
X163282277Y-67900395D01*
X163275893Y-67872148D01*
X163285379Y-67840924D01*
X163294708Y-67827499D01*
X163328943Y-67803967D01*
X163381565Y-67786095D01*
X163450081Y-67774599D01*
X163532000Y-67770192D01*
X163629150Y-67774179D01*
G36*
X163629150Y-67774179D02*
G01*
X163735157Y-67790494D01*
X163828969Y-67818545D01*
X163907765Y-67857452D01*
X163968719Y-67906334D01*
X163994789Y-67939195D01*
X164024297Y-67988394D01*
X164049568Y-68042252D01*
X164067218Y-68093419D01*
X164073858Y-68134544D01*
X164072298Y-68154259D01*
X164059357Y-68205592D01*
X164036194Y-68262118D01*
X164006302Y-68316035D01*
X163973173Y-68359539D01*
X163962977Y-68369887D01*
X163895892Y-68421662D01*
X163815766Y-68461554D01*
X163729556Y-68485956D01*
X163674592Y-68494068D01*
X163581139Y-68500673D01*
X163491358Y-68498586D01*
X163408869Y-68488340D01*
X163337286Y-68470470D01*
X163280228Y-68445508D01*
X163241311Y-68413988D01*
X163239936Y-68412012D01*
X163232848Y-68386786D01*
X163228609Y-68339535D01*
X163227200Y-68270071D01*
X163228060Y-68207838D01*
X163232780Y-68160456D01*
X163244470Y-68128353D01*
X163266239Y-68108800D01*
X163301198Y-68099070D01*
X163352456Y-68096433D01*
X163423123Y-68098161D01*
X163471743Y-68101173D01*
X163521939Y-68109366D01*
X163554433Y-68123419D01*
X163571892Y-68144654D01*
X163576983Y-68174394D01*
X163576877Y-68178936D01*
X163568175Y-68213730D01*
X163544165Y-68237147D01*
X163502900Y-68250347D01*
X163442431Y-68254489D01*
X163373956Y-68254489D01*
X163373956Y-68292841D01*
X163374006Y-68301976D01*
X163376227Y-68319227D01*
X163385494Y-68329521D01*
X163406875Y-68336459D01*
X163445436Y-68343641D01*
X163450910Y-68344575D01*
X163547860Y-68354478D01*
X163637852Y-68351559D01*
X163718760Y-68336829D01*
X163788459Y-68311299D01*
X163844824Y-68275978D01*
X163885729Y-68231879D01*
X163909051Y-68180012D01*
X163912663Y-68121388D01*
X163907145Y-68092494D01*
X163880461Y-68036604D01*
X163834273Y-67990945D01*
X163769291Y-67956108D01*
X163686229Y-67932690D01*
X163661555Y-67928241D01*
X163572226Y-67917742D01*
X163492419Y-67918971D01*
X163414326Y-67931906D01*
X163379183Y-67938696D01*
X163333745Y-67939713D01*
X163302430Y-67927182D01*
X163282277Y-67900395D01*
X163275893Y-67872148D01*
X163285379Y-67840924D01*
X163294708Y-67827499D01*
X163328943Y-67803967D01*
X163381565Y-67786095D01*
X163450081Y-67774599D01*
X163532000Y-67770192D01*
X163629150Y-67774179D01*
G37*
X161679803Y-67798811D02*
X161684752Y-67805495D01*
X161690596Y-67816066D01*
X161695057Y-67830153D01*
X161698321Y-67850478D01*
X161700574Y-67879765D01*
X161702002Y-67920737D01*
X161702792Y-67976117D01*
X161703129Y-68048628D01*
X161703200Y-68140994D01*
X161703171Y-68206911D01*
X161702939Y-68285228D01*
X161702319Y-68345496D01*
X161701126Y-68390393D01*
X161699179Y-68422602D01*
X161696294Y-68444800D01*
X161692288Y-68459669D01*
X161686979Y-68469889D01*
X161680183Y-68478138D01*
X161675668Y-68482795D01*
X161667438Y-68489282D01*
X161656078Y-68494194D01*
X161638810Y-68497749D01*
X161612855Y-68500167D01*
X161575436Y-68501667D01*
X161523773Y-68502467D01*
X161455089Y-68502787D01*
X161366606Y-68502845D01*
X161346931Y-68502838D01*
X161259906Y-68502572D01*
X161192254Y-68501806D01*
X161141299Y-68500392D01*
X161104367Y-68498180D01*
X161078783Y-68495022D01*
X161061871Y-68490769D01*
X161050957Y-68485271D01*
X161040464Y-68475285D01*
X161027203Y-68444168D01*
X161028386Y-68408280D01*
X161044550Y-68376733D01*
X161046739Y-68374457D01*
X161055427Y-68368189D01*
X161068769Y-68363523D01*
X161089752Y-68360227D01*
X161121363Y-68358068D01*
X161166590Y-68356814D01*
X161228420Y-68356231D01*
X161309839Y-68356089D01*
X161556445Y-68356089D01*
X161556445Y-68198045D01*
X161394006Y-68198045D01*
X161358338Y-68197964D01*
X161302568Y-68197167D01*
X161263430Y-68195162D01*
X161236976Y-68191521D01*
X161219259Y-68185812D01*
X161206329Y-68177607D01*
X161202686Y-68174423D01*
X161184278Y-68143448D01*
X161183644Y-68107112D01*
X161201183Y-68073493D01*
X161201245Y-68073424D01*
X161210916Y-68064798D01*
X161224209Y-68058742D01*
X161244917Y-68054811D01*
X161276828Y-68052556D01*
X161323734Y-68051531D01*
X161389424Y-68051289D01*
X161557571Y-68051289D01*
X161554186Y-67986378D01*
X161550800Y-67921467D01*
X161308723Y-67918414D01*
X161283707Y-67918086D01*
X161202087Y-67916606D01*
X161139768Y-67914222D01*
X161094154Y-67910227D01*
X161062652Y-67903913D01*
X161042667Y-67894574D01*
X161031604Y-67881503D01*
X161026869Y-67863992D01*
X161025867Y-67841335D01*
X161025873Y-67838970D01*
X161027027Y-67818939D01*
X161031824Y-67803146D01*
X161042632Y-67791090D01*
X161061817Y-67782267D01*
X161091745Y-67776175D01*
X161134783Y-67772311D01*
X161193299Y-67770174D01*
X161269657Y-67769260D01*
X161366226Y-67769067D01*
X161656406Y-67769067D01*
X161679803Y-67798811D01*
G36*
X161679803Y-67798811D02*
G01*
X161684752Y-67805495D01*
X161690596Y-67816066D01*
X161695057Y-67830153D01*
X161698321Y-67850478D01*
X161700574Y-67879765D01*
X161702002Y-67920737D01*
X161702792Y-67976117D01*
X161703129Y-68048628D01*
X161703200Y-68140994D01*
X161703171Y-68206911D01*
X161702939Y-68285228D01*
X161702319Y-68345496D01*
X161701126Y-68390393D01*
X161699179Y-68422602D01*
X161696294Y-68444800D01*
X161692288Y-68459669D01*
X161686979Y-68469889D01*
X161680183Y-68478138D01*
X161675668Y-68482795D01*
X161667438Y-68489282D01*
X161656078Y-68494194D01*
X161638810Y-68497749D01*
X161612855Y-68500167D01*
X161575436Y-68501667D01*
X161523773Y-68502467D01*
X161455089Y-68502787D01*
X161366606Y-68502845D01*
X161346931Y-68502838D01*
X161259906Y-68502572D01*
X161192254Y-68501806D01*
X161141299Y-68500392D01*
X161104367Y-68498180D01*
X161078783Y-68495022D01*
X161061871Y-68490769D01*
X161050957Y-68485271D01*
X161040464Y-68475285D01*
X161027203Y-68444168D01*
X161028386Y-68408280D01*
X161044550Y-68376733D01*
X161046739Y-68374457D01*
X161055427Y-68368189D01*
X161068769Y-68363523D01*
X161089752Y-68360227D01*
X161121363Y-68358068D01*
X161166590Y-68356814D01*
X161228420Y-68356231D01*
X161309839Y-68356089D01*
X161556445Y-68356089D01*
X161556445Y-68198045D01*
X161394006Y-68198045D01*
X161358338Y-68197964D01*
X161302568Y-68197167D01*
X161263430Y-68195162D01*
X161236976Y-68191521D01*
X161219259Y-68185812D01*
X161206329Y-68177607D01*
X161202686Y-68174423D01*
X161184278Y-68143448D01*
X161183644Y-68107112D01*
X161201183Y-68073493D01*
X161201245Y-68073424D01*
X161210916Y-68064798D01*
X161224209Y-68058742D01*
X161244917Y-68054811D01*
X161276828Y-68052556D01*
X161323734Y-68051531D01*
X161389424Y-68051289D01*
X161557571Y-68051289D01*
X161554186Y-67986378D01*
X161550800Y-67921467D01*
X161308723Y-67918414D01*
X161283707Y-67918086D01*
X161202087Y-67916606D01*
X161139768Y-67914222D01*
X161094154Y-67910227D01*
X161062652Y-67903913D01*
X161042667Y-67894574D01*
X161031604Y-67881503D01*
X161026869Y-67863992D01*
X161025867Y-67841335D01*
X161025873Y-67838970D01*
X161027027Y-67818939D01*
X161031824Y-67803146D01*
X161042632Y-67791090D01*
X161061817Y-67782267D01*
X161091745Y-67776175D01*
X161134783Y-67772311D01*
X161193299Y-67770174D01*
X161269657Y-67769260D01*
X161366226Y-67769067D01*
X161656406Y-67769067D01*
X161679803Y-67798811D01*
G37*
X166356734Y-67769083D02*
X166433831Y-67769275D01*
X166492777Y-67769860D01*
X166536364Y-67771051D01*
X166567383Y-67773064D01*
X166588625Y-67776112D01*
X166602882Y-67780409D01*
X166612945Y-67786172D01*
X166621606Y-67793612D01*
X166623391Y-67795293D01*
X166630635Y-67802832D01*
X166636277Y-67811850D01*
X166640517Y-67824984D01*
X166643556Y-67844872D01*
X166645594Y-67874151D01*
X166646830Y-67915458D01*
X166647465Y-67971431D01*
X166647700Y-68044707D01*
X166647734Y-68137923D01*
X166647697Y-68210713D01*
X166647448Y-68288889D01*
X166646812Y-68349103D01*
X166645615Y-68393982D01*
X166643684Y-68426152D01*
X166640846Y-68448239D01*
X166636927Y-68462870D01*
X166631755Y-68472670D01*
X166625156Y-68480267D01*
X166621822Y-68483444D01*
X166613300Y-68489554D01*
X166601298Y-68494229D01*
X166583087Y-68497659D01*
X166555940Y-68500036D01*
X166517129Y-68501552D01*
X166463924Y-68502398D01*
X166393598Y-68502765D01*
X166303422Y-68502845D01*
X166261314Y-68502833D01*
X166180167Y-68502651D01*
X166117675Y-68502098D01*
X166071109Y-68500982D01*
X166037741Y-68499113D01*
X166014844Y-68496298D01*
X165999688Y-68492346D01*
X165989546Y-68487066D01*
X165981689Y-68480267D01*
X165966963Y-68458667D01*
X165959111Y-68429467D01*
X165964610Y-68405560D01*
X165981689Y-68378667D01*
X165986668Y-68374059D01*
X165996443Y-68367772D01*
X166010559Y-68363146D01*
X166032054Y-68359930D01*
X166063968Y-68357870D01*
X166109342Y-68356712D01*
X166171213Y-68356202D01*
X166252622Y-68356089D01*
X166500978Y-68356089D01*
X166500978Y-68198045D01*
X166339801Y-68198045D01*
X166303983Y-68197899D01*
X166238359Y-68196176D01*
X166191118Y-68191741D01*
X166159383Y-68183637D01*
X166140277Y-68170906D01*
X166130923Y-68152592D01*
X166128445Y-68127738D01*
X166129242Y-68107482D01*
X166134494Y-68085656D01*
X166147288Y-68070304D01*
X166170628Y-68060309D01*
X166207517Y-68054553D01*
X166260959Y-68051919D01*
X166333958Y-68051289D01*
X166502105Y-68051289D01*
X166498719Y-67986378D01*
X166495334Y-67921467D01*
X166247617Y-67918418D01*
X166185026Y-67917539D01*
X166116565Y-67916095D01*
X166065661Y-67914164D01*
X166029408Y-67911514D01*
X166004901Y-67907910D01*
X165989235Y-67903121D01*
X165979506Y-67896913D01*
X165973491Y-67890510D01*
X165960482Y-67858828D01*
X165964043Y-67823142D01*
X165983818Y-67792084D01*
X165987069Y-67789161D01*
X165996049Y-67782810D01*
X166008153Y-67777957D01*
X166026159Y-67774403D01*
X166052847Y-67771946D01*
X166090997Y-67770385D01*
X166143386Y-67769518D01*
X166212794Y-67769146D01*
X166302001Y-67769067D01*
X166356734Y-67769083D01*
G36*
X166356734Y-67769083D02*
G01*
X166433831Y-67769275D01*
X166492777Y-67769860D01*
X166536364Y-67771051D01*
X166567383Y-67773064D01*
X166588625Y-67776112D01*
X166602882Y-67780409D01*
X166612945Y-67786172D01*
X166621606Y-67793612D01*
X166623391Y-67795293D01*
X166630635Y-67802832D01*
X166636277Y-67811850D01*
X166640517Y-67824984D01*
X166643556Y-67844872D01*
X166645594Y-67874151D01*
X166646830Y-67915458D01*
X166647465Y-67971431D01*
X166647700Y-68044707D01*
X166647734Y-68137923D01*
X166647697Y-68210713D01*
X166647448Y-68288889D01*
X166646812Y-68349103D01*
X166645615Y-68393982D01*
X166643684Y-68426152D01*
X166640846Y-68448239D01*
X166636927Y-68462870D01*
X166631755Y-68472670D01*
X166625156Y-68480267D01*
X166621822Y-68483444D01*
X166613300Y-68489554D01*
X166601298Y-68494229D01*
X166583087Y-68497659D01*
X166555940Y-68500036D01*
X166517129Y-68501552D01*
X166463924Y-68502398D01*
X166393598Y-68502765D01*
X166303422Y-68502845D01*
X166261314Y-68502833D01*
X166180167Y-68502651D01*
X166117675Y-68502098D01*
X166071109Y-68500982D01*
X166037741Y-68499113D01*
X166014844Y-68496298D01*
X165999688Y-68492346D01*
X165989546Y-68487066D01*
X165981689Y-68480267D01*
X165966963Y-68458667D01*
X165959111Y-68429467D01*
X165964610Y-68405560D01*
X165981689Y-68378667D01*
X165986668Y-68374059D01*
X165996443Y-68367772D01*
X166010559Y-68363146D01*
X166032054Y-68359930D01*
X166063968Y-68357870D01*
X166109342Y-68356712D01*
X166171213Y-68356202D01*
X166252622Y-68356089D01*
X166500978Y-68356089D01*
X166500978Y-68198045D01*
X166339801Y-68198045D01*
X166303983Y-68197899D01*
X166238359Y-68196176D01*
X166191118Y-68191741D01*
X166159383Y-68183637D01*
X166140277Y-68170906D01*
X166130923Y-68152592D01*
X166128445Y-68127738D01*
X166129242Y-68107482D01*
X166134494Y-68085656D01*
X166147288Y-68070304D01*
X166170628Y-68060309D01*
X166207517Y-68054553D01*
X166260959Y-68051919D01*
X166333958Y-68051289D01*
X166502105Y-68051289D01*
X166498719Y-67986378D01*
X166495334Y-67921467D01*
X166247617Y-67918418D01*
X166185026Y-67917539D01*
X166116565Y-67916095D01*
X166065661Y-67914164D01*
X166029408Y-67911514D01*
X166004901Y-67907910D01*
X165989235Y-67903121D01*
X165979506Y-67896913D01*
X165973491Y-67890510D01*
X165960482Y-67858828D01*
X165964043Y-67823142D01*
X165983818Y-67792084D01*
X165987069Y-67789161D01*
X165996049Y-67782810D01*
X166008153Y-67777957D01*
X166026159Y-67774403D01*
X166052847Y-67771946D01*
X166090997Y-67770385D01*
X166143386Y-67769518D01*
X166212794Y-67769146D01*
X166302001Y-67769067D01*
X166356734Y-67769083D01*
G37*
X157789702Y-67778478D02*
X157807663Y-67796989D01*
X157828263Y-67828071D01*
X157853095Y-67873756D01*
X157883750Y-67936078D01*
X157921820Y-68017071D01*
X157936454Y-68048454D01*
X157966203Y-68111638D01*
X157992297Y-68166244D01*
X158013292Y-68209290D01*
X158027739Y-68237793D01*
X158034191Y-68248770D01*
X158035550Y-68248189D01*
X158045542Y-68234242D01*
X158062833Y-68204704D01*
X158085430Y-68163087D01*
X158111338Y-68112903D01*
X158127311Y-68081414D01*
X158156261Y-68026061D01*
X158178749Y-67987044D01*
X158196965Y-67961566D01*
X158213096Y-67946831D01*
X158229330Y-67940042D01*
X158247857Y-67938400D01*
X158258360Y-67938875D01*
X158274476Y-67943082D01*
X158289790Y-67953946D01*
X158306388Y-67974219D01*
X158326357Y-68006654D01*
X158351783Y-68054004D01*
X158384752Y-68119022D01*
X158394485Y-68138277D01*
X158418943Y-68184946D01*
X158439178Y-68221109D01*
X158453311Y-68243497D01*
X158459460Y-68248845D01*
X158460827Y-68245573D01*
X158470202Y-68224664D01*
X158487062Y-68187725D01*
X158509979Y-68137874D01*
X158537520Y-68078226D01*
X158568255Y-68011898D01*
X158594970Y-67954677D01*
X158624593Y-67892688D01*
X158647664Y-67846949D01*
X158665643Y-67814908D01*
X158679990Y-67794014D01*
X158692166Y-67781718D01*
X158703632Y-67775466D01*
X158713042Y-67772574D01*
X158738147Y-67772425D01*
X158765290Y-67787768D01*
X158766590Y-67788753D01*
X158788674Y-67811388D01*
X158799723Y-67833613D01*
X158799769Y-67834253D01*
X158795228Y-67851915D01*
X158782364Y-67886481D01*
X158762605Y-67934826D01*
X158737381Y-67993825D01*
X158708119Y-68060355D01*
X158676250Y-68131291D01*
X158643201Y-68203507D01*
X158610401Y-68273880D01*
X158579280Y-68339285D01*
X158551265Y-68396597D01*
X158527786Y-68442692D01*
X158510272Y-68474446D01*
X158500151Y-68488733D01*
X158465743Y-68502102D01*
X158424046Y-68495741D01*
X158418681Y-68491044D01*
X158402852Y-68468893D01*
X158380650Y-68432132D01*
X158354233Y-68384415D01*
X158325760Y-68329393D01*
X158245986Y-68170150D01*
X158172799Y-68316742D01*
X158163103Y-68336032D01*
X158136125Y-68388380D01*
X158112096Y-68433170D01*
X158093332Y-68466154D01*
X158082146Y-68483089D01*
X158081000Y-68484332D01*
X158052879Y-68499619D01*
X158017817Y-68501302D01*
X157986776Y-68488733D01*
X157984350Y-68485884D01*
X157972090Y-68465259D01*
X157952352Y-68427708D01*
X157926448Y-68375880D01*
X157895685Y-68312423D01*
X157861375Y-68239985D01*
X157824825Y-68161216D01*
X157804585Y-68117093D01*
X157767812Y-68036365D01*
X157739355Y-67972687D01*
X157718331Y-67923752D01*
X157703854Y-67887257D01*
X157695039Y-67860895D01*
X157691004Y-67842361D01*
X157690862Y-67829352D01*
X157693730Y-67819561D01*
X157708387Y-67798678D01*
X157734990Y-67778377D01*
X157735745Y-67778035D01*
X157755335Y-67771034D01*
X157772790Y-67770504D01*
X157789702Y-67778478D01*
G36*
X157789702Y-67778478D02*
G01*
X157807663Y-67796989D01*
X157828263Y-67828071D01*
X157853095Y-67873756D01*
X157883750Y-67936078D01*
X157921820Y-68017071D01*
X157936454Y-68048454D01*
X157966203Y-68111638D01*
X157992297Y-68166244D01*
X158013292Y-68209290D01*
X158027739Y-68237793D01*
X158034191Y-68248770D01*
X158035550Y-68248189D01*
X158045542Y-68234242D01*
X158062833Y-68204704D01*
X158085430Y-68163087D01*
X158111338Y-68112903D01*
X158127311Y-68081414D01*
X158156261Y-68026061D01*
X158178749Y-67987044D01*
X158196965Y-67961566D01*
X158213096Y-67946831D01*
X158229330Y-67940042D01*
X158247857Y-67938400D01*
X158258360Y-67938875D01*
X158274476Y-67943082D01*
X158289790Y-67953946D01*
X158306388Y-67974219D01*
X158326357Y-68006654D01*
X158351783Y-68054004D01*
X158384752Y-68119022D01*
X158394485Y-68138277D01*
X158418943Y-68184946D01*
X158439178Y-68221109D01*
X158453311Y-68243497D01*
X158459460Y-68248845D01*
X158460827Y-68245573D01*
X158470202Y-68224664D01*
X158487062Y-68187725D01*
X158509979Y-68137874D01*
X158537520Y-68078226D01*
X158568255Y-68011898D01*
X158594970Y-67954677D01*
X158624593Y-67892688D01*
X158647664Y-67846949D01*
X158665643Y-67814908D01*
X158679990Y-67794014D01*
X158692166Y-67781718D01*
X158703632Y-67775466D01*
X158713042Y-67772574D01*
X158738147Y-67772425D01*
X158765290Y-67787768D01*
X158766590Y-67788753D01*
X158788674Y-67811388D01*
X158799723Y-67833613D01*
X158799769Y-67834253D01*
X158795228Y-67851915D01*
X158782364Y-67886481D01*
X158762605Y-67934826D01*
X158737381Y-67993825D01*
X158708119Y-68060355D01*
X158676250Y-68131291D01*
X158643201Y-68203507D01*
X158610401Y-68273880D01*
X158579280Y-68339285D01*
X158551265Y-68396597D01*
X158527786Y-68442692D01*
X158510272Y-68474446D01*
X158500151Y-68488733D01*
X158465743Y-68502102D01*
X158424046Y-68495741D01*
X158418681Y-68491044D01*
X158402852Y-68468893D01*
X158380650Y-68432132D01*
X158354233Y-68384415D01*
X158325760Y-68329393D01*
X158245986Y-68170150D01*
X158172799Y-68316742D01*
X158163103Y-68336032D01*
X158136125Y-68388380D01*
X158112096Y-68433170D01*
X158093332Y-68466154D01*
X158082146Y-68483089D01*
X158081000Y-68484332D01*
X158052879Y-68499619D01*
X158017817Y-68501302D01*
X157986776Y-68488733D01*
X157984350Y-68485884D01*
X157972090Y-68465259D01*
X157952352Y-68427708D01*
X157926448Y-68375880D01*
X157895685Y-68312423D01*
X157861375Y-68239985D01*
X157824825Y-68161216D01*
X157804585Y-68117093D01*
X157767812Y-68036365D01*
X157739355Y-67972687D01*
X157718331Y-67923752D01*
X157703854Y-67887257D01*
X157695039Y-67860895D01*
X157691004Y-67842361D01*
X157690862Y-67829352D01*
X157693730Y-67819561D01*
X157708387Y-67798678D01*
X157734990Y-67778377D01*
X157735745Y-67778035D01*
X157755335Y-67771034D01*
X157772790Y-67770504D01*
X157789702Y-67778478D01*
G37*
X165340853Y-67769936D02*
X165407100Y-67775366D01*
X165462400Y-67784964D01*
X165513283Y-67799825D01*
X165584595Y-67832958D01*
X165635752Y-67875640D01*
X165666575Y-67927705D01*
X165676889Y-67988983D01*
X165675952Y-68020232D01*
X165670160Y-68045029D01*
X165655353Y-68066699D01*
X165627380Y-68094049D01*
X165619402Y-68101378D01*
X165595692Y-68122281D01*
X165573298Y-68139251D01*
X165549265Y-68153205D01*
X165520637Y-68165056D01*
X165484460Y-68175720D01*
X165437780Y-68186111D01*
X165377641Y-68197146D01*
X165301090Y-68209738D01*
X165205171Y-68224804D01*
X165186808Y-68227838D01*
X165124478Y-68241458D01*
X165079260Y-68257192D01*
X165052976Y-68274263D01*
X165047447Y-68291897D01*
X165050068Y-68296168D01*
X165068000Y-68311233D01*
X165096126Y-68327867D01*
X165108926Y-68333857D01*
X165130224Y-68341050D01*
X165156610Y-68345827D01*
X165192454Y-68348646D01*
X165242128Y-68349964D01*
X165310000Y-68350237D01*
X165327785Y-68350164D01*
X165395406Y-68349053D01*
X165460345Y-68346828D01*
X165515970Y-68343762D01*
X165555651Y-68340127D01*
X165591162Y-68336059D01*
X165620415Y-68335276D01*
X165639315Y-68339876D01*
X165654429Y-68350551D01*
X165658085Y-68354144D01*
X165674427Y-68385918D01*
X165673107Y-68421572D01*
X165654150Y-68452190D01*
X165633780Y-68463796D01*
X165597796Y-68476491D01*
X165555372Y-68486541D01*
X165551922Y-68487140D01*
X165509252Y-68492356D01*
X165451866Y-68496730D01*
X165386849Y-68499818D01*
X165321289Y-68501177D01*
X165305057Y-68501218D01*
X165206744Y-68498741D01*
X165126692Y-68490735D01*
X165061513Y-68476203D01*
X165007817Y-68454149D01*
X164962216Y-68423576D01*
X164921323Y-68383486D01*
X164901202Y-68357259D01*
X164889576Y-68327712D01*
X164886667Y-68287995D01*
X164886808Y-68276026D01*
X164890681Y-68243345D01*
X164903065Y-68216819D01*
X164928230Y-68185971D01*
X164949442Y-68163831D01*
X164975838Y-68141285D01*
X165005555Y-68122917D01*
X165041785Y-68107661D01*
X165087717Y-68094449D01*
X165146544Y-68082214D01*
X165221456Y-68069889D01*
X165315645Y-68056406D01*
X165360957Y-68049396D01*
X165428911Y-68034837D01*
X165478047Y-68018337D01*
X165507614Y-68000439D01*
X165516864Y-67981685D01*
X165505048Y-67962615D01*
X165471416Y-67943771D01*
X165468370Y-67942557D01*
X165422011Y-67930479D01*
X165359361Y-67922279D01*
X165285927Y-67918119D01*
X165207217Y-67918161D01*
X165128739Y-67922569D01*
X165056000Y-67931505D01*
X165052073Y-67932154D01*
X165003257Y-67939861D01*
X164971005Y-67943473D01*
X164950008Y-67942876D01*
X164934954Y-67937954D01*
X164920534Y-67928596D01*
X164919364Y-67927725D01*
X164894847Y-67897351D01*
X164890054Y-67861850D01*
X164905860Y-67827269D01*
X164910406Y-67822813D01*
X164940020Y-67807673D01*
X164987002Y-67794550D01*
X165047306Y-67783750D01*
X165116888Y-67775581D01*
X165191703Y-67770351D01*
X165267706Y-67768367D01*
X165340853Y-67769936D01*
G36*
X165340853Y-67769936D02*
G01*
X165407100Y-67775366D01*
X165462400Y-67784964D01*
X165513283Y-67799825D01*
X165584595Y-67832958D01*
X165635752Y-67875640D01*
X165666575Y-67927705D01*
X165676889Y-67988983D01*
X165675952Y-68020232D01*
X165670160Y-68045029D01*
X165655353Y-68066699D01*
X165627380Y-68094049D01*
X165619402Y-68101378D01*
X165595692Y-68122281D01*
X165573298Y-68139251D01*
X165549265Y-68153205D01*
X165520637Y-68165056D01*
X165484460Y-68175720D01*
X165437780Y-68186111D01*
X165377641Y-68197146D01*
X165301090Y-68209738D01*
X165205171Y-68224804D01*
X165186808Y-68227838D01*
X165124478Y-68241458D01*
X165079260Y-68257192D01*
X165052976Y-68274263D01*
X165047447Y-68291897D01*
X165050068Y-68296168D01*
X165068000Y-68311233D01*
X165096126Y-68327867D01*
X165108926Y-68333857D01*
X165130224Y-68341050D01*
X165156610Y-68345827D01*
X165192454Y-68348646D01*
X165242128Y-68349964D01*
X165310000Y-68350237D01*
X165327785Y-68350164D01*
X165395406Y-68349053D01*
X165460345Y-68346828D01*
X165515970Y-68343762D01*
X165555651Y-68340127D01*
X165591162Y-68336059D01*
X165620415Y-68335276D01*
X165639315Y-68339876D01*
X165654429Y-68350551D01*
X165658085Y-68354144D01*
X165674427Y-68385918D01*
X165673107Y-68421572D01*
X165654150Y-68452190D01*
X165633780Y-68463796D01*
X165597796Y-68476491D01*
X165555372Y-68486541D01*
X165551922Y-68487140D01*
X165509252Y-68492356D01*
X165451866Y-68496730D01*
X165386849Y-68499818D01*
X165321289Y-68501177D01*
X165305057Y-68501218D01*
X165206744Y-68498741D01*
X165126692Y-68490735D01*
X165061513Y-68476203D01*
X165007817Y-68454149D01*
X164962216Y-68423576D01*
X164921323Y-68383486D01*
X164901202Y-68357259D01*
X164889576Y-68327712D01*
X164886667Y-68287995D01*
X164886808Y-68276026D01*
X164890681Y-68243345D01*
X164903065Y-68216819D01*
X164928230Y-68185971D01*
X164949442Y-68163831D01*
X164975838Y-68141285D01*
X165005555Y-68122917D01*
X165041785Y-68107661D01*
X165087717Y-68094449D01*
X165146544Y-68082214D01*
X165221456Y-68069889D01*
X165315645Y-68056406D01*
X165360957Y-68049396D01*
X165428911Y-68034837D01*
X165478047Y-68018337D01*
X165507614Y-68000439D01*
X165516864Y-67981685D01*
X165505048Y-67962615D01*
X165471416Y-67943771D01*
X165468370Y-67942557D01*
X165422011Y-67930479D01*
X165359361Y-67922279D01*
X165285927Y-67918119D01*
X165207217Y-67918161D01*
X165128739Y-67922569D01*
X165056000Y-67931505D01*
X165052073Y-67932154D01*
X165003257Y-67939861D01*
X164971005Y-67943473D01*
X164950008Y-67942876D01*
X164934954Y-67937954D01*
X164920534Y-67928596D01*
X164919364Y-67927725D01*
X164894847Y-67897351D01*
X164890054Y-67861850D01*
X164905860Y-67827269D01*
X164910406Y-67822813D01*
X164940020Y-67807673D01*
X164987002Y-67794550D01*
X165047306Y-67783750D01*
X165116888Y-67775581D01*
X165191703Y-67770351D01*
X165267706Y-67768367D01*
X165340853Y-67769936D01*
G37*
X161488711Y-63462033D02*
X161584268Y-63479523D01*
X161748558Y-63524564D01*
X161902589Y-63587656D01*
X162048509Y-63669915D01*
X162188466Y-63772457D01*
X162324608Y-63896399D01*
X162368473Y-63941661D01*
X162480758Y-64073865D01*
X162573972Y-64211832D01*
X162650719Y-64359750D01*
X162713603Y-64521803D01*
X162717420Y-64533391D01*
X162767507Y-64719392D01*
X162800899Y-64915521D01*
X162817584Y-65117568D01*
X162817551Y-65321325D01*
X162800791Y-65522581D01*
X162767292Y-65717128D01*
X162717044Y-65900756D01*
X162673190Y-66018053D01*
X162595348Y-66180951D01*
X162501828Y-66334866D01*
X162394822Y-66476671D01*
X162276519Y-66603239D01*
X162149111Y-66711441D01*
X162071606Y-66764120D01*
X161944725Y-66833750D01*
X161807243Y-66892468D01*
X161665716Y-66937587D01*
X161526702Y-66966422D01*
X161512597Y-66968106D01*
X161469153Y-66971434D01*
X161411723Y-66974275D01*
X161346122Y-66976373D01*
X161278167Y-66977468D01*
X161151378Y-66975140D01*
X161003673Y-66962136D01*
X160865779Y-66937133D01*
X160732014Y-66899318D01*
X160708562Y-66890889D01*
X160660612Y-66871408D01*
X160604140Y-66846473D01*
X160542379Y-66817722D01*
X160478563Y-66786790D01*
X160415926Y-66755315D01*
X160357703Y-66724934D01*
X160307127Y-66697283D01*
X160267433Y-66673999D01*
X160241854Y-66656718D01*
X160233625Y-66647079D01*
X160235076Y-66643984D01*
X160246250Y-66624079D01*
X160267134Y-66588420D01*
X160296265Y-66539459D01*
X160332181Y-66479646D01*
X160373420Y-66411433D01*
X160418517Y-66337271D01*
X160599785Y-66040008D01*
X160646315Y-66084539D01*
X160737723Y-66162865D01*
X160851334Y-66237439D01*
X160969122Y-66291474D01*
X161089559Y-66324290D01*
X161211117Y-66335211D01*
X161252585Y-66333868D01*
X161370080Y-66315612D01*
X161480089Y-66276617D01*
X161581430Y-66217670D01*
X161672921Y-66139557D01*
X161753380Y-66043064D01*
X161821627Y-65928978D01*
X161837908Y-65894724D01*
X161883982Y-65771240D01*
X161919106Y-65632918D01*
X161943197Y-65483561D01*
X161956173Y-65326973D01*
X161957949Y-65166956D01*
X161948443Y-65007314D01*
X161927572Y-64851850D01*
X161895252Y-64704366D01*
X161851399Y-64568667D01*
X161813982Y-64482076D01*
X161749185Y-64368688D01*
X161673772Y-64275070D01*
X161587418Y-64200959D01*
X161489795Y-64146094D01*
X161380577Y-64110212D01*
X161259439Y-64093051D01*
X161190038Y-64091880D01*
X161067168Y-64106141D01*
X160951664Y-64141241D01*
X160844953Y-64196682D01*
X160748464Y-64271964D01*
X160732720Y-64286440D01*
X160702150Y-64312962D01*
X160679809Y-64330138D01*
X160669691Y-64334787D01*
X160667706Y-64332597D01*
X160653241Y-64313721D01*
X160629400Y-64280397D01*
X160598029Y-64235380D01*
X160560974Y-64181425D01*
X160520083Y-64121285D01*
X160477202Y-64057718D01*
X160434178Y-63993476D01*
X160392857Y-63931315D01*
X160355086Y-63873991D01*
X160322712Y-63824257D01*
X160297582Y-63784868D01*
X160281542Y-63758580D01*
X160276439Y-63748147D01*
X160281050Y-63743941D01*
X160300267Y-63738933D01*
X160309838Y-63736386D01*
X160337809Y-63725249D01*
X160379448Y-63706802D01*
X160430995Y-63682725D01*
X160488690Y-63654699D01*
X160499957Y-63649154D01*
X160677687Y-63569889D01*
X160847490Y-63510385D01*
X161011430Y-63470245D01*
X161171571Y-63449071D01*
X161329977Y-63446466D01*
X161488711Y-63462033D01*
G36*
X161488711Y-63462033D02*
G01*
X161584268Y-63479523D01*
X161748558Y-63524564D01*
X161902589Y-63587656D01*
X162048509Y-63669915D01*
X162188466Y-63772457D01*
X162324608Y-63896399D01*
X162368473Y-63941661D01*
X162480758Y-64073865D01*
X162573972Y-64211832D01*
X162650719Y-64359750D01*
X162713603Y-64521803D01*
X162717420Y-64533391D01*
X162767507Y-64719392D01*
X162800899Y-64915521D01*
X162817584Y-65117568D01*
X162817551Y-65321325D01*
X162800791Y-65522581D01*
X162767292Y-65717128D01*
X162717044Y-65900756D01*
X162673190Y-66018053D01*
X162595348Y-66180951D01*
X162501828Y-66334866D01*
X162394822Y-66476671D01*
X162276519Y-66603239D01*
X162149111Y-66711441D01*
X162071606Y-66764120D01*
X161944725Y-66833750D01*
X161807243Y-66892468D01*
X161665716Y-66937587D01*
X161526702Y-66966422D01*
X161512597Y-66968106D01*
X161469153Y-66971434D01*
X161411723Y-66974275D01*
X161346122Y-66976373D01*
X161278167Y-66977468D01*
X161151378Y-66975140D01*
X161003673Y-66962136D01*
X160865779Y-66937133D01*
X160732014Y-66899318D01*
X160708562Y-66890889D01*
X160660612Y-66871408D01*
X160604140Y-66846473D01*
X160542379Y-66817722D01*
X160478563Y-66786790D01*
X160415926Y-66755315D01*
X160357703Y-66724934D01*
X160307127Y-66697283D01*
X160267433Y-66673999D01*
X160241854Y-66656718D01*
X160233625Y-66647079D01*
X160235076Y-66643984D01*
X160246250Y-66624079D01*
X160267134Y-66588420D01*
X160296265Y-66539459D01*
X160332181Y-66479646D01*
X160373420Y-66411433D01*
X160418517Y-66337271D01*
X160599785Y-66040008D01*
X160646315Y-66084539D01*
X160737723Y-66162865D01*
X160851334Y-66237439D01*
X160969122Y-66291474D01*
X161089559Y-66324290D01*
X161211117Y-66335211D01*
X161252585Y-66333868D01*
X161370080Y-66315612D01*
X161480089Y-66276617D01*
X161581430Y-66217670D01*
X161672921Y-66139557D01*
X161753380Y-66043064D01*
X161821627Y-65928978D01*
X161837908Y-65894724D01*
X161883982Y-65771240D01*
X161919106Y-65632918D01*
X161943197Y-65483561D01*
X161956173Y-65326973D01*
X161957949Y-65166956D01*
X161948443Y-65007314D01*
X161927572Y-64851850D01*
X161895252Y-64704366D01*
X161851399Y-64568667D01*
X161813982Y-64482076D01*
X161749185Y-64368688D01*
X161673772Y-64275070D01*
X161587418Y-64200959D01*
X161489795Y-64146094D01*
X161380577Y-64110212D01*
X161259439Y-64093051D01*
X161190038Y-64091880D01*
X161067168Y-64106141D01*
X160951664Y-64141241D01*
X160844953Y-64196682D01*
X160748464Y-64271964D01*
X160732720Y-64286440D01*
X160702150Y-64312962D01*
X160679809Y-64330138D01*
X160669691Y-64334787D01*
X160667706Y-64332597D01*
X160653241Y-64313721D01*
X160629400Y-64280397D01*
X160598029Y-64235380D01*
X160560974Y-64181425D01*
X160520083Y-64121285D01*
X160477202Y-64057718D01*
X160434178Y-63993476D01*
X160392857Y-63931315D01*
X160355086Y-63873991D01*
X160322712Y-63824257D01*
X160297582Y-63784868D01*
X160281542Y-63758580D01*
X160276439Y-63748147D01*
X160281050Y-63743941D01*
X160300267Y-63738933D01*
X160309838Y-63736386D01*
X160337809Y-63725249D01*
X160379448Y-63706802D01*
X160430995Y-63682725D01*
X160488690Y-63654699D01*
X160499957Y-63649154D01*
X160677687Y-63569889D01*
X160847490Y-63510385D01*
X161011430Y-63470245D01*
X161171571Y-63449071D01*
X161329977Y-63446466D01*
X161488711Y-63462033D01*
G37*
X157685994Y-65742711D02*
X157685268Y-65820158D01*
X157676689Y-65971594D01*
X157657833Y-66108283D01*
X157627837Y-66234276D01*
X157585836Y-66353625D01*
X157530969Y-66470381D01*
X157464167Y-66581179D01*
X157373363Y-66694739D01*
X157269708Y-66790211D01*
X157153887Y-66867073D01*
X157026586Y-66924797D01*
X156888489Y-66962858D01*
X156850793Y-66968666D01*
X156771752Y-66974396D01*
X156683629Y-66974583D01*
X156594236Y-66969539D01*
X156511384Y-66959578D01*
X156442887Y-66945012D01*
X156412035Y-66935364D01*
X156334730Y-66905123D01*
X156257679Y-66867617D01*
X156188200Y-66826614D01*
X156133615Y-66785879D01*
X156110916Y-66766505D01*
X156088201Y-66748662D01*
X156076779Y-66741778D01*
X156075537Y-66743424D01*
X156072728Y-66761205D01*
X156070776Y-66794370D01*
X156070045Y-66837733D01*
X156070045Y-66933689D01*
X155211896Y-66933689D01*
X155246161Y-66872974D01*
X155251355Y-66863868D01*
X155259715Y-66849249D01*
X155267288Y-66835173D01*
X155274112Y-66820540D01*
X155280227Y-66804249D01*
X155285673Y-66785198D01*
X155290487Y-66762286D01*
X155294708Y-66734413D01*
X155298377Y-66700478D01*
X155301531Y-66659379D01*
X155304211Y-66610015D01*
X155306454Y-66551286D01*
X155308299Y-66482090D01*
X155309787Y-66401326D01*
X155310955Y-66307894D01*
X155311844Y-66200692D01*
X155312491Y-66078620D01*
X155312936Y-65940576D01*
X155313218Y-65785459D01*
X155313375Y-65612168D01*
X155313448Y-65419603D01*
X155313474Y-65206662D01*
X155313485Y-65070530D01*
X156115200Y-65070530D01*
X156115200Y-66220721D01*
X156185756Y-66267089D01*
X156226417Y-66290791D01*
X156280546Y-66316639D01*
X156329689Y-66334829D01*
X156393165Y-66350551D01*
X156489331Y-66361541D01*
X156573900Y-66353365D01*
X156647219Y-66325805D01*
X156709637Y-66278642D01*
X156761502Y-66211658D01*
X156803160Y-66124633D01*
X156834962Y-66017350D01*
X156837545Y-66005009D01*
X156846000Y-65943772D01*
X156851663Y-65866692D01*
X156854576Y-65779002D01*
X156854783Y-65685934D01*
X156852330Y-65592720D01*
X156847261Y-65504594D01*
X156839619Y-65426788D01*
X156829448Y-65364533D01*
X156828167Y-65358666D01*
X156799126Y-65248121D01*
X156764610Y-65157575D01*
X156723456Y-65084953D01*
X156674499Y-65028181D01*
X156616574Y-64985184D01*
X156584620Y-64969615D01*
X156511784Y-64950722D01*
X156430443Y-64947465D01*
X156345319Y-64959389D01*
X156261133Y-64986040D01*
X156182608Y-65026962D01*
X156115200Y-65070530D01*
X155313485Y-65070530D01*
X155313493Y-64972245D01*
X155313689Y-63287378D01*
X156219017Y-63287378D01*
X156194585Y-63324067D01*
X156188318Y-63333647D01*
X156162208Y-63379981D01*
X156144469Y-63427102D01*
X156132908Y-63482251D01*
X156125331Y-63552667D01*
X156124839Y-63559650D01*
X156123062Y-63597641D01*
X156121444Y-63651576D01*
X156119999Y-63718703D01*
X156118740Y-63796271D01*
X156117680Y-63881528D01*
X156116829Y-63971724D01*
X156116203Y-64064107D01*
X156115812Y-64155925D01*
X156115670Y-64244427D01*
X156115790Y-64326862D01*
X156116183Y-64400479D01*
X156116862Y-64462526D01*
X156117841Y-64510251D01*
X156119132Y-64540904D01*
X156120747Y-64551733D01*
X156128957Y-64547333D01*
X156150647Y-64532362D01*
X156180014Y-64510448D01*
X156228879Y-64476236D01*
X156317125Y-64429714D01*
X156415916Y-64396046D01*
X156528510Y-64374231D01*
X156658164Y-64363265D01*
X156750670Y-64362219D01*
X156872011Y-64372014D01*
X156982099Y-64396174D01*
X157085389Y-64435785D01*
X157186338Y-64491932D01*
X157231503Y-64522883D01*
X157336911Y-64614115D01*
X157428538Y-64723106D01*
X157506332Y-64849726D01*
X157570241Y-64993845D01*
X157620214Y-65155332D01*
X157656198Y-65334059D01*
X157678143Y-65529895D01*
X157683900Y-65685934D01*
X157685994Y-65742711D01*
G36*
X157685994Y-65742711D02*
G01*
X157685268Y-65820158D01*
X157676689Y-65971594D01*
X157657833Y-66108283D01*
X157627837Y-66234276D01*
X157585836Y-66353625D01*
X157530969Y-66470381D01*
X157464167Y-66581179D01*
X157373363Y-66694739D01*
X157269708Y-66790211D01*
X157153887Y-66867073D01*
X157026586Y-66924797D01*
X156888489Y-66962858D01*
X156850793Y-66968666D01*
X156771752Y-66974396D01*
X156683629Y-66974583D01*
X156594236Y-66969539D01*
X156511384Y-66959578D01*
X156442887Y-66945012D01*
X156412035Y-66935364D01*
X156334730Y-66905123D01*
X156257679Y-66867617D01*
X156188200Y-66826614D01*
X156133615Y-66785879D01*
X156110916Y-66766505D01*
X156088201Y-66748662D01*
X156076779Y-66741778D01*
X156075537Y-66743424D01*
X156072728Y-66761205D01*
X156070776Y-66794370D01*
X156070045Y-66837733D01*
X156070045Y-66933689D01*
X155211896Y-66933689D01*
X155246161Y-66872974D01*
X155251355Y-66863868D01*
X155259715Y-66849249D01*
X155267288Y-66835173D01*
X155274112Y-66820540D01*
X155280227Y-66804249D01*
X155285673Y-66785198D01*
X155290487Y-66762286D01*
X155294708Y-66734413D01*
X155298377Y-66700478D01*
X155301531Y-66659379D01*
X155304211Y-66610015D01*
X155306454Y-66551286D01*
X155308299Y-66482090D01*
X155309787Y-66401326D01*
X155310955Y-66307894D01*
X155311844Y-66200692D01*
X155312491Y-66078620D01*
X155312936Y-65940576D01*
X155313218Y-65785459D01*
X155313375Y-65612168D01*
X155313448Y-65419603D01*
X155313474Y-65206662D01*
X155313485Y-65070530D01*
X156115200Y-65070530D01*
X156115200Y-66220721D01*
X156185756Y-66267089D01*
X156226417Y-66290791D01*
X156280546Y-66316639D01*
X156329689Y-66334829D01*
X156393165Y-66350551D01*
X156489331Y-66361541D01*
X156573900Y-66353365D01*
X156647219Y-66325805D01*
X156709637Y-66278642D01*
X156761502Y-66211658D01*
X156803160Y-66124633D01*
X156834962Y-66017350D01*
X156837545Y-66005009D01*
X156846000Y-65943772D01*
X156851663Y-65866692D01*
X156854576Y-65779002D01*
X156854783Y-65685934D01*
X156852330Y-65592720D01*
X156847261Y-65504594D01*
X156839619Y-65426788D01*
X156829448Y-65364533D01*
X156828167Y-65358666D01*
X156799126Y-65248121D01*
X156764610Y-65157575D01*
X156723456Y-65084953D01*
X156674499Y-65028181D01*
X156616574Y-64985184D01*
X156584620Y-64969615D01*
X156511784Y-64950722D01*
X156430443Y-64947465D01*
X156345319Y-64959389D01*
X156261133Y-64986040D01*
X156182608Y-65026962D01*
X156115200Y-65070530D01*
X155313485Y-65070530D01*
X155313493Y-64972245D01*
X155313689Y-63287378D01*
X156219017Y-63287378D01*
X156194585Y-63324067D01*
X156188318Y-63333647D01*
X156162208Y-63379981D01*
X156144469Y-63427102D01*
X156132908Y-63482251D01*
X156125331Y-63552667D01*
X156124839Y-63559650D01*
X156123062Y-63597641D01*
X156121444Y-63651576D01*
X156119999Y-63718703D01*
X156118740Y-63796271D01*
X156117680Y-63881528D01*
X156116829Y-63971724D01*
X156116203Y-64064107D01*
X156115812Y-64155925D01*
X156115670Y-64244427D01*
X156115790Y-64326862D01*
X156116183Y-64400479D01*
X156116862Y-64462526D01*
X156117841Y-64510251D01*
X156119132Y-64540904D01*
X156120747Y-64551733D01*
X156128957Y-64547333D01*
X156150647Y-64532362D01*
X156180014Y-64510448D01*
X156228879Y-64476236D01*
X156317125Y-64429714D01*
X156415916Y-64396046D01*
X156528510Y-64374231D01*
X156658164Y-64363265D01*
X156750670Y-64362219D01*
X156872011Y-64372014D01*
X156982099Y-64396174D01*
X157085389Y-64435785D01*
X157186338Y-64491932D01*
X157231503Y-64522883D01*
X157336911Y-64614115D01*
X157428538Y-64723106D01*
X157506332Y-64849726D01*
X157570241Y-64993845D01*
X157620214Y-65155332D01*
X157656198Y-65334059D01*
X157678143Y-65529895D01*
X157683900Y-65685934D01*
X157685994Y-65742711D01*
G37*
X160227755Y-66143467D02*
X160227261Y-66177363D01*
X160223632Y-66252202D01*
X160216022Y-66314401D01*
X160203688Y-66370984D01*
X160159313Y-66497076D01*
X160096400Y-66611679D01*
X160016238Y-66712568D01*
X159919740Y-66798924D01*
X159807822Y-66869932D01*
X159681397Y-66924776D01*
X159541378Y-66962638D01*
X159505149Y-66968351D01*
X159426155Y-66974313D01*
X159337841Y-66974646D01*
X159248075Y-66969659D01*
X159164722Y-66959666D01*
X159095651Y-66944978D01*
X159009187Y-66914749D01*
X158899286Y-66860057D01*
X158801956Y-66792543D01*
X158739867Y-66741556D01*
X158736605Y-66837622D01*
X158733343Y-66933689D01*
X158310450Y-66933689D01*
X158299543Y-66933686D01*
X158205056Y-66933380D01*
X158118331Y-66932616D01*
X158041837Y-66931451D01*
X157978043Y-66929942D01*
X157929418Y-66928147D01*
X157898433Y-66926121D01*
X157887556Y-66923922D01*
X157887578Y-66923463D01*
X157894614Y-66907910D01*
X157910434Y-66885071D01*
X157914734Y-66879638D01*
X157925777Y-66865606D01*
X157935311Y-66852186D01*
X157943461Y-66837722D01*
X157950352Y-66820556D01*
X157956111Y-66799034D01*
X157960862Y-66771498D01*
X157964731Y-66736292D01*
X157967844Y-66691760D01*
X157970325Y-66636246D01*
X157972300Y-66568093D01*
X157973894Y-66485645D01*
X157975234Y-66387246D01*
X157976444Y-66271239D01*
X157977649Y-66135968D01*
X157978595Y-66024586D01*
X158779378Y-66024586D01*
X158779378Y-66220462D01*
X158824048Y-66276973D01*
X158836785Y-66292212D01*
X158883604Y-66334844D01*
X158944255Y-66370672D01*
X158954897Y-66375850D01*
X158993676Y-66392745D01*
X159028692Y-66402909D01*
X159068722Y-66408325D01*
X159122541Y-66410978D01*
X159140648Y-66411383D01*
X159216011Y-66408540D01*
X159276743Y-66396620D01*
X159328452Y-66374037D01*
X159376746Y-66339211D01*
X159381803Y-66334798D01*
X159430272Y-66279160D01*
X159458459Y-66215333D01*
X159467752Y-66140282D01*
X159460520Y-66068693D01*
X159435796Y-66005645D01*
X159391249Y-65947758D01*
X159336319Y-65900808D01*
X159263894Y-65860961D01*
X159177340Y-65833263D01*
X159074670Y-65817096D01*
X158953894Y-65811842D01*
X158945007Y-65811857D01*
X158889660Y-65812655D01*
X158842736Y-65814488D01*
X158808953Y-65817111D01*
X158793028Y-65820274D01*
X158788943Y-65826741D01*
X158784572Y-65848875D01*
X158781604Y-65887988D01*
X158779914Y-65945939D01*
X158779378Y-66024586D01*
X157978595Y-66024586D01*
X157978975Y-65979778D01*
X157980228Y-65837012D01*
X157981651Y-65691942D01*
X157983176Y-65566027D01*
X157984933Y-65457436D01*
X157987051Y-65364334D01*
X157989660Y-65284891D01*
X157992890Y-65217273D01*
X157996869Y-65159649D01*
X158001728Y-65110185D01*
X158007597Y-65067050D01*
X158014604Y-65028410D01*
X158022880Y-64992434D01*
X158032554Y-64957289D01*
X158043756Y-64921142D01*
X158056616Y-64882161D01*
X158072090Y-64839091D01*
X158114994Y-64746871D01*
X158168735Y-64667099D01*
X158237576Y-64592965D01*
X158315185Y-64529405D01*
X158419761Y-64467725D01*
X158539244Y-64420202D01*
X158674508Y-64386567D01*
X158826426Y-64366552D01*
X158995872Y-64359889D01*
X159053890Y-64360287D01*
X159119398Y-64362335D01*
X159180693Y-64366704D01*
X159242097Y-64374035D01*
X159307932Y-64384969D01*
X159382520Y-64400147D01*
X159470184Y-64420209D01*
X159575245Y-64445797D01*
X159603806Y-64452820D01*
X159679054Y-64470776D01*
X159749388Y-64486820D01*
X159810567Y-64500028D01*
X159858354Y-64509474D01*
X159888511Y-64514231D01*
X159916783Y-64517910D01*
X159943060Y-64523187D01*
X159953059Y-64527942D01*
X159949952Y-64536781D01*
X159939194Y-64564072D01*
X159921864Y-64606906D01*
X159899126Y-64662425D01*
X159872147Y-64727772D01*
X159842090Y-64800089D01*
X159835493Y-64815879D01*
X159796907Y-64906484D01*
X159765768Y-64976217D01*
X159741917Y-65025405D01*
X159725198Y-65054374D01*
X159715454Y-65063452D01*
X159707766Y-65061405D01*
X159681415Y-65051760D01*
X159642982Y-65036190D01*
X159597822Y-65016815D01*
X159503293Y-64978814D01*
X159366480Y-64937780D01*
X159225289Y-64912612D01*
X159187314Y-64908611D01*
X159084059Y-64906447D01*
X158996952Y-64919622D01*
X158925129Y-64948756D01*
X158867731Y-64994466D01*
X158823896Y-65057372D01*
X158792762Y-65138092D01*
X158773470Y-65237245D01*
X158766050Y-65296224D01*
X158927936Y-65289445D01*
X159054495Y-65287813D01*
X159205951Y-65294194D01*
X159354396Y-65308777D01*
X159490578Y-65330882D01*
X159555245Y-65345821D01*
X159687490Y-65388741D01*
X159809762Y-65445340D01*
X159919685Y-65514017D01*
X160014883Y-65593170D01*
X160092980Y-65681196D01*
X160151599Y-65776493D01*
X160175595Y-65828864D01*
X160201232Y-65899590D01*
X160217478Y-65970812D01*
X160225822Y-66049712D01*
X160227690Y-66140282D01*
X160227755Y-66143467D01*
G36*
X160227755Y-66143467D02*
G01*
X160227261Y-66177363D01*
X160223632Y-66252202D01*
X160216022Y-66314401D01*
X160203688Y-66370984D01*
X160159313Y-66497076D01*
X160096400Y-66611679D01*
X160016238Y-66712568D01*
X159919740Y-66798924D01*
X159807822Y-66869932D01*
X159681397Y-66924776D01*
X159541378Y-66962638D01*
X159505149Y-66968351D01*
X159426155Y-66974313D01*
X159337841Y-66974646D01*
X159248075Y-66969659D01*
X159164722Y-66959666D01*
X159095651Y-66944978D01*
X159009187Y-66914749D01*
X158899286Y-66860057D01*
X158801956Y-66792543D01*
X158739867Y-66741556D01*
X158736605Y-66837622D01*
X158733343Y-66933689D01*
X158310450Y-66933689D01*
X158299543Y-66933686D01*
X158205056Y-66933380D01*
X158118331Y-66932616D01*
X158041837Y-66931451D01*
X157978043Y-66929942D01*
X157929418Y-66928147D01*
X157898433Y-66926121D01*
X157887556Y-66923922D01*
X157887578Y-66923463D01*
X157894614Y-66907910D01*
X157910434Y-66885071D01*
X157914734Y-66879638D01*
X157925777Y-66865606D01*
X157935311Y-66852186D01*
X157943461Y-66837722D01*
X157950352Y-66820556D01*
X157956111Y-66799034D01*
X157960862Y-66771498D01*
X157964731Y-66736292D01*
X157967844Y-66691760D01*
X157970325Y-66636246D01*
X157972300Y-66568093D01*
X157973894Y-66485645D01*
X157975234Y-66387246D01*
X157976444Y-66271239D01*
X157977649Y-66135968D01*
X157978595Y-66024586D01*
X158779378Y-66024586D01*
X158779378Y-66220462D01*
X158824048Y-66276973D01*
X158836785Y-66292212D01*
X158883604Y-66334844D01*
X158944255Y-66370672D01*
X158954897Y-66375850D01*
X158993676Y-66392745D01*
X159028692Y-66402909D01*
X159068722Y-66408325D01*
X159122541Y-66410978D01*
X159140648Y-66411383D01*
X159216011Y-66408540D01*
X159276743Y-66396620D01*
X159328452Y-66374037D01*
X159376746Y-66339211D01*
X159381803Y-66334798D01*
X159430272Y-66279160D01*
X159458459Y-66215333D01*
X159467752Y-66140282D01*
X159460520Y-66068693D01*
X159435796Y-66005645D01*
X159391249Y-65947758D01*
X159336319Y-65900808D01*
X159263894Y-65860961D01*
X159177340Y-65833263D01*
X159074670Y-65817096D01*
X158953894Y-65811842D01*
X158945007Y-65811857D01*
X158889660Y-65812655D01*
X158842736Y-65814488D01*
X158808953Y-65817111D01*
X158793028Y-65820274D01*
X158788943Y-65826741D01*
X158784572Y-65848875D01*
X158781604Y-65887988D01*
X158779914Y-65945939D01*
X158779378Y-66024586D01*
X157978595Y-66024586D01*
X157978975Y-65979778D01*
X157980228Y-65837012D01*
X157981651Y-65691942D01*
X157983176Y-65566027D01*
X157984933Y-65457436D01*
X157987051Y-65364334D01*
X157989660Y-65284891D01*
X157992890Y-65217273D01*
X157996869Y-65159649D01*
X158001728Y-65110185D01*
X158007597Y-65067050D01*
X158014604Y-65028410D01*
X158022880Y-64992434D01*
X158032554Y-64957289D01*
X158043756Y-64921142D01*
X158056616Y-64882161D01*
X158072090Y-64839091D01*
X158114994Y-64746871D01*
X158168735Y-64667099D01*
X158237576Y-64592965D01*
X158315185Y-64529405D01*
X158419761Y-64467725D01*
X158539244Y-64420202D01*
X158674508Y-64386567D01*
X158826426Y-64366552D01*
X158995872Y-64359889D01*
X159053890Y-64360287D01*
X159119398Y-64362335D01*
X159180693Y-64366704D01*
X159242097Y-64374035D01*
X159307932Y-64384969D01*
X159382520Y-64400147D01*
X159470184Y-64420209D01*
X159575245Y-64445797D01*
X159603806Y-64452820D01*
X159679054Y-64470776D01*
X159749388Y-64486820D01*
X159810567Y-64500028D01*
X159858354Y-64509474D01*
X159888511Y-64514231D01*
X159916783Y-64517910D01*
X159943060Y-64523187D01*
X159953059Y-64527942D01*
X159949952Y-64536781D01*
X159939194Y-64564072D01*
X159921864Y-64606906D01*
X159899126Y-64662425D01*
X159872147Y-64727772D01*
X159842090Y-64800089D01*
X159835493Y-64815879D01*
X159796907Y-64906484D01*
X159765768Y-64976217D01*
X159741917Y-65025405D01*
X159725198Y-65054374D01*
X159715454Y-65063452D01*
X159707766Y-65061405D01*
X159681415Y-65051760D01*
X159642982Y-65036190D01*
X159597822Y-65016815D01*
X159503293Y-64978814D01*
X159366480Y-64937780D01*
X159225289Y-64912612D01*
X159187314Y-64908611D01*
X159084059Y-64906447D01*
X158996952Y-64919622D01*
X158925129Y-64948756D01*
X158867731Y-64994466D01*
X158823896Y-65057372D01*
X158792762Y-65138092D01*
X158773470Y-65237245D01*
X158766050Y-65296224D01*
X158927936Y-65289445D01*
X159054495Y-65287813D01*
X159205951Y-65294194D01*
X159354396Y-65308777D01*
X159490578Y-65330882D01*
X159555245Y-65345821D01*
X159687490Y-65388741D01*
X159809762Y-65445340D01*
X159919685Y-65514017D01*
X160014883Y-65593170D01*
X160092980Y-65681196D01*
X160151599Y-65776493D01*
X160175595Y-65828864D01*
X160201232Y-65899590D01*
X160217478Y-65970812D01*
X160225822Y-66049712D01*
X160227690Y-66140282D01*
X160227755Y-66143467D01*
G37*
X167775614Y-63611792D02*
X167776059Y-63743011D01*
X167776362Y-63890216D01*
X167776548Y-64054349D01*
X167776642Y-64236352D01*
X167776671Y-64437165D01*
X167776661Y-64657732D01*
X167776636Y-64898992D01*
X167776622Y-65161889D01*
X167776622Y-65204040D01*
X167776646Y-65464668D01*
X167776685Y-65703796D01*
X167776708Y-65922360D01*
X167776687Y-66121295D01*
X167776593Y-66301535D01*
X167776395Y-66464015D01*
X167776063Y-66609670D01*
X167775569Y-66739434D01*
X167774883Y-66854243D01*
X167773976Y-66955030D01*
X167772817Y-67042730D01*
X167771378Y-67118279D01*
X167769629Y-67182611D01*
X167767540Y-67236661D01*
X167765083Y-67281363D01*
X167762227Y-67317652D01*
X167758943Y-67346463D01*
X167755202Y-67368731D01*
X167750974Y-67385390D01*
X167746229Y-67397375D01*
X167740939Y-67405621D01*
X167735073Y-67411062D01*
X167728602Y-67414634D01*
X167721497Y-67417270D01*
X167713728Y-67419906D01*
X167705266Y-67423477D01*
X167700908Y-67425145D01*
X167692395Y-67427111D01*
X167679694Y-67428911D01*
X167661885Y-67430555D01*
X167638049Y-67432047D01*
X167607266Y-67433397D01*
X167568617Y-67434611D01*
X167521182Y-67435697D01*
X167464043Y-67436661D01*
X167396279Y-67437511D01*
X167316971Y-67438253D01*
X167225199Y-67438897D01*
X167120044Y-67439447D01*
X167000587Y-67439913D01*
X166865908Y-67440300D01*
X166715088Y-67440616D01*
X166547206Y-67440869D01*
X166361345Y-67441066D01*
X166156583Y-67441213D01*
X165932002Y-67441318D01*
X165686682Y-67441389D01*
X165419704Y-67441432D01*
X165381321Y-67441437D01*
X165115922Y-67441480D01*
X164872050Y-67441525D01*
X164648783Y-67441548D01*
X164445196Y-67441524D01*
X164260367Y-67441430D01*
X164093373Y-67441243D01*
X163943290Y-67440939D01*
X163809196Y-67440494D01*
X163690166Y-67439885D01*
X163585279Y-67439089D01*
X163493610Y-67438080D01*
X163414237Y-67436837D01*
X163346237Y-67435335D01*
X163288686Y-67433551D01*
X163240662Y-67431461D01*
X163201240Y-67429042D01*
X163169499Y-67426270D01*
X163144514Y-67423121D01*
X163125364Y-67419572D01*
X163111123Y-67415598D01*
X163100871Y-67411178D01*
X163093682Y-67406286D01*
X163088635Y-67400900D01*
X163084805Y-67394996D01*
X163081271Y-67388549D01*
X163077108Y-67381537D01*
X163076025Y-67379687D01*
X163073813Y-67374180D01*
X163071786Y-67365868D01*
X163069938Y-67353809D01*
X163068261Y-67337063D01*
X163066745Y-67314687D01*
X163065383Y-67285740D01*
X163064167Y-67249280D01*
X163063089Y-67204367D01*
X163062140Y-67150057D01*
X163061312Y-67085410D01*
X163060597Y-67009484D01*
X163059987Y-66921338D01*
X163059942Y-66912493D01*
X163351378Y-66912493D01*
X163355260Y-66913765D01*
X163378520Y-66915791D01*
X163420874Y-66917626D01*
X163480132Y-66919227D01*
X163554107Y-66920549D01*
X163640610Y-66921548D01*
X163737452Y-66922180D01*
X163842445Y-66922400D01*
X164540651Y-66922400D01*
X165695090Y-66922400D01*
X165694456Y-66846200D01*
X165695574Y-66804160D01*
X165701304Y-66768334D01*
X165713890Y-66730772D01*
X165735568Y-66682577D01*
X165738789Y-66675897D01*
X165764188Y-66626359D01*
X165790996Y-66578369D01*
X165813917Y-66541466D01*
X165818485Y-66534834D01*
X165840516Y-66503593D01*
X165872693Y-66458654D01*
X165913457Y-66402147D01*
X165961245Y-66336204D01*
X166014498Y-66262957D01*
X166071655Y-66184536D01*
X166131155Y-66103072D01*
X166191437Y-66020698D01*
X166250940Y-65939544D01*
X166308105Y-65861742D01*
X166361370Y-65789423D01*
X166409174Y-65724718D01*
X166449957Y-65669759D01*
X166482158Y-65626676D01*
X166504216Y-65597602D01*
X166514571Y-65584667D01*
X166519044Y-65580351D01*
X166523236Y-65578312D01*
X166526643Y-65580926D01*
X166529325Y-65589986D01*
X166531341Y-65607285D01*
X166532748Y-65634614D01*
X166533605Y-65673765D01*
X166533970Y-65726533D01*
X166533903Y-65794707D01*
X166533460Y-65880082D01*
X166532702Y-65984449D01*
X166531685Y-66109600D01*
X166531308Y-66154300D01*
X166530169Y-66275395D01*
X166528972Y-66376688D01*
X166527636Y-66460262D01*
X166526077Y-66528204D01*
X166524215Y-66582599D01*
X166521966Y-66625532D01*
X166519248Y-66659089D01*
X166515979Y-66685355D01*
X166512078Y-66706416D01*
X166507461Y-66724357D01*
X166499192Y-66750770D01*
X166475583Y-66812772D01*
X166449685Y-66865573D01*
X166424535Y-66902645D01*
X166423339Y-66904075D01*
X166421168Y-66908424D01*
X166423328Y-66912026D01*
X166431644Y-66914951D01*
X166447940Y-66917269D01*
X166474041Y-66919051D01*
X166511771Y-66920367D01*
X166562956Y-66921286D01*
X166629420Y-66921878D01*
X166712987Y-66922215D01*
X166815483Y-66922365D01*
X166938732Y-66922400D01*
X167470296Y-66922400D01*
X167431523Y-66864783D01*
X167425432Y-66855893D01*
X167414976Y-66841069D01*
X167405579Y-66827422D01*
X167397183Y-66813765D01*
X167389733Y-66798911D01*
X167383173Y-66781670D01*
X167377446Y-66760855D01*
X167372495Y-66735280D01*
X167368266Y-66703755D01*
X167364701Y-66665093D01*
X167361744Y-66618107D01*
X167359340Y-66561608D01*
X167357431Y-66494409D01*
X167355962Y-66415322D01*
X167354876Y-66323160D01*
X167354118Y-66216734D01*
X167353630Y-66094857D01*
X167353358Y-65956341D01*
X167353243Y-65799999D01*
X167353231Y-65624642D01*
X167353265Y-65429082D01*
X167353289Y-65212133D01*
X167353280Y-65089513D01*
X167353243Y-64884447D01*
X167353227Y-64700116D01*
X167353288Y-64535334D01*
X167353484Y-64388916D01*
X167353870Y-64259674D01*
X167354505Y-64146422D01*
X167355444Y-64047975D01*
X167356745Y-63963144D01*
X167358464Y-63890744D01*
X167360659Y-63829589D01*
X167363385Y-63778492D01*
X167366701Y-63736267D01*
X167370662Y-63701727D01*
X167375325Y-63673686D01*
X167380747Y-63650958D01*
X167386986Y-63632356D01*
X167394097Y-63616693D01*
X167402138Y-63602784D01*
X167411166Y-63589441D01*
X167421236Y-63575479D01*
X167432407Y-63559711D01*
X167472197Y-63501867D01*
X166412314Y-63501867D01*
X166450311Y-63564966D01*
X166464993Y-63590005D01*
X166479531Y-63617586D01*
X166491627Y-63645700D01*
X166501532Y-63676551D01*
X166509494Y-63712344D01*
X166515761Y-63755283D01*
X166520582Y-63807574D01*
X166524206Y-63871419D01*
X166526881Y-63949025D01*
X166528857Y-64042594D01*
X166530382Y-64154333D01*
X166531704Y-64286445D01*
X166532613Y-64406434D01*
X166533020Y-64523063D01*
X166532767Y-64618531D01*
X166531857Y-64692556D01*
X166530293Y-64744855D01*
X166528079Y-64775149D01*
X166525220Y-64783156D01*
X166522161Y-64779858D01*
X166504006Y-64758408D01*
X166474275Y-64721889D01*
X166434639Y-64672442D01*
X166386771Y-64612207D01*
X166332343Y-64543327D01*
X166273027Y-64467943D01*
X166210495Y-64388196D01*
X166146421Y-64306228D01*
X166082475Y-64224180D01*
X166020331Y-64144194D01*
X165961661Y-64068411D01*
X165908137Y-63998973D01*
X165861430Y-63938021D01*
X165823214Y-63887696D01*
X165795161Y-63850140D01*
X165778943Y-63827495D01*
X165733635Y-63755212D01*
X165693661Y-63675463D01*
X165672130Y-63607188D01*
X165668827Y-63549844D01*
X165674116Y-63501867D01*
X164542356Y-63502117D01*
X164581867Y-63532722D01*
X164591248Y-63540089D01*
X164654183Y-63594438D01*
X164722997Y-63662259D01*
X164799596Y-63745516D01*
X164885888Y-63846178D01*
X164903052Y-63866847D01*
X164943833Y-63916409D01*
X164993588Y-63977326D01*
X165050955Y-64047898D01*
X165114569Y-64126424D01*
X165183069Y-64211204D01*
X165255090Y-64300537D01*
X165329270Y-64392722D01*
X165344517Y-64411702D01*
X165404246Y-64486060D01*
X165478653Y-64578848D01*
X165551131Y-64669388D01*
X165620314Y-64755978D01*
X165684841Y-64836918D01*
X165743347Y-64910506D01*
X165794470Y-64975044D01*
X165836847Y-65028829D01*
X165869115Y-65070162D01*
X165889910Y-65097342D01*
X165897869Y-65108668D01*
X165896111Y-65112771D01*
X165883230Y-65133334D01*
X165858885Y-65169561D01*
X165824247Y-65219824D01*
X165780486Y-65282492D01*
X165728775Y-65355936D01*
X165670284Y-65438527D01*
X165606184Y-65528636D01*
X165537646Y-65624631D01*
X165465843Y-65724885D01*
X165391944Y-65827768D01*
X165317121Y-65931650D01*
X165242545Y-66034901D01*
X165169387Y-66135892D01*
X165098819Y-66232994D01*
X165032011Y-66324577D01*
X164970135Y-66409011D01*
X164914361Y-66484667D01*
X164865862Y-66549916D01*
X164825807Y-66603128D01*
X164795369Y-66642673D01*
X164774944Y-66668026D01*
X164728899Y-66722295D01*
X164678612Y-66778775D01*
X164631815Y-66828669D01*
X164540651Y-66922400D01*
X163842445Y-66922400D01*
X163911356Y-66922349D01*
X164009607Y-66922091D01*
X164099030Y-66921637D01*
X164177333Y-66921010D01*
X164242223Y-66920235D01*
X164291411Y-66919335D01*
X164322604Y-66918334D01*
X164333511Y-66917257D01*
X164332322Y-66914037D01*
X164322176Y-66896452D01*
X164305040Y-66870158D01*
X164296540Y-66857691D01*
X164287329Y-66843622D01*
X164279233Y-66829351D01*
X164272185Y-66813479D01*
X164266117Y-66794609D01*
X164260961Y-66771341D01*
X164256651Y-66742278D01*
X164253119Y-66706021D01*
X164250297Y-66661170D01*
X164248118Y-66606328D01*
X164246514Y-66540097D01*
X164245419Y-66461077D01*
X164244765Y-66367871D01*
X164244484Y-66259079D01*
X164244509Y-66133303D01*
X164244772Y-65989145D01*
X164245206Y-65825207D01*
X164245745Y-65640089D01*
X164246279Y-65461232D01*
X164246805Y-65302374D01*
X164247350Y-65163316D01*
X164247945Y-65042665D01*
X164248619Y-64939028D01*
X164249403Y-64851011D01*
X164250326Y-64777223D01*
X164251419Y-64716269D01*
X164252712Y-64666757D01*
X164254235Y-64627293D01*
X164256019Y-64596484D01*
X164258092Y-64572938D01*
X164260486Y-64555260D01*
X164263230Y-64542059D01*
X164266356Y-64531940D01*
X164269892Y-64523511D01*
X164273791Y-64515375D01*
X164293438Y-64478544D01*
X164312225Y-64448391D01*
X164313272Y-64446908D01*
X164327602Y-64424659D01*
X164333511Y-64411702D01*
X164332504Y-64411249D01*
X164315305Y-64409803D01*
X164278656Y-64408480D01*
X164224962Y-64407316D01*
X164156630Y-64406347D01*
X164076064Y-64405611D01*
X163985670Y-64405142D01*
X163887853Y-64404978D01*
X163442195Y-64404978D01*
X163439120Y-65581845D01*
X163436045Y-66758711D01*
X163409407Y-66817622D01*
X163397485Y-66842183D01*
X163380246Y-66872434D01*
X163367074Y-66889560D01*
X163359076Y-66897591D01*
X163351378Y-66912493D01*
X163059942Y-66912493D01*
X163059474Y-66820029D01*
X163059050Y-66704617D01*
X163058706Y-66574160D01*
X163058434Y-66427716D01*
X163058227Y-66264344D01*
X163058076Y-66083101D01*
X163057972Y-65883048D01*
X163057908Y-65663241D01*
X163057876Y-65422739D01*
X163057867Y-65160602D01*
X163057867Y-62969031D01*
X163096249Y-62930649D01*
X163123355Y-62906911D01*
X163150253Y-62895111D01*
X163186560Y-62892267D01*
X163238489Y-62892267D01*
X163238489Y-62980206D01*
X163240427Y-63030102D01*
X163259199Y-63140523D01*
X163296217Y-63241987D01*
X163349369Y-63333152D01*
X163416546Y-63412673D01*
X163495638Y-63479205D01*
X163584534Y-63531406D01*
X163681125Y-63567930D01*
X163783300Y-63587434D01*
X163888950Y-63588573D01*
X163995964Y-63570005D01*
X164102232Y-63530384D01*
X164199219Y-63472516D01*
X164284293Y-63397684D01*
X164353015Y-63309615D01*
X164403918Y-63210616D01*
X164435535Y-63102993D01*
X164446400Y-62989054D01*
X164446400Y-62892267D01*
X166066753Y-62892267D01*
X166277897Y-62892280D01*
X166482020Y-62892330D01*
X166665686Y-62892430D01*
X166829991Y-62892592D01*
X166976029Y-62892829D01*
X167104894Y-62893153D01*
X167217683Y-62893575D01*
X167315488Y-62894109D01*
X167399404Y-62894767D01*
X167470527Y-62895561D01*
X167529950Y-62896504D01*
X167578768Y-62897608D01*
X167618077Y-62898884D01*
X167648969Y-62900347D01*
X167672541Y-62902007D01*
X167689886Y-62903878D01*
X167702099Y-62905972D01*
X167710275Y-62908300D01*
X167715508Y-62910876D01*
X167721504Y-62914445D01*
X167728279Y-62917978D01*
X167734478Y-62921488D01*
X167740126Y-62925918D01*
X167745247Y-62932208D01*
X167749869Y-62941301D01*
X167754015Y-62954139D01*
X167757713Y-62971662D01*
X167760987Y-62994813D01*
X167763863Y-63024534D01*
X167766367Y-63061765D01*
X167768524Y-63107449D01*
X167770360Y-63162527D01*
X167771900Y-63227941D01*
X167773170Y-63304633D01*
X167774195Y-63393544D01*
X167775001Y-63495617D01*
X167775034Y-63501867D01*
X167775614Y-63611792D01*
G36*
X167775614Y-63611792D02*
G01*
X167776059Y-63743011D01*
X167776362Y-63890216D01*
X167776548Y-64054349D01*
X167776642Y-64236352D01*
X167776671Y-64437165D01*
X167776661Y-64657732D01*
X167776636Y-64898992D01*
X167776622Y-65161889D01*
X167776622Y-65204040D01*
X167776646Y-65464668D01*
X167776685Y-65703796D01*
X167776708Y-65922360D01*
X167776687Y-66121295D01*
X167776593Y-66301535D01*
X167776395Y-66464015D01*
X167776063Y-66609670D01*
X167775569Y-66739434D01*
X167774883Y-66854243D01*
X167773976Y-66955030D01*
X167772817Y-67042730D01*
X167771378Y-67118279D01*
X167769629Y-67182611D01*
X167767540Y-67236661D01*
X167765083Y-67281363D01*
X167762227Y-67317652D01*
X167758943Y-67346463D01*
X167755202Y-67368731D01*
X167750974Y-67385390D01*
X167746229Y-67397375D01*
X167740939Y-67405621D01*
X167735073Y-67411062D01*
X167728602Y-67414634D01*
X167721497Y-67417270D01*
X167713728Y-67419906D01*
X167705266Y-67423477D01*
X167700908Y-67425145D01*
X167692395Y-67427111D01*
X167679694Y-67428911D01*
X167661885Y-67430555D01*
X167638049Y-67432047D01*
X167607266Y-67433397D01*
X167568617Y-67434611D01*
X167521182Y-67435697D01*
X167464043Y-67436661D01*
X167396279Y-67437511D01*
X167316971Y-67438253D01*
X167225199Y-67438897D01*
X167120044Y-67439447D01*
X167000587Y-67439913D01*
X166865908Y-67440300D01*
X166715088Y-67440616D01*
X166547206Y-67440869D01*
X166361345Y-67441066D01*
X166156583Y-67441213D01*
X165932002Y-67441318D01*
X165686682Y-67441389D01*
X165419704Y-67441432D01*
X165381321Y-67441437D01*
X165115922Y-67441480D01*
X164872050Y-67441525D01*
X164648783Y-67441548D01*
X164445196Y-67441524D01*
X164260367Y-67441430D01*
X164093373Y-67441243D01*
X163943290Y-67440939D01*
X163809196Y-67440494D01*
X163690166Y-67439885D01*
X163585279Y-67439089D01*
X163493610Y-67438080D01*
X163414237Y-67436837D01*
X163346237Y-67435335D01*
X163288686Y-67433551D01*
X163240662Y-67431461D01*
X163201240Y-67429042D01*
X163169499Y-67426270D01*
X163144514Y-67423121D01*
X163125364Y-67419572D01*
X163111123Y-67415598D01*
X163100871Y-67411178D01*
X163093682Y-67406286D01*
X163088635Y-67400900D01*
X163084805Y-67394996D01*
X163081271Y-67388549D01*
X163077108Y-67381537D01*
X163076025Y-67379687D01*
X163073813Y-67374180D01*
X163071786Y-67365868D01*
X163069938Y-67353809D01*
X163068261Y-67337063D01*
X163066745Y-67314687D01*
X163065383Y-67285740D01*
X163064167Y-67249280D01*
X163063089Y-67204367D01*
X163062140Y-67150057D01*
X163061312Y-67085410D01*
X163060597Y-67009484D01*
X163059987Y-66921338D01*
X163059942Y-66912493D01*
X163351378Y-66912493D01*
X163355260Y-66913765D01*
X163378520Y-66915791D01*
X163420874Y-66917626D01*
X163480132Y-66919227D01*
X163554107Y-66920549D01*
X163640610Y-66921548D01*
X163737452Y-66922180D01*
X163842445Y-66922400D01*
X164540651Y-66922400D01*
X165695090Y-66922400D01*
X165694456Y-66846200D01*
X165695574Y-66804160D01*
X165701304Y-66768334D01*
X165713890Y-66730772D01*
X165735568Y-66682577D01*
X165738789Y-66675897D01*
X165764188Y-66626359D01*
X165790996Y-66578369D01*
X165813917Y-66541466D01*
X165818485Y-66534834D01*
X165840516Y-66503593D01*
X165872693Y-66458654D01*
X165913457Y-66402147D01*
X165961245Y-66336204D01*
X166014498Y-66262957D01*
X166071655Y-66184536D01*
X166131155Y-66103072D01*
X166191437Y-66020698D01*
X166250940Y-65939544D01*
X166308105Y-65861742D01*
X166361370Y-65789423D01*
X166409174Y-65724718D01*
X166449957Y-65669759D01*
X166482158Y-65626676D01*
X166504216Y-65597602D01*
X166514571Y-65584667D01*
X166519044Y-65580351D01*
X166523236Y-65578312D01*
X166526643Y-65580926D01*
X166529325Y-65589986D01*
X166531341Y-65607285D01*
X166532748Y-65634614D01*
X166533605Y-65673765D01*
X166533970Y-65726533D01*
X166533903Y-65794707D01*
X166533460Y-65880082D01*
X166532702Y-65984449D01*
X166531685Y-66109600D01*
X166531308Y-66154300D01*
X166530169Y-66275395D01*
X166528972Y-66376688D01*
X166527636Y-66460262D01*
X166526077Y-66528204D01*
X166524215Y-66582599D01*
X166521966Y-66625532D01*
X166519248Y-66659089D01*
X166515979Y-66685355D01*
X166512078Y-66706416D01*
X166507461Y-66724357D01*
X166499192Y-66750770D01*
X166475583Y-66812772D01*
X166449685Y-66865573D01*
X166424535Y-66902645D01*
X166423339Y-66904075D01*
X166421168Y-66908424D01*
X166423328Y-66912026D01*
X166431644Y-66914951D01*
X166447940Y-66917269D01*
X166474041Y-66919051D01*
X166511771Y-66920367D01*
X166562956Y-66921286D01*
X166629420Y-66921878D01*
X166712987Y-66922215D01*
X166815483Y-66922365D01*
X166938732Y-66922400D01*
X167470296Y-66922400D01*
X167431523Y-66864783D01*
X167425432Y-66855893D01*
X167414976Y-66841069D01*
X167405579Y-66827422D01*
X167397183Y-66813765D01*
X167389733Y-66798911D01*
X167383173Y-66781670D01*
X167377446Y-66760855D01*
X167372495Y-66735280D01*
X167368266Y-66703755D01*
X167364701Y-66665093D01*
X167361744Y-66618107D01*
X167359340Y-66561608D01*
X167357431Y-66494409D01*
X167355962Y-66415322D01*
X167354876Y-66323160D01*
X167354118Y-66216734D01*
X167353630Y-66094857D01*
X167353358Y-65956341D01*
X167353243Y-65799999D01*
X167353231Y-65624642D01*
X167353265Y-65429082D01*
X167353289Y-65212133D01*
X167353280Y-65089513D01*
X167353243Y-64884447D01*
X167353227Y-64700116D01*
X167353288Y-64535334D01*
X167353484Y-64388916D01*
X167353870Y-64259674D01*
X167354505Y-64146422D01*
X167355444Y-64047975D01*
X167356745Y-63963144D01*
X167358464Y-63890744D01*
X167360659Y-63829589D01*
X167363385Y-63778492D01*
X167366701Y-63736267D01*
X167370662Y-63701727D01*
X167375325Y-63673686D01*
X167380747Y-63650958D01*
X167386986Y-63632356D01*
X167394097Y-63616693D01*
X167402138Y-63602784D01*
X167411166Y-63589441D01*
X167421236Y-63575479D01*
X167432407Y-63559711D01*
X167472197Y-63501867D01*
X166412314Y-63501867D01*
X166450311Y-63564966D01*
X166464993Y-63590005D01*
X166479531Y-63617586D01*
X166491627Y-63645700D01*
X166501532Y-63676551D01*
X166509494Y-63712344D01*
X166515761Y-63755283D01*
X166520582Y-63807574D01*
X166524206Y-63871419D01*
X166526881Y-63949025D01*
X166528857Y-64042594D01*
X166530382Y-64154333D01*
X166531704Y-64286445D01*
X166532613Y-64406434D01*
X166533020Y-64523063D01*
X166532767Y-64618531D01*
X166531857Y-64692556D01*
X166530293Y-64744855D01*
X166528079Y-64775149D01*
X166525220Y-64783156D01*
X166522161Y-64779858D01*
X166504006Y-64758408D01*
X166474275Y-64721889D01*
X166434639Y-64672442D01*
X166386771Y-64612207D01*
X166332343Y-64543327D01*
X166273027Y-64467943D01*
X166210495Y-64388196D01*
X166146421Y-64306228D01*
X166082475Y-64224180D01*
X166020331Y-64144194D01*
X165961661Y-64068411D01*
X165908137Y-63998973D01*
X165861430Y-63938021D01*
X165823214Y-63887696D01*
X165795161Y-63850140D01*
X165778943Y-63827495D01*
X165733635Y-63755212D01*
X165693661Y-63675463D01*
X165672130Y-63607188D01*
X165668827Y-63549844D01*
X165674116Y-63501867D01*
X164542356Y-63502117D01*
X164581867Y-63532722D01*
X164591248Y-63540089D01*
X164654183Y-63594438D01*
X164722997Y-63662259D01*
X164799596Y-63745516D01*
X164885888Y-63846178D01*
X164903052Y-63866847D01*
X164943833Y-63916409D01*
X164993588Y-63977326D01*
X165050955Y-64047898D01*
X165114569Y-64126424D01*
X165183069Y-64211204D01*
X165255090Y-64300537D01*
X165329270Y-64392722D01*
X165344517Y-64411702D01*
X165404246Y-64486060D01*
X165478653Y-64578848D01*
X165551131Y-64669388D01*
X165620314Y-64755978D01*
X165684841Y-64836918D01*
X165743347Y-64910506D01*
X165794470Y-64975044D01*
X165836847Y-65028829D01*
X165869115Y-65070162D01*
X165889910Y-65097342D01*
X165897869Y-65108668D01*
X165896111Y-65112771D01*
X165883230Y-65133334D01*
X165858885Y-65169561D01*
X165824247Y-65219824D01*
X165780486Y-65282492D01*
X165728775Y-65355936D01*
X165670284Y-65438527D01*
X165606184Y-65528636D01*
X165537646Y-65624631D01*
X165465843Y-65724885D01*
X165391944Y-65827768D01*
X165317121Y-65931650D01*
X165242545Y-66034901D01*
X165169387Y-66135892D01*
X165098819Y-66232994D01*
X165032011Y-66324577D01*
X164970135Y-66409011D01*
X164914361Y-66484667D01*
X164865862Y-66549916D01*
X164825807Y-66603128D01*
X164795369Y-66642673D01*
X164774944Y-66668026D01*
X164728899Y-66722295D01*
X164678612Y-66778775D01*
X164631815Y-66828669D01*
X164540651Y-66922400D01*
X163842445Y-66922400D01*
X163911356Y-66922349D01*
X164009607Y-66922091D01*
X164099030Y-66921637D01*
X164177333Y-66921010D01*
X164242223Y-66920235D01*
X164291411Y-66919335D01*
X164322604Y-66918334D01*
X164333511Y-66917257D01*
X164332322Y-66914037D01*
X164322176Y-66896452D01*
X164305040Y-66870158D01*
X164296540Y-66857691D01*
X164287329Y-66843622D01*
X164279233Y-66829351D01*
X164272185Y-66813479D01*
X164266117Y-66794609D01*
X164260961Y-66771341D01*
X164256651Y-66742278D01*
X164253119Y-66706021D01*
X164250297Y-66661170D01*
X164248118Y-66606328D01*
X164246514Y-66540097D01*
X164245419Y-66461077D01*
X164244765Y-66367871D01*
X164244484Y-66259079D01*
X164244509Y-66133303D01*
X164244772Y-65989145D01*
X164245206Y-65825207D01*
X164245745Y-65640089D01*
X164246279Y-65461232D01*
X164246805Y-65302374D01*
X164247350Y-65163316D01*
X164247945Y-65042665D01*
X164248619Y-64939028D01*
X164249403Y-64851011D01*
X164250326Y-64777223D01*
X164251419Y-64716269D01*
X164252712Y-64666757D01*
X164254235Y-64627293D01*
X164256019Y-64596484D01*
X164258092Y-64572938D01*
X164260486Y-64555260D01*
X164263230Y-64542059D01*
X164266356Y-64531940D01*
X164269892Y-64523511D01*
X164273791Y-64515375D01*
X164293438Y-64478544D01*
X164312225Y-64448391D01*
X164313272Y-64446908D01*
X164327602Y-64424659D01*
X164333511Y-64411702D01*
X164332504Y-64411249D01*
X164315305Y-64409803D01*
X164278656Y-64408480D01*
X164224962Y-64407316D01*
X164156630Y-64406347D01*
X164076064Y-64405611D01*
X163985670Y-64405142D01*
X163887853Y-64404978D01*
X163442195Y-64404978D01*
X163439120Y-65581845D01*
X163436045Y-66758711D01*
X163409407Y-66817622D01*
X163397485Y-66842183D01*
X163380246Y-66872434D01*
X163367074Y-66889560D01*
X163359076Y-66897591D01*
X163351378Y-66912493D01*
X163059942Y-66912493D01*
X163059474Y-66820029D01*
X163059050Y-66704617D01*
X163058706Y-66574160D01*
X163058434Y-66427716D01*
X163058227Y-66264344D01*
X163058076Y-66083101D01*
X163057972Y-65883048D01*
X163057908Y-65663241D01*
X163057876Y-65422739D01*
X163057867Y-65160602D01*
X163057867Y-62969031D01*
X163096249Y-62930649D01*
X163123355Y-62906911D01*
X163150253Y-62895111D01*
X163186560Y-62892267D01*
X163238489Y-62892267D01*
X163238489Y-62980206D01*
X163240427Y-63030102D01*
X163259199Y-63140523D01*
X163296217Y-63241987D01*
X163349369Y-63333152D01*
X163416546Y-63412673D01*
X163495638Y-63479205D01*
X163584534Y-63531406D01*
X163681125Y-63567930D01*
X163783300Y-63587434D01*
X163888950Y-63588573D01*
X163995964Y-63570005D01*
X164102232Y-63530384D01*
X164199219Y-63472516D01*
X164284293Y-63397684D01*
X164353015Y-63309615D01*
X164403918Y-63210616D01*
X164435535Y-63102993D01*
X164446400Y-62989054D01*
X164446400Y-62892267D01*
X166066753Y-62892267D01*
X166277897Y-62892280D01*
X166482020Y-62892330D01*
X166665686Y-62892430D01*
X166829991Y-62892592D01*
X166976029Y-62892829D01*
X167104894Y-62893153D01*
X167217683Y-62893575D01*
X167315488Y-62894109D01*
X167399404Y-62894767D01*
X167470527Y-62895561D01*
X167529950Y-62896504D01*
X167578768Y-62897608D01*
X167618077Y-62898884D01*
X167648969Y-62900347D01*
X167672541Y-62902007D01*
X167689886Y-62903878D01*
X167702099Y-62905972D01*
X167710275Y-62908300D01*
X167715508Y-62910876D01*
X167721504Y-62914445D01*
X167728279Y-62917978D01*
X167734478Y-62921488D01*
X167740126Y-62925918D01*
X167745247Y-62932208D01*
X167749869Y-62941301D01*
X167754015Y-62954139D01*
X167757713Y-62971662D01*
X167760987Y-62994813D01*
X167763863Y-63024534D01*
X167766367Y-63061765D01*
X167768524Y-63107449D01*
X167770360Y-63162527D01*
X167771900Y-63227941D01*
X167773170Y-63304633D01*
X167774195Y-63393544D01*
X167775001Y-63495617D01*
X167775034Y-63501867D01*
X167775614Y-63611792D01*
G37*
%TD*%
M02*
