%TF.GenerationSoftware,KiCad,Pcbnew,9.0.0*%
%TF.CreationDate,2025-11-11T15:09:18+01:00*%
%TF.ProjectId,lidar_and_7_camera_trigger_arduino_circuit,6c696461-725f-4616-9e64-5f375f63616d,1.0*%
%TF.SameCoordinates,Original*%
%TF.FileFunction,Copper,L2,Bot*%
%TF.FilePolarity,Positive*%
%FSLAX46Y46*%
G04 Gerber Fmt 4.6, Leading zero omitted, Abs format (unit mm)*
G04 Created by KiCad (PCBNEW 9.0.0) date 2025-11-11 15:09:18*
%MOMM*%
%LPD*%
G01*
G04 APERTURE LIST*
G04 Aperture macros list*
%AMRoundRect*
0 Rectangle with rounded corners*
0 $1 Rounding radius*
0 $2 $3 $4 $5 $6 $7 $8 $9 X,Y pos of 4 corners*
0 Add a 4 corners polygon primitive as box body*
4,1,4,$2,$3,$4,$5,$6,$7,$8,$9,$2,$3,0*
0 Add four circle primitives for the rounded corners*
1,1,$1+$1,$2,$3*
1,1,$1+$1,$4,$5*
1,1,$1+$1,$6,$7*
1,1,$1+$1,$8,$9*
0 Add four rect primitives between the rounded corners*
20,1,$1+$1,$2,$3,$4,$5,0*
20,1,$1+$1,$4,$5,$6,$7,0*
20,1,$1+$1,$6,$7,$8,$9,0*
20,1,$1+$1,$8,$9,$2,$3,0*%
G04 Aperture macros list end*
%TA.AperFunction,ComponentPad*%
%ADD10C,2.600000*%
%TD*%
%TA.AperFunction,ComponentPad*%
%ADD11RoundRect,0.250000X-1.050000X1.050000X-1.050000X-1.050000X1.050000X-1.050000X1.050000X1.050000X0*%
%TD*%
%TA.AperFunction,ComponentPad*%
%ADD12RoundRect,0.250000X1.050000X-1.050000X1.050000X1.050000X-1.050000X1.050000X-1.050000X-1.050000X0*%
%TD*%
%TA.AperFunction,ComponentPad*%
%ADD13R,1.600000X1.600000*%
%TD*%
%TA.AperFunction,ComponentPad*%
%ADD14O,1.600000X1.600000*%
%TD*%
G04 APERTURE END LIST*
D10*
%TO.P,J2,2,Pin_2*%
%TO.N,Net-(A1-D9)*%
X139400000Y-90966667D03*
D11*
%TO.P,J2,1,Pin_1*%
%TO.N,Net-(J1-Pin_1)*%
X139400000Y-85966667D03*
%TD*%
D10*
%TO.P,J4,2,Pin_2*%
%TO.N,Net-(A1-D11)*%
X139400000Y-117566667D03*
D11*
%TO.P,J4,1,Pin_1*%
%TO.N,Net-(J1-Pin_1)*%
X139400000Y-112566667D03*
%TD*%
D10*
%TO.P,J1,2,Pin_2*%
%TO.N,Net-(A1-D2)*%
X139400000Y-77666667D03*
D11*
%TO.P,J1,1,Pin_1*%
%TO.N,Net-(J1-Pin_1)*%
X139400000Y-72666667D03*
%TD*%
D10*
%TO.P,J3,2,Pin_2*%
%TO.N,Net-(A1-D10)*%
X139400000Y-104266667D03*
D11*
%TO.P,J3,1,Pin_1*%
%TO.N,Net-(J1-Pin_1)*%
X139400000Y-99266667D03*
%TD*%
D10*
%TO.P,J6,2,Pin_2*%
%TO.N,Net-(A1-A0)*%
X183000000Y-99600000D03*
D12*
%TO.P,J6,1,Pin_1*%
%TO.N,Net-(J1-Pin_1)*%
X183000000Y-104600000D03*
%TD*%
D10*
%TO.P,J5,2,Pin_2*%
%TO.N,Net-(A1-D12)*%
X183000000Y-113116667D03*
D12*
%TO.P,J5,1,Pin_1*%
%TO.N,Net-(J1-Pin_1)*%
X183000000Y-118116667D03*
%TD*%
D10*
%TO.P,J7,2,Pin_2*%
%TO.N,Net-(A1-A1)*%
X183000000Y-86083334D03*
D12*
%TO.P,J7,1,Pin_1*%
%TO.N,Net-(J1-Pin_1)*%
X183000000Y-91083334D03*
%TD*%
D10*
%TO.P,J8,2,Pin_2*%
%TO.N,Net-(A1-A2)*%
X183000000Y-72566667D03*
D12*
%TO.P,J8,1,Pin_1*%
%TO.N,Net-(J1-Pin_1)*%
X183000000Y-77566667D03*
%TD*%
D13*
%TO.P,A1,1,D1/TX*%
%TO.N,unconnected-(A1-D1{slash}TX-Pad1)*%
X153710000Y-76136667D03*
D14*
%TO.P,A1,2,D0/RX*%
%TO.N,unconnected-(A1-D0{slash}RX-Pad2)*%
X153710000Y-78676667D03*
%TO.P,A1,3,~{RESET}*%
%TO.N,unconnected-(A1-~{RESET}-Pad3)*%
X153710000Y-81216667D03*
%TO.P,A1,4,GND*%
%TO.N,Net-(J1-Pin_1)*%
X153710000Y-83756667D03*
%TO.P,A1,5,D2*%
%TO.N,Net-(A1-D2)*%
X153710000Y-86296667D03*
%TO.P,A1,6,D3*%
X153710000Y-88836667D03*
%TO.P,A1,7,D4*%
X153710000Y-91376667D03*
%TO.P,A1,8,D5*%
X153710000Y-93916667D03*
%TO.P,A1,9,D6*%
X153710000Y-96456667D03*
%TO.P,A1,10,D7*%
X153710000Y-98996667D03*
%TO.P,A1,11,D8*%
X153710000Y-101536667D03*
%TO.P,A1,12,D9*%
%TO.N,Net-(A1-D9)*%
X153710000Y-104076667D03*
%TO.P,A1,13,D10*%
%TO.N,Net-(A1-D10)*%
X153710000Y-106616667D03*
%TO.P,A1,14,D11*%
%TO.N,Net-(A1-D11)*%
X153710000Y-109156667D03*
%TO.P,A1,15,D12*%
%TO.N,Net-(A1-D12)*%
X153710000Y-111696667D03*
%TO.P,A1,16,D13*%
%TO.N,unconnected-(A1-D13-Pad16)*%
X168950000Y-111696667D03*
%TO.P,A1,17,3V3*%
%TO.N,unconnected-(A1-3V3-Pad17)*%
X168950000Y-109156667D03*
%TO.P,A1,18,AREF*%
%TO.N,unconnected-(A1-AREF-Pad18)*%
X168950000Y-106616667D03*
%TO.P,A1,19,A0*%
%TO.N,Net-(A1-A0)*%
X168950000Y-104076667D03*
%TO.P,A1,20,A1*%
%TO.N,Net-(A1-A1)*%
X168950000Y-101536667D03*
%TO.P,A1,21,A2*%
%TO.N,Net-(A1-A2)*%
X168950000Y-98996667D03*
%TO.P,A1,22,A3*%
%TO.N,unconnected-(A1-A3-Pad22)*%
X168950000Y-96456667D03*
%TO.P,A1,23,A4*%
%TO.N,unconnected-(A1-A4-Pad23)*%
X168950000Y-93916667D03*
%TO.P,A1,24,A5*%
%TO.N,unconnected-(A1-A5-Pad24)*%
X168950000Y-91376667D03*
%TO.P,A1,25,A6*%
%TO.N,unconnected-(A1-A6-Pad25)*%
X168950000Y-88836667D03*
%TO.P,A1,26,A7*%
%TO.N,unconnected-(A1-A7-Pad26)*%
X168950000Y-86296667D03*
%TO.P,A1,27,+5V*%
%TO.N,unconnected-(A1-+5V-Pad27)*%
X168950000Y-83756667D03*
%TO.P,A1,28,~{RESET}*%
%TO.N,unconnected-(A1-~{RESET}-Pad28)*%
X168950000Y-81216667D03*
%TO.P,A1,29,GND*%
%TO.N,unconnected-(A1-GND-Pad29)*%
X168950000Y-78676667D03*
%TO.P,A1,30,VIN*%
%TO.N,unconnected-(A1-VIN-Pad30)*%
X168950000Y-76136667D03*
%TD*%
M02*
