%TF.GenerationSoftware,KiCad,Pcbnew,9.0.0*%
%TF.CreationDate,2025-11-11T15:09:18+01:00*%
%TF.ProjectId,lidar_and_7_camera_trigger_arduino_circuit,6c696461-725f-4616-9e64-5f375f63616d,1.0*%
%TF.SameCoordinates,Original*%
%TF.FileFunction,Copper,L1,Top*%
%TF.FilePolarity,Positive*%
%FSLAX46Y46*%
G04 Gerber Fmt 4.6, Leading zero omitted, Abs format (unit mm)*
G04 Created by KiCad (PCBNEW 9.0.0) date 2025-11-11 15:09:18*
%MOMM*%
%LPD*%
G01*
G04 APERTURE LIST*
G04 Aperture macros list*
%AMRoundRect*
0 Rectangle with rounded corners*
0 $1 Rounding radius*
0 $2 $3 $4 $5 $6 $7 $8 $9 X,Y pos of 4 corners*
0 Add a 4 corners polygon primitive as box body*
4,1,4,$2,$3,$4,$5,$6,$7,$8,$9,$2,$3,0*
0 Add four circle primitives for the rounded corners*
1,1,$1+$1,$2,$3*
1,1,$1+$1,$4,$5*
1,1,$1+$1,$6,$7*
1,1,$1+$1,$8,$9*
0 Add four rect primitives between the rounded corners*
20,1,$1+$1,$2,$3,$4,$5,0*
20,1,$1+$1,$4,$5,$6,$7,0*
20,1,$1+$1,$6,$7,$8,$9,0*
20,1,$1+$1,$8,$9,$2,$3,0*%
G04 Aperture macros list end*
%TA.AperFunction,ComponentPad*%
%ADD10C,2.600000*%
%TD*%
%TA.AperFunction,ComponentPad*%
%ADD11RoundRect,0.250000X-1.050000X1.050000X-1.050000X-1.050000X1.050000X-1.050000X1.050000X1.050000X0*%
%TD*%
%TA.AperFunction,ComponentPad*%
%ADD12RoundRect,0.250000X1.050000X-1.050000X1.050000X1.050000X-1.050000X1.050000X-1.050000X-1.050000X0*%
%TD*%
%TA.AperFunction,ComponentPad*%
%ADD13R,1.600000X1.600000*%
%TD*%
%TA.AperFunction,ComponentPad*%
%ADD14O,1.600000X1.600000*%
%TD*%
%TA.AperFunction,Conductor*%
%ADD15C,0.200000*%
%TD*%
G04 APERTURE END LIST*
D10*
%TO.P,J2,2,Pin_2*%
%TO.N,Net-(A1-D9)*%
X139400000Y-90966667D03*
D11*
%TO.P,J2,1,Pin_1*%
%TO.N,Net-(J1-Pin_1)*%
X139400000Y-85966667D03*
%TD*%
D10*
%TO.P,J4,2,Pin_2*%
%TO.N,Net-(A1-D11)*%
X139400000Y-117566667D03*
D11*
%TO.P,J4,1,Pin_1*%
%TO.N,Net-(J1-Pin_1)*%
X139400000Y-112566667D03*
%TD*%
D10*
%TO.P,J1,2,Pin_2*%
%TO.N,Net-(A1-D2)*%
X139400000Y-77666667D03*
D11*
%TO.P,J1,1,Pin_1*%
%TO.N,Net-(J1-Pin_1)*%
X139400000Y-72666667D03*
%TD*%
D10*
%TO.P,J3,2,Pin_2*%
%TO.N,Net-(A1-D10)*%
X139400000Y-104266667D03*
D11*
%TO.P,J3,1,Pin_1*%
%TO.N,Net-(J1-Pin_1)*%
X139400000Y-99266667D03*
%TD*%
D10*
%TO.P,J6,2,Pin_2*%
%TO.N,Net-(A1-A0)*%
X183000000Y-99600000D03*
D12*
%TO.P,J6,1,Pin_1*%
%TO.N,Net-(J1-Pin_1)*%
X183000000Y-104600000D03*
%TD*%
D10*
%TO.P,J5,2,Pin_2*%
%TO.N,Net-(A1-D12)*%
X183000000Y-113116667D03*
D12*
%TO.P,J5,1,Pin_1*%
%TO.N,Net-(J1-Pin_1)*%
X183000000Y-118116667D03*
%TD*%
D10*
%TO.P,J7,2,Pin_2*%
%TO.N,Net-(A1-A1)*%
X183000000Y-86083334D03*
D12*
%TO.P,J7,1,Pin_1*%
%TO.N,Net-(J1-Pin_1)*%
X183000000Y-91083334D03*
%TD*%
D10*
%TO.P,J8,2,Pin_2*%
%TO.N,Net-(A1-A2)*%
X183000000Y-72566667D03*
D12*
%TO.P,J8,1,Pin_1*%
%TO.N,Net-(J1-Pin_1)*%
X183000000Y-77566667D03*
%TD*%
D13*
%TO.P,A1,1,D1/TX*%
%TO.N,unconnected-(A1-D1{slash}TX-Pad1)*%
X153710000Y-76136667D03*
D14*
%TO.P,A1,2,D0/RX*%
%TO.N,unconnected-(A1-D0{slash}RX-Pad2)*%
X153710000Y-78676667D03*
%TO.P,A1,3,~{RESET}*%
%TO.N,unconnected-(A1-~{RESET}-Pad3)*%
X153710000Y-81216667D03*
%TO.P,A1,4,GND*%
%TO.N,Net-(J1-Pin_1)*%
X153710000Y-83756667D03*
%TO.P,A1,5,D2*%
%TO.N,Net-(A1-D2)*%
X153710000Y-86296667D03*
%TO.P,A1,6,D3*%
X153710000Y-88836667D03*
%TO.P,A1,7,D4*%
X153710000Y-91376667D03*
%TO.P,A1,8,D5*%
X153710000Y-93916667D03*
%TO.P,A1,9,D6*%
X153710000Y-96456667D03*
%TO.P,A1,10,D7*%
X153710000Y-98996667D03*
%TO.P,A1,11,D8*%
X153710000Y-101536667D03*
%TO.P,A1,12,D9*%
%TO.N,Net-(A1-D9)*%
X153710000Y-104076667D03*
%TO.P,A1,13,D10*%
%TO.N,Net-(A1-D10)*%
X153710000Y-106616667D03*
%TO.P,A1,14,D11*%
%TO.N,Net-(A1-D11)*%
X153710000Y-109156667D03*
%TO.P,A1,15,D12*%
%TO.N,Net-(A1-D12)*%
X153710000Y-111696667D03*
%TO.P,A1,16,D13*%
%TO.N,unconnected-(A1-D13-Pad16)*%
X168950000Y-111696667D03*
%TO.P,A1,17,3V3*%
%TO.N,unconnected-(A1-3V3-Pad17)*%
X168950000Y-109156667D03*
%TO.P,A1,18,AREF*%
%TO.N,unconnected-(A1-AREF-Pad18)*%
X168950000Y-106616667D03*
%TO.P,A1,19,A0*%
%TO.N,Net-(A1-A0)*%
X168950000Y-104076667D03*
%TO.P,A1,20,A1*%
%TO.N,Net-(A1-A1)*%
X168950000Y-101536667D03*
%TO.P,A1,21,A2*%
%TO.N,Net-(A1-A2)*%
X168950000Y-98996667D03*
%TO.P,A1,22,A3*%
%TO.N,unconnected-(A1-A3-Pad22)*%
X168950000Y-96456667D03*
%TO.P,A1,23,A4*%
%TO.N,unconnected-(A1-A4-Pad23)*%
X168950000Y-93916667D03*
%TO.P,A1,24,A5*%
%TO.N,unconnected-(A1-A5-Pad24)*%
X168950000Y-91376667D03*
%TO.P,A1,25,A6*%
%TO.N,unconnected-(A1-A6-Pad25)*%
X168950000Y-88836667D03*
%TO.P,A1,26,A7*%
%TO.N,unconnected-(A1-A7-Pad26)*%
X168950000Y-86296667D03*
%TO.P,A1,27,+5V*%
%TO.N,unconnected-(A1-+5V-Pad27)*%
X168950000Y-83756667D03*
%TO.P,A1,28,~{RESET}*%
%TO.N,unconnected-(A1-~{RESET}-Pad28)*%
X168950000Y-81216667D03*
%TO.P,A1,29,GND*%
%TO.N,unconnected-(A1-GND-Pad29)*%
X168950000Y-78676667D03*
%TO.P,A1,30,VIN*%
%TO.N,unconnected-(A1-VIN-Pad30)*%
X168950000Y-76136667D03*
%TD*%
D15*
%TO.N,Net-(J1-Pin_1)*%
X190766667Y-77566667D02*
X183000000Y-77566667D01*
X193000000Y-79800000D02*
X190766667Y-77566667D01*
X193000000Y-87600000D02*
X193000000Y-79800000D01*
X189833334Y-90766666D02*
X193000000Y-87600000D01*
X189833334Y-91083334D02*
X189833334Y-90766666D01*
X189833334Y-91083334D02*
X183000000Y-91083334D01*
X193050000Y-94300000D02*
X189833334Y-91083334D01*
X190400000Y-104150000D02*
X193250000Y-101300000D01*
X190400000Y-104600000D02*
X190400000Y-104150000D01*
X193250000Y-101300000D02*
X193250000Y-94300000D01*
X193250000Y-94300000D02*
X193050000Y-94300000D01*
X190400000Y-104600000D02*
X183000000Y-104600000D01*
X193050000Y-107250000D02*
X190400000Y-104600000D01*
X193050000Y-116050000D02*
X193050000Y-107250000D01*
X190983333Y-118116667D02*
X193050000Y-116050000D01*
X183000000Y-118116667D02*
X190983333Y-118116667D01*
X180100000Y-123550000D02*
X183000000Y-120650000D01*
X129200000Y-121850000D02*
X130900000Y-123550000D01*
X130900000Y-123550000D02*
X180100000Y-123550000D01*
X183000000Y-120650000D02*
X183000000Y-118116667D01*
X129200000Y-115133334D02*
X129200000Y-121850000D01*
X131766667Y-112566667D02*
X129200000Y-115133334D01*
X131766667Y-112566667D02*
X139400000Y-112566667D01*
X128900000Y-101100000D02*
X128900000Y-109700000D01*
X128983334Y-101100000D02*
X128900000Y-101100000D01*
X128900000Y-109700000D02*
X131766667Y-112566667D01*
X130816667Y-99266667D02*
X128983334Y-101100000D01*
X129000000Y-97450000D02*
X130816667Y-99266667D01*
X129000000Y-87750000D02*
X129000000Y-97450000D01*
X130816667Y-99266667D02*
X139400000Y-99266667D01*
X130566667Y-86183333D02*
X129000000Y-87750000D01*
X130550000Y-85950000D02*
X130566667Y-85966667D01*
X130566667Y-85966667D02*
X130566667Y-86183333D01*
X130566667Y-85966667D02*
X139400000Y-85966667D01*
X128800000Y-84200000D02*
X130550000Y-85950000D01*
X128800000Y-73450000D02*
X128800000Y-84200000D01*
X139400000Y-72666667D02*
X129583333Y-72666667D01*
X129583333Y-72666667D02*
X128800000Y-73450000D01*
X148200000Y-78246667D02*
X153710000Y-83756667D01*
X148200000Y-73050000D02*
X148200000Y-78246667D01*
X147816667Y-72666667D02*
X148200000Y-73050000D01*
X139400000Y-72666667D02*
X147816667Y-72666667D01*
%TO.N,Net-(A1-A1)*%
X174900000Y-99400000D02*
X172763333Y-101536667D01*
X172763333Y-101536667D02*
X168950000Y-101536667D01*
X174900000Y-94183334D02*
X174900000Y-99400000D01*
X183000000Y-86083334D02*
X174900000Y-94183334D01*
%TO.N,Net-(A1-A2)*%
X173050000Y-94896667D02*
X168950000Y-98996667D01*
X173050000Y-82516667D02*
X173050000Y-94896667D01*
X183000000Y-72566667D02*
X173050000Y-82516667D01*
%TO.N,Net-(A1-A0)*%
X178523333Y-104076667D02*
X168950000Y-104076667D01*
X183000000Y-99600000D02*
X178523333Y-104076667D01*
%TO.N,Net-(A1-D12)*%
X176166667Y-119950000D02*
X183000000Y-113116667D01*
X149700000Y-119950000D02*
X176166667Y-119950000D01*
X149700000Y-115706667D02*
X149700000Y-119950000D01*
X153710000Y-111696667D02*
X149700000Y-115706667D01*
%TO.N,Net-(A1-D11)*%
X148250000Y-114616667D02*
X148250000Y-117600000D01*
X148250000Y-117600000D02*
X148216667Y-117566667D01*
X153710000Y-109156667D02*
X148250000Y-114616667D01*
X148216667Y-117566667D02*
X139400000Y-117566667D01*
%TO.N,Net-(A1-D10)*%
X149500000Y-106550000D02*
X149566667Y-106616667D01*
X149300000Y-106750000D02*
X149500000Y-106550000D01*
X139650000Y-108500000D02*
X149250000Y-108500000D01*
X149300000Y-108550000D02*
X149300000Y-106750000D01*
X139400000Y-108250000D02*
X139650000Y-108500000D01*
X149250000Y-108500000D02*
X149300000Y-108550000D01*
X139400000Y-104266667D02*
X139400000Y-108250000D01*
X149566667Y-106616667D02*
X153710000Y-106616667D01*
%TO.N,Net-(A1-D9)*%
X148550000Y-96850000D02*
X148550000Y-103800000D01*
X148826667Y-104076667D02*
X153710000Y-104076667D01*
X139700000Y-95350000D02*
X147050000Y-95350000D01*
X148550000Y-103800000D02*
X148826667Y-104076667D01*
X139400000Y-95050000D02*
X139700000Y-95350000D01*
X139400000Y-90966667D02*
X139400000Y-95050000D01*
X147050000Y-95350000D02*
X148550000Y-96850000D01*
%TO.N,Net-(A1-D2)*%
X150553333Y-98996667D02*
X150550000Y-99000000D01*
X153710000Y-98996667D02*
X150553333Y-98996667D01*
X150550000Y-99000000D02*
X150550000Y-96500000D01*
X150593333Y-96456667D02*
X150550000Y-96500000D01*
X150550000Y-96500000D02*
X150550000Y-94000000D01*
X153710000Y-96456667D02*
X150593333Y-96456667D01*
X150633333Y-93916667D02*
X150550000Y-94000000D01*
X153710000Y-93916667D02*
X150633333Y-93916667D01*
X150550000Y-94000000D02*
X150550000Y-91500000D01*
X153710000Y-91376667D02*
X150673333Y-91376667D01*
X150550000Y-91500000D02*
X150550000Y-89000000D01*
X150673333Y-91376667D02*
X150550000Y-91500000D01*
X150713333Y-88836667D02*
X150550000Y-89000000D01*
X153710000Y-88836667D02*
X150713333Y-88836667D01*
X150550000Y-101600000D02*
X150550000Y-99000000D01*
X150550000Y-85100000D02*
X150475000Y-85025000D01*
X147150000Y-81700000D02*
X150475000Y-85025000D01*
X150613333Y-101536667D02*
X150550000Y-101600000D01*
X153710000Y-101536667D02*
X150613333Y-101536667D01*
X150550000Y-89000000D02*
X150550000Y-85100000D01*
X151746667Y-86296667D02*
X153710000Y-86296667D01*
X150475000Y-85025000D02*
X151746667Y-86296667D01*
X139450000Y-81700000D02*
X147150000Y-81700000D01*
X139400000Y-81650000D02*
X139450000Y-81700000D01*
X139400000Y-77666667D02*
X139400000Y-81650000D01*
%TD*%
M02*
