%TF.GenerationSoftware,KiCad,Pcbnew,9.0.0*%
%TF.CreationDate,2025-11-11T15:09:26+01:00*%
%TF.ProjectId,lidar_and_7_camera_trigger_arduino_circuit,6c696461-725f-4616-9e64-5f375f63616d,1.0*%
%TF.SameCoordinates,Original*%
%TF.FileFunction,Plated,1,2,PTH,Drill*%
%TF.FilePolarity,Positive*%
%FSLAX46Y46*%
G04 Gerber Fmt 4.6, Leading zero omitted, Abs format (unit mm)*
G04 Created by KiCad (PCBNEW 9.0.0) date 2025-11-11 15:09:26*
%MOMM*%
%LPD*%
G01*
G04 APERTURE LIST*
%TA.AperFunction,ComponentDrill*%
%ADD10C,1.000000*%
%TD*%
%TA.AperFunction,ComponentDrill*%
%ADD11C,1.300000*%
%TD*%
G04 APERTURE END LIST*
D10*
%TO.C,A1*%
X153710000Y-76136667D03*
X153710000Y-78676667D03*
X153710000Y-81216667D03*
X153710000Y-83756667D03*
X153710000Y-86296667D03*
X153710000Y-88836667D03*
X153710000Y-91376667D03*
X153710000Y-93916667D03*
X153710000Y-96456667D03*
X153710000Y-98996667D03*
X153710000Y-101536667D03*
X153710000Y-104076667D03*
X153710000Y-106616667D03*
X153710000Y-109156667D03*
X153710000Y-111696667D03*
X168950000Y-76136667D03*
X168950000Y-78676667D03*
X168950000Y-81216667D03*
X168950000Y-83756667D03*
X168950000Y-86296667D03*
X168950000Y-88836667D03*
X168950000Y-91376667D03*
X168950000Y-93916667D03*
X168950000Y-96456667D03*
X168950000Y-98996667D03*
X168950000Y-101536667D03*
X168950000Y-104076667D03*
X168950000Y-106616667D03*
X168950000Y-109156667D03*
X168950000Y-111696667D03*
D11*
%TO.C,J1*%
X139400000Y-72666667D03*
X139400000Y-77666667D03*
%TO.C,J2*%
X139400000Y-85966667D03*
X139400000Y-90966667D03*
%TO.C,J3*%
X139400000Y-99266667D03*
X139400000Y-104266667D03*
%TO.C,J4*%
X139400000Y-112566667D03*
X139400000Y-117566667D03*
%TO.C,J8*%
X183000000Y-72566667D03*
X183000000Y-77566667D03*
%TO.C,J7*%
X183000000Y-86083334D03*
X183000000Y-91083334D03*
%TO.C,J6*%
X183000000Y-99600000D03*
X183000000Y-104600000D03*
%TO.C,J5*%
X183000000Y-113116667D03*
X183000000Y-118116667D03*
M02*
